G04 Layer: BottomSolderMaskLayer*
G04 EasyEDA v6.1.51, Wed, 19 Jun 2019 13:06:47 GMT*
G04 66271e87440c4271b6eaadeb73023992,1972fb780e03461d8e8e980d21b9fed7,00*
G04 Gerber Generator version 0.2*
G04 Scale: 100 percent, Rotated: No, Reflected: No *
G04 Dimensions in inches *
G04 leading zeros omitted , absolute positions ,2 integer and 4 decimal *
%FSLAX24Y24*%
%MOIN*%
G90*
G70D02*

%ADD38C,0.047370*%
%ADD39C,0.106400*%
%ADD40R,0.047370X0.047370*%
%ADD41C,0.074930*%
%ADD42R,0.074930X0.074930*%
%ADD44C,0.070990*%
%ADD45C,0.078870*%
%ADD46C,0.102490*%
%ADD48R,0.086740X0.039500*%
%ADD49R,0.057210X0.047370*%
%ADD51R,0.108390X0.106420*%

%LPD*%
G54D38*
G01X5478Y35362D02*
G01X5478Y34929D01*
G01X8879Y35362D02*
G01X8879Y34929D01*
G01X5478Y36909D02*
G01X5478Y36673D01*
G01X8879Y36909D02*
G01X8879Y36673D01*
G54D39*
G01X49979Y18740D02*
G01X50964Y18740D01*
G01X9428Y26259D02*
G01X10413Y26259D01*
G01X74506Y3700D02*
G01X75491Y3700D01*
G01X101888Y26259D02*
G01X102873Y26259D01*
G36*
G01X14357Y9526D02*
G01X14357Y9862D01*
G01X14890Y9862D01*
G01X14890Y9526D01*
G01X14357Y9526D01*
G37*
G36*
G01X15519Y9151D02*
G01X15519Y9488D01*
G01X16051Y9488D01*
G01X16051Y9151D01*
G01X15519Y9151D01*
G37*
G36*
G01X15519Y9900D02*
G01X15519Y10236D01*
G01X16051Y10236D01*
G01X16051Y9900D01*
G01X15519Y9900D01*
G37*
G36*
G01X3553Y36471D02*
G01X3553Y37129D01*
G01X4090Y37129D01*
G01X4090Y36471D01*
G01X3553Y36471D01*
G37*
G36*
G01X2853Y36471D02*
G01X2853Y37129D01*
G01X3389Y37129D01*
G01X3389Y36471D01*
G01X2853Y36471D01*
G37*
G36*
G01X111163Y9347D02*
G01X111163Y9884D01*
G01X111822Y9884D01*
G01X111822Y9347D01*
G01X111163Y9347D01*
G37*
G36*
G01X111163Y10048D02*
G01X111163Y10585D01*
G01X111822Y10585D01*
G01X111822Y10048D01*
G01X111163Y10048D01*
G37*
G36*
G01X111163Y17762D02*
G01X111163Y18298D01*
G01X111822Y18298D01*
G01X111822Y17762D01*
G01X111163Y17762D01*
G37*
G36*
G01X111163Y17061D02*
G01X111163Y17597D01*
G01X111822Y17597D01*
G01X111822Y17061D01*
G01X111163Y17061D01*
G37*
G36*
G01X111163Y24774D02*
G01X111163Y25311D01*
G01X111822Y25311D01*
G01X111822Y24774D01*
G01X111163Y24774D01*
G37*
G36*
G01X111163Y25475D02*
G01X111163Y26012D01*
G01X111822Y26012D01*
G01X111822Y25475D01*
G01X111163Y25475D01*
G37*
G36*
G01X111163Y11436D02*
G01X111163Y11973D01*
G01X111822Y11973D01*
G01X111822Y11436D01*
G01X111163Y11436D01*
G37*
G36*
G01X111163Y12137D02*
G01X111163Y12674D01*
G01X111822Y12674D01*
G01X111822Y12137D01*
G01X111163Y12137D01*
G37*
G36*
G01X111170Y19153D02*
G01X111170Y19690D01*
G01X111829Y19690D01*
G01X111829Y19153D01*
G01X111170Y19153D01*
G37*
G36*
G01X111170Y19854D02*
G01X111170Y20390D01*
G01X111829Y20390D01*
G01X111829Y19854D01*
G01X111170Y19854D01*
G37*
G36*
G01X111163Y27610D02*
G01X111163Y28146D01*
G01X111822Y28146D01*
G01X111822Y27610D01*
G01X111163Y27610D01*
G37*
G36*
G01X111163Y26909D02*
G01X111163Y27445D01*
G01X111822Y27445D01*
G01X111822Y26909D01*
G01X111163Y26909D01*
G37*
G36*
G01X8291Y34066D02*
G01X8291Y35111D01*
G01X8607Y35111D01*
G01X8607Y34066D01*
G01X8291Y34066D01*
G37*
G36*
G01X5751Y34066D02*
G01X5751Y35111D01*
G01X6068Y35111D01*
G01X6068Y34066D01*
G01X5751Y34066D01*
G37*
G36*
G01X7986Y34066D02*
G01X7986Y35111D01*
G01X8302Y35111D01*
G01X8302Y34066D01*
G01X7986Y34066D01*
G37*
G36*
G01X6056Y34066D02*
G01X6056Y35111D01*
G01X6373Y35111D01*
G01X6373Y34066D01*
G01X6056Y34066D01*
G37*
G36*
G01X6391Y34066D02*
G01X6391Y35111D01*
G01X6589Y35111D01*
G01X6589Y34066D01*
G01X6391Y34066D01*
G37*
G36*
G01X7769Y34066D02*
G01X7769Y35111D01*
G01X7967Y35111D01*
G01X7967Y34066D01*
G01X7769Y34066D01*
G37*
G36*
G01X6588Y34066D02*
G01X6588Y35111D01*
G01X6786Y35111D01*
G01X6786Y34066D01*
G01X6588Y34066D01*
G37*
G36*
G01X7572Y34066D02*
G01X7572Y35111D01*
G01X7770Y35111D01*
G01X7770Y34066D01*
G01X7572Y34066D01*
G37*
G36*
G01X6785Y34066D02*
G01X6785Y35111D01*
G01X6983Y35111D01*
G01X6983Y34066D01*
G01X6785Y34066D01*
G37*
G36*
G01X7375Y34066D02*
G01X7375Y35111D01*
G01X7573Y35111D01*
G01X7573Y34066D01*
G01X7375Y34066D01*
G37*
G36*
G01X7179Y34066D02*
G01X7179Y35111D01*
G01X7377Y35111D01*
G01X7377Y34066D01*
G01X7179Y34066D01*
G37*
G36*
G01X6982Y34066D02*
G01X6982Y35111D01*
G01X7180Y35111D01*
G01X7180Y34066D01*
G01X6982Y34066D01*
G37*
G54D38*
G01X17401Y29578D03*
G54D40*
G01X17401Y29086D03*
G54D41*
G01X56519Y2303D03*
G01X56519Y3303D03*
G01X56519Y4303D03*
G36*
G01X56144Y4929D02*
G01X56144Y5677D01*
G01X56894Y5677D01*
G01X56894Y4929D01*
G01X56144Y4929D01*
G37*
G36*
G01X43777Y6048D02*
G01X43777Y6914D01*
G01X44172Y6914D01*
G01X44172Y6048D01*
G01X43777Y6048D01*
G37*
G36*
G01X43277Y6048D02*
G01X43277Y6914D01*
G01X43672Y6914D01*
G01X43672Y6048D01*
G01X43277Y6048D01*
G37*
G36*
G01X42777Y6048D02*
G01X42777Y6914D01*
G01X43172Y6914D01*
G01X43172Y6048D01*
G01X42777Y6048D01*
G37*
G36*
G01X42277Y6048D02*
G01X42277Y6914D01*
G01X42672Y6914D01*
G01X42672Y6048D01*
G01X42277Y6048D01*
G37*
G36*
G01X41777Y6048D02*
G01X41777Y6914D01*
G01X42172Y6914D01*
G01X42172Y6048D01*
G01X41777Y6048D01*
G37*
G36*
G01X41277Y6048D02*
G01X41277Y6914D01*
G01X41672Y6914D01*
G01X41672Y6048D01*
G01X41277Y6048D01*
G37*
G36*
G01X40777Y6048D02*
G01X40777Y6914D01*
G01X41172Y6914D01*
G01X41172Y6048D01*
G01X40777Y6048D01*
G37*
G36*
G01X40277Y6048D02*
G01X40277Y6914D01*
G01X40672Y6914D01*
G01X40672Y6048D01*
G01X40277Y6048D01*
G37*
G36*
G01X39777Y6048D02*
G01X39777Y6914D01*
G01X40172Y6914D01*
G01X40172Y6048D01*
G01X39777Y6048D01*
G37*
G36*
G01X39277Y6048D02*
G01X39277Y6914D01*
G01X39672Y6914D01*
G01X39672Y6048D01*
G01X39277Y6048D01*
G37*
G36*
G01X38777Y6048D02*
G01X38777Y6914D01*
G01X39172Y6914D01*
G01X39172Y6048D01*
G01X38777Y6048D01*
G37*
G36*
G01X38277Y6048D02*
G01X38277Y6914D01*
G01X38672Y6914D01*
G01X38672Y6048D01*
G01X38277Y6048D01*
G37*
G54D48*
G01X37514Y5528D03*
G01X37514Y5028D03*
G01X37514Y4528D03*
G01X37514Y4028D03*
G01X37514Y3528D03*
G01X37514Y3028D03*
G01X37514Y2528D03*
G01X37514Y2028D03*
G36*
G01X38277Y142D02*
G01X38277Y1010D01*
G01X38672Y1010D01*
G01X38672Y142D01*
G01X38277Y142D01*
G37*
G36*
G01X38777Y142D02*
G01X38777Y1010D01*
G01X39172Y1010D01*
G01X39172Y142D01*
G01X38777Y142D01*
G37*
G36*
G01X39277Y142D02*
G01X39277Y1010D01*
G01X39672Y1010D01*
G01X39672Y142D01*
G01X39277Y142D01*
G37*
G36*
G01X39777Y142D02*
G01X39777Y1010D01*
G01X40172Y1010D01*
G01X40172Y142D01*
G01X39777Y142D01*
G37*
G36*
G01X40277Y142D02*
G01X40277Y1010D01*
G01X40672Y1010D01*
G01X40672Y142D01*
G01X40277Y142D01*
G37*
G36*
G01X40777Y142D02*
G01X40777Y1010D01*
G01X41172Y1010D01*
G01X41172Y142D01*
G01X40777Y142D01*
G37*
G36*
G01X41277Y142D02*
G01X41277Y1010D01*
G01X41672Y1010D01*
G01X41672Y142D01*
G01X41277Y142D01*
G37*
G36*
G01X41777Y142D02*
G01X41777Y1010D01*
G01X42172Y1010D01*
G01X42172Y142D01*
G01X41777Y142D01*
G37*
G36*
G01X42277Y142D02*
G01X42277Y1010D01*
G01X42672Y1010D01*
G01X42672Y142D01*
G01X42277Y142D01*
G37*
G36*
G01X42777Y142D02*
G01X42777Y1010D01*
G01X43172Y1010D01*
G01X43172Y142D01*
G01X42777Y142D01*
G37*
G36*
G01X43277Y142D02*
G01X43277Y1010D01*
G01X43672Y1010D01*
G01X43672Y142D01*
G01X43277Y142D01*
G37*
G36*
G01X43777Y142D02*
G01X43777Y1010D01*
G01X44172Y1010D01*
G01X44172Y142D01*
G01X43777Y142D01*
G37*
G01X37514Y1528D03*
G54D42*
G01X25737Y29026D03*
G54D41*
G01X25737Y30026D03*
G36*
G01X28293Y6427D02*
G01X28293Y7086D01*
G01X28830Y7086D01*
G01X28830Y6427D01*
G01X28293Y6427D01*
G37*
G36*
G01X28994Y6427D02*
G01X28994Y7086D01*
G01X29531Y7086D01*
G01X29531Y6427D01*
G01X28994Y6427D01*
G37*
G36*
G01X28293Y5474D02*
G01X28293Y6133D01*
G01X28830Y6133D01*
G01X28830Y5474D01*
G01X28293Y5474D01*
G37*
G36*
G01X28994Y5474D02*
G01X28994Y6133D01*
G01X29531Y6133D01*
G01X29531Y5474D01*
G01X28994Y5474D01*
G37*
G36*
G01X28930Y1437D02*
G01X28930Y1975D01*
G01X29588Y1975D01*
G01X29588Y1437D01*
G01X28930Y1437D01*
G37*
G36*
G01X28930Y737D02*
G01X28930Y1274D01*
G01X29588Y1274D01*
G01X29588Y737D01*
G01X28930Y737D01*
G37*
G36*
G01X1304Y19614D02*
G01X1304Y20273D01*
G01X1841Y20273D01*
G01X1841Y19614D01*
G01X1304Y19614D01*
G37*
G36*
G01X2005Y19614D02*
G01X2005Y20273D01*
G01X2542Y20273D01*
G01X2542Y19614D01*
G01X2005Y19614D01*
G37*
G36*
G01X14586Y10499D02*
G01X14586Y11158D01*
G01X15122Y11158D01*
G01X15122Y10499D01*
G01X14586Y10499D01*
G37*
G36*
G01X15286Y10499D02*
G01X15286Y11158D01*
G01X15823Y11158D01*
G01X15823Y10499D01*
G01X15286Y10499D01*
G37*
G36*
G01X15286Y8193D02*
G01X15286Y8851D01*
G01X15823Y8851D01*
G01X15823Y8193D01*
G01X15286Y8193D01*
G37*
G36*
G01X14586Y8193D02*
G01X14586Y8851D01*
G01X15122Y8851D01*
G01X15122Y8193D01*
G01X14586Y8193D01*
G37*
G36*
G01X15286Y13342D02*
G01X15286Y14001D01*
G01X15823Y14001D01*
G01X15823Y13342D01*
G01X15286Y13342D01*
G37*
G36*
G01X14586Y13342D02*
G01X14586Y14001D01*
G01X15122Y14001D01*
G01X15122Y13342D01*
G01X14586Y13342D01*
G37*
G36*
G01X1304Y16585D02*
G01X1304Y17244D01*
G01X1841Y17244D01*
G01X1841Y16585D01*
G01X1304Y16585D01*
G37*
G36*
G01X2005Y16585D02*
G01X2005Y17244D01*
G01X2542Y17244D01*
G01X2542Y16585D01*
G01X2005Y16585D01*
G37*
G36*
G01X3263Y35709D02*
G01X3263Y36183D01*
G01X3835Y36183D01*
G01X3835Y35709D01*
G01X3263Y35709D01*
G37*
G36*
G01X2101Y35709D02*
G01X2101Y36183D01*
G01X2673Y36183D01*
G01X2673Y35709D01*
G01X2101Y35709D01*
G37*
G36*
G01X10765Y35709D02*
G01X10765Y36183D01*
G01X11337Y36183D01*
G01X11337Y35709D01*
G01X10765Y35709D01*
G37*
G36*
G01X9603Y35709D02*
G01X9603Y36183D01*
G01X10175Y36183D01*
G01X10175Y35709D01*
G01X9603Y35709D01*
G37*
G36*
G01X18267Y35709D02*
G01X18267Y36183D01*
G01X18839Y36183D01*
G01X18839Y35709D01*
G01X18267Y35709D01*
G37*
G36*
G01X17105Y35709D02*
G01X17105Y36183D01*
G01X17677Y36183D01*
G01X17677Y35709D01*
G01X17105Y35709D01*
G37*
G36*
G01X25769Y35709D02*
G01X25769Y36183D01*
G01X26341Y36183D01*
G01X26341Y35709D01*
G01X25769Y35709D01*
G37*
G36*
G01X24607Y35709D02*
G01X24607Y36183D01*
G01X25179Y36183D01*
G01X25179Y35709D01*
G01X24607Y35709D01*
G37*
G36*
G01X33271Y35709D02*
G01X33271Y36183D01*
G01X33843Y36183D01*
G01X33843Y35709D01*
G01X33271Y35709D01*
G37*
G36*
G01X32109Y35709D02*
G01X32109Y36183D01*
G01X32681Y36183D01*
G01X32681Y35709D01*
G01X32109Y35709D01*
G37*
G36*
G01X40772Y35709D02*
G01X40772Y36183D01*
G01X41345Y36183D01*
G01X41345Y35709D01*
G01X40772Y35709D01*
G37*
G36*
G01X39611Y35709D02*
G01X39611Y36183D01*
G01X40183Y36183D01*
G01X40183Y35709D01*
G01X39611Y35709D01*
G37*
G36*
G01X48275Y35709D02*
G01X48275Y36183D01*
G01X48847Y36183D01*
G01X48847Y35709D01*
G01X48275Y35709D01*
G37*
G36*
G01X47113Y35709D02*
G01X47113Y36183D01*
G01X47686Y36183D01*
G01X47686Y35709D01*
G01X47113Y35709D01*
G37*
G36*
G01X55777Y35709D02*
G01X55777Y36183D01*
G01X56349Y36183D01*
G01X56349Y35709D01*
G01X55777Y35709D01*
G37*
G36*
G01X54615Y35709D02*
G01X54615Y36183D01*
G01X55187Y36183D01*
G01X55187Y35709D01*
G01X54615Y35709D01*
G37*
G36*
G01X63279Y35709D02*
G01X63279Y36183D01*
G01X63851Y36183D01*
G01X63851Y35709D01*
G01X63279Y35709D01*
G37*
G36*
G01X62117Y35709D02*
G01X62117Y36183D01*
G01X62689Y36183D01*
G01X62689Y35709D01*
G01X62117Y35709D01*
G37*
G36*
G01X70781Y35709D02*
G01X70781Y36183D01*
G01X71353Y36183D01*
G01X71353Y35709D01*
G01X70781Y35709D01*
G37*
G36*
G01X69620Y35709D02*
G01X69620Y36183D01*
G01X70192Y36183D01*
G01X70192Y35709D01*
G01X69620Y35709D01*
G37*
G36*
G01X78283Y35709D02*
G01X78283Y36183D01*
G01X78855Y36183D01*
G01X78855Y35709D01*
G01X78283Y35709D01*
G37*
G36*
G01X77122Y35709D02*
G01X77122Y36183D01*
G01X77694Y36183D01*
G01X77694Y35709D01*
G01X77122Y35709D01*
G37*
G36*
G01X85785Y35709D02*
G01X85785Y36183D01*
G01X86357Y36183D01*
G01X86357Y35709D01*
G01X85785Y35709D01*
G37*
G36*
G01X84624Y35709D02*
G01X84624Y36183D01*
G01X85196Y36183D01*
G01X85196Y35709D01*
G01X84624Y35709D01*
G37*
G36*
G01X93287Y35709D02*
G01X93287Y36183D01*
G01X93859Y36183D01*
G01X93859Y35709D01*
G01X93287Y35709D01*
G37*
G36*
G01X92126Y35709D02*
G01X92126Y36183D01*
G01X92698Y36183D01*
G01X92698Y35709D01*
G01X92126Y35709D01*
G37*
G36*
G01X104562Y35709D02*
G01X104562Y36183D01*
G01X105134Y36183D01*
G01X105134Y35709D01*
G01X104562Y35709D01*
G37*
G36*
G01X103401Y35709D02*
G01X103401Y36183D01*
G01X103973Y36183D01*
G01X103973Y35709D01*
G01X103401Y35709D01*
G37*
G36*
G01X5208Y28175D02*
G01X5208Y28649D01*
G01X5781Y28649D01*
G01X5781Y28175D01*
G01X5208Y28175D01*
G37*
G36*
G01X4047Y28175D02*
G01X4047Y28649D01*
G01X4619Y28649D01*
G01X4619Y28175D01*
G01X4047Y28175D01*
G37*
G36*
G01X14584Y28175D02*
G01X14584Y28649D01*
G01X15156Y28649D01*
G01X15156Y28175D01*
G01X14584Y28175D01*
G37*
G36*
G01X13423Y28175D02*
G01X13423Y28649D01*
G01X13995Y28649D01*
G01X13995Y28175D01*
G01X13423Y28175D01*
G37*
G36*
G01X22083Y28175D02*
G01X22083Y28649D01*
G01X22655Y28649D01*
G01X22655Y28175D01*
G01X22083Y28175D01*
G37*
G36*
G01X20922Y28175D02*
G01X20922Y28649D01*
G01X21494Y28649D01*
G01X21494Y28175D01*
G01X20922Y28175D01*
G37*
G36*
G01X29582Y28175D02*
G01X29582Y28649D01*
G01X30154Y28649D01*
G01X30154Y28175D01*
G01X29582Y28175D01*
G37*
G36*
G01X28421Y28175D02*
G01X28421Y28649D01*
G01X28993Y28649D01*
G01X28993Y28175D01*
G01X28421Y28175D01*
G37*
G36*
G01X37082Y28175D02*
G01X37082Y28649D01*
G01X37654Y28649D01*
G01X37654Y28175D01*
G01X37082Y28175D01*
G37*
G36*
G01X35921Y28175D02*
G01X35921Y28649D01*
G01X36493Y28649D01*
G01X36493Y28175D01*
G01X35921Y28175D01*
G37*
G36*
G01X44581Y28175D02*
G01X44581Y28649D01*
G01X45153Y28649D01*
G01X45153Y28175D01*
G01X44581Y28175D01*
G37*
G36*
G01X43420Y28175D02*
G01X43420Y28649D01*
G01X43992Y28649D01*
G01X43992Y28175D01*
G01X43420Y28175D01*
G37*
G36*
G01X52080Y28175D02*
G01X52080Y28649D01*
G01X52652Y28649D01*
G01X52652Y28175D01*
G01X52080Y28175D01*
G37*
G36*
G01X50919Y28175D02*
G01X50919Y28649D01*
G01X51491Y28649D01*
G01X51491Y28175D01*
G01X50919Y28175D01*
G37*
G36*
G01X59533Y28175D02*
G01X59533Y28649D01*
G01X60105Y28649D01*
G01X60105Y28175D01*
G01X59533Y28175D01*
G37*
G36*
G01X58371Y28175D02*
G01X58371Y28649D01*
G01X58943Y28649D01*
G01X58943Y28175D01*
G01X58371Y28175D01*
G37*
G36*
G01X67037Y28175D02*
G01X67037Y28649D01*
G01X67609Y28649D01*
G01X67609Y28175D01*
G01X67037Y28175D01*
G37*
G36*
G01X65875Y28175D02*
G01X65875Y28649D01*
G01X66447Y28649D01*
G01X66447Y28175D01*
G01X65875Y28175D01*
G37*
G36*
G01X74541Y28175D02*
G01X74541Y28649D01*
G01X75113Y28649D01*
G01X75113Y28175D01*
G01X74541Y28175D01*
G37*
G36*
G01X73379Y28175D02*
G01X73379Y28649D01*
G01X73951Y28649D01*
G01X73951Y28175D01*
G01X73379Y28175D01*
G37*
G36*
G01X82037Y28175D02*
G01X82037Y28649D01*
G01X82609Y28649D01*
G01X82609Y28175D01*
G01X82037Y28175D01*
G37*
G36*
G01X80875Y28175D02*
G01X80875Y28649D01*
G01X81447Y28649D01*
G01X81447Y28175D01*
G01X80875Y28175D01*
G37*
G36*
G01X89505Y28175D02*
G01X89505Y28649D01*
G01X90077Y28649D01*
G01X90077Y28175D01*
G01X89505Y28175D01*
G37*
G36*
G01X88344Y28175D02*
G01X88344Y28649D01*
G01X88916Y28649D01*
G01X88916Y28175D01*
G01X88344Y28175D01*
G37*
G36*
G01X97076Y28175D02*
G01X97076Y28649D01*
G01X97648Y28649D01*
G01X97648Y28175D01*
G01X97076Y28175D01*
G37*
G36*
G01X95915Y28175D02*
G01X95915Y28649D01*
G01X96487Y28649D01*
G01X96487Y28175D01*
G01X95915Y28175D01*
G37*
G36*
G01X106450Y28175D02*
G01X106450Y28649D01*
G01X107022Y28649D01*
G01X107022Y28175D01*
G01X106450Y28175D01*
G37*
G36*
G01X105289Y28175D02*
G01X105289Y28649D01*
G01X105861Y28649D01*
G01X105861Y28175D01*
G01X105289Y28175D01*
G37*
G36*
G01X6145Y20678D02*
G01X6145Y21152D01*
G01X6717Y21152D01*
G01X6717Y20678D01*
G01X6145Y20678D01*
G37*
G36*
G01X4984Y20678D02*
G01X4984Y21152D01*
G01X5556Y21152D01*
G01X5556Y20678D01*
G01X4984Y20678D01*
G37*
G36*
G01X16460Y20678D02*
G01X16460Y21152D01*
G01X17032Y21152D01*
G01X17032Y20678D01*
G01X16460Y20678D01*
G37*
G36*
G01X15299Y20678D02*
G01X15299Y21152D01*
G01X15871Y21152D01*
G01X15871Y20678D01*
G01X15299Y20678D01*
G37*
G36*
G01X23960Y20678D02*
G01X23960Y21152D01*
G01X24532Y21152D01*
G01X24532Y20678D01*
G01X23960Y20678D01*
G37*
G36*
G01X22799Y20678D02*
G01X22799Y21152D01*
G01X23371Y21152D01*
G01X23371Y20678D01*
G01X22799Y20678D01*
G37*
G36*
G01X31460Y20678D02*
G01X31460Y21152D01*
G01X32032Y21152D01*
G01X32032Y20678D01*
G01X31460Y20678D01*
G37*
G36*
G01X30298Y20678D02*
G01X30298Y21152D01*
G01X30870Y21152D01*
G01X30870Y20678D01*
G01X30298Y20678D01*
G37*
G36*
G01X38959Y20678D02*
G01X38959Y21152D01*
G01X39531Y21152D01*
G01X39531Y20678D01*
G01X38959Y20678D01*
G37*
G36*
G01X37798Y20678D02*
G01X37798Y21152D01*
G01X38370Y21152D01*
G01X38370Y20678D01*
G01X37798Y20678D01*
G37*
G36*
G01X46459Y20678D02*
G01X46459Y21152D01*
G01X47031Y21152D01*
G01X47031Y20678D01*
G01X46459Y20678D01*
G37*
G36*
G01X45297Y20678D02*
G01X45297Y21152D01*
G01X45869Y21152D01*
G01X45869Y20678D01*
G01X45297Y20678D01*
G37*
G36*
G01X53958Y20678D02*
G01X53958Y21152D01*
G01X54530Y21152D01*
G01X54530Y20678D01*
G01X53958Y20678D01*
G37*
G36*
G01X52797Y20678D02*
G01X52797Y21152D01*
G01X53369Y21152D01*
G01X53369Y20678D01*
G01X52797Y20678D01*
G37*
G36*
G01X61458Y20678D02*
G01X61458Y21152D01*
G01X62030Y21152D01*
G01X62030Y20678D01*
G01X61458Y20678D01*
G37*
G36*
G01X60296Y20678D02*
G01X60296Y21152D01*
G01X60869Y21152D01*
G01X60869Y20678D01*
G01X60296Y20678D01*
G37*
G36*
G01X68957Y20678D02*
G01X68957Y21152D01*
G01X69530Y21152D01*
G01X69530Y20678D01*
G01X68957Y20678D01*
G37*
G36*
G01X67796Y20678D02*
G01X67796Y21152D01*
G01X68368Y21152D01*
G01X68368Y20678D01*
G01X67796Y20678D01*
G37*
G36*
G01X76457Y20678D02*
G01X76457Y21152D01*
G01X77029Y21152D01*
G01X77029Y20678D01*
G01X76457Y20678D01*
G37*
G36*
G01X75296Y20678D02*
G01X75296Y21152D01*
G01X75868Y21152D01*
G01X75868Y20678D01*
G01X75296Y20678D01*
G37*
G36*
G01X83957Y20678D02*
G01X83957Y21152D01*
G01X84529Y21152D01*
G01X84529Y20678D01*
G01X83957Y20678D01*
G37*
G36*
G01X82795Y20678D02*
G01X82795Y21152D01*
G01X83367Y21152D01*
G01X83367Y20678D01*
G01X82795Y20678D01*
G37*
G36*
G01X91456Y20678D02*
G01X91456Y21152D01*
G01X92028Y21152D01*
G01X92028Y20678D01*
G01X91456Y20678D01*
G37*
G36*
G01X90295Y20678D02*
G01X90295Y21152D01*
G01X90867Y21152D01*
G01X90867Y20678D01*
G01X90295Y20678D01*
G37*
G36*
G01X103645Y20678D02*
G01X103645Y21152D01*
G01X104217Y21152D01*
G01X104217Y20678D01*
G01X103645Y20678D01*
G37*
G36*
G01X102484Y20678D02*
G01X102484Y21152D01*
G01X103056Y21152D01*
G01X103056Y20678D01*
G01X102484Y20678D01*
G37*
G36*
G01X8061Y13197D02*
G01X8061Y13671D01*
G01X8633Y13671D01*
G01X8633Y13197D01*
G01X8061Y13197D01*
G37*
G36*
G01X6900Y13197D02*
G01X6900Y13671D01*
G01X7472Y13671D01*
G01X7472Y13197D01*
G01X6900Y13197D01*
G37*
G36*
G01X20254Y13197D02*
G01X20254Y13671D01*
G01X20826Y13671D01*
G01X20826Y13197D01*
G01X20254Y13197D01*
G37*
G36*
G01X19093Y13197D02*
G01X19093Y13671D01*
G01X19665Y13671D01*
G01X19665Y13197D01*
G01X19093Y13197D01*
G37*
G36*
G01X27754Y13197D02*
G01X27754Y13671D01*
G01X28326Y13671D01*
G01X28326Y13197D01*
G01X27754Y13197D01*
G37*
G36*
G01X26592Y13197D02*
G01X26592Y13671D01*
G01X27164Y13671D01*
G01X27164Y13197D01*
G01X26592Y13197D01*
G37*
G36*
G01X35253Y13197D02*
G01X35253Y13671D01*
G01X35825Y13671D01*
G01X35825Y13197D01*
G01X35253Y13197D01*
G37*
G36*
G01X34092Y13197D02*
G01X34092Y13671D01*
G01X34664Y13671D01*
G01X34664Y13197D01*
G01X34092Y13197D01*
G37*
G36*
G01X42753Y13197D02*
G01X42753Y13671D01*
G01X43325Y13671D01*
G01X43325Y13197D01*
G01X42753Y13197D01*
G37*
G36*
G01X41591Y13197D02*
G01X41591Y13671D01*
G01X42163Y13671D01*
G01X42163Y13197D01*
G01X41591Y13197D01*
G37*
G36*
G01X50252Y13197D02*
G01X50252Y13671D01*
G01X50824Y13671D01*
G01X50824Y13197D01*
G01X50252Y13197D01*
G37*
G36*
G01X49091Y13197D02*
G01X49091Y13671D01*
G01X49663Y13671D01*
G01X49663Y13197D01*
G01X49091Y13197D01*
G37*
G36*
G01X57752Y13197D02*
G01X57752Y13671D01*
G01X58324Y13671D01*
G01X58324Y13197D01*
G01X57752Y13197D01*
G37*
G36*
G01X56590Y13197D02*
G01X56590Y13671D01*
G01X57162Y13671D01*
G01X57162Y13197D01*
G01X56590Y13197D01*
G37*
G36*
G01X65251Y13197D02*
G01X65251Y13671D01*
G01X65823Y13671D01*
G01X65823Y13197D01*
G01X65251Y13197D01*
G37*
G36*
G01X64090Y13197D02*
G01X64090Y13671D01*
G01X64662Y13671D01*
G01X64662Y13197D01*
G01X64090Y13197D01*
G37*
G36*
G01X72751Y13197D02*
G01X72751Y13671D01*
G01X73323Y13671D01*
G01X73323Y13197D01*
G01X72751Y13197D01*
G37*
G36*
G01X71589Y13197D02*
G01X71589Y13671D01*
G01X72161Y13671D01*
G01X72161Y13197D01*
G01X71589Y13197D01*
G37*
G36*
G01X80250Y13197D02*
G01X80250Y13671D01*
G01X80822Y13671D01*
G01X80822Y13197D01*
G01X80250Y13197D01*
G37*
G36*
G01X79089Y13197D02*
G01X79089Y13671D01*
G01X79661Y13671D01*
G01X79661Y13197D01*
G01X79089Y13197D01*
G37*
G36*
G01X87750Y13197D02*
G01X87750Y13671D01*
G01X88322Y13671D01*
G01X88322Y13197D01*
G01X87750Y13197D01*
G37*
G36*
G01X86589Y13197D02*
G01X86589Y13671D01*
G01X87161Y13671D01*
G01X87161Y13197D01*
G01X86589Y13197D01*
G37*
G36*
G01X101805Y13197D02*
G01X101805Y13671D01*
G01X102377Y13671D01*
G01X102377Y13197D01*
G01X101805Y13197D01*
G37*
G36*
G01X100644Y13197D02*
G01X100644Y13671D01*
G01X101216Y13671D01*
G01X101216Y13197D01*
G01X100644Y13197D01*
G37*
G36*
G01X4304Y5669D02*
G01X4304Y6142D01*
G01X4876Y6142D01*
G01X4876Y5669D01*
G01X4304Y5669D01*
G37*
G36*
G01X3143Y5669D02*
G01X3143Y6142D01*
G01X3715Y6142D01*
G01X3715Y5669D01*
G01X3143Y5669D01*
G37*
G36*
G01X13674Y5669D02*
G01X13674Y6142D01*
G01X14246Y6142D01*
G01X14246Y5669D01*
G01X13674Y5669D01*
G37*
G36*
G01X12512Y5669D02*
G01X12512Y6142D01*
G01X13084Y6142D01*
G01X13084Y5669D01*
G01X12512Y5669D01*
G37*
G36*
G01X23043Y5669D02*
G01X23043Y6142D01*
G01X23615Y6142D01*
G01X23615Y5669D01*
G01X23043Y5669D01*
G37*
G36*
G01X21882Y5669D02*
G01X21882Y6142D01*
G01X22454Y6142D01*
G01X22454Y5669D01*
G01X21882Y5669D01*
G37*
G36*
G01X51177Y5669D02*
G01X51177Y6142D01*
G01X51749Y6142D01*
G01X51749Y5669D01*
G01X51177Y5669D01*
G37*
G36*
G01X50016Y5669D02*
G01X50016Y6142D01*
G01X50588Y6142D01*
G01X50588Y5669D01*
G01X50016Y5669D01*
G37*
G36*
G01X79292Y5669D02*
G01X79292Y6142D01*
G01X79864Y6142D01*
G01X79864Y5669D01*
G01X79292Y5669D01*
G37*
G36*
G01X78131Y5669D02*
G01X78131Y6142D01*
G01X78703Y6142D01*
G01X78703Y5669D01*
G01X78131Y5669D01*
G37*
G36*
G01X88668Y5669D02*
G01X88668Y6142D01*
G01X89241Y6142D01*
G01X89241Y5669D01*
G01X88668Y5669D01*
G37*
G36*
G01X87507Y5669D02*
G01X87507Y6142D01*
G01X88079Y6142D01*
G01X88079Y5669D01*
G01X87507Y5669D01*
G37*
G36*
G01X98045Y5669D02*
G01X98045Y6142D01*
G01X98617Y6142D01*
G01X98617Y5669D01*
G01X98045Y5669D01*
G37*
G36*
G01X96883Y5669D02*
G01X96883Y6142D01*
G01X97456Y6142D01*
G01X97456Y5669D01*
G01X96883Y5669D01*
G37*
G36*
G01X107421Y5669D02*
G01X107421Y6142D01*
G01X107993Y6142D01*
G01X107993Y5669D01*
G01X107421Y5669D01*
G37*
G36*
G01X106260Y5669D02*
G01X106260Y6142D01*
G01X106832Y6142D01*
G01X106832Y5669D01*
G01X106260Y5669D01*
G37*
G36*
G01X27668Y1315D02*
G01X27668Y2025D01*
G01X28378Y2025D01*
G01X28378Y1315D01*
G01X27668Y1315D01*
G37*
G54D44*
G01X28022Y671D03*
G36*
G01X29943Y1437D02*
G01X29943Y1975D01*
G01X30601Y1975D01*
G01X30601Y1437D01*
G01X29943Y1437D01*
G37*
G36*
G01X29943Y737D02*
G01X29943Y1274D01*
G01X30601Y1274D01*
G01X30601Y737D01*
G01X29943Y737D01*
G37*
G36*
G01X2005Y20617D02*
G01X2005Y21276D01*
G01X2542Y21276D01*
G01X2542Y20617D01*
G01X2005Y20617D01*
G37*
G36*
G01X1304Y20617D02*
G01X1304Y21276D01*
G01X1841Y21276D01*
G01X1841Y20617D01*
G01X1304Y20617D01*
G37*
G36*
G01X14586Y11449D02*
G01X14586Y12108D01*
G01X15122Y12108D01*
G01X15122Y11449D01*
G01X14586Y11449D01*
G37*
G36*
G01X15286Y11449D02*
G01X15286Y12108D01*
G01X15823Y12108D01*
G01X15823Y11449D01*
G01X15286Y11449D01*
G37*
G36*
G01X15286Y12399D02*
G01X15286Y13058D01*
G01X15823Y13058D01*
G01X15823Y12399D01*
G01X15286Y12399D01*
G37*
G36*
G01X14586Y12399D02*
G01X14586Y13058D01*
G01X15122Y13058D01*
G01X15122Y12399D01*
G01X14586Y12399D01*
G37*
G36*
G01X11200Y16228D02*
G01X11200Y17174D01*
G01X11752Y17174D01*
G01X11752Y16228D01*
G01X11200Y16228D01*
G37*
G36*
G01X11200Y19377D02*
G01X11200Y20323D01*
G01X11752Y20323D01*
G01X11752Y19377D01*
G01X11200Y19377D01*
G37*
G36*
G01X27749Y4615D02*
G01X27736Y4619D01*
G01X27723Y4623D01*
G01X27710Y4629D01*
G01X27699Y4636D01*
G01X27688Y4645D01*
G01X27679Y4655D01*
G01X27671Y4665D01*
G01X27664Y4677D01*
G01X27659Y4690D01*
G01X27656Y4704D01*
G01X27654Y4718D01*
G01X27654Y4731D01*
G01X27656Y4745D01*
G01X27659Y4758D01*
G01X27664Y4771D01*
G01X27671Y4783D01*
G01X27679Y4794D01*
G01X27688Y4804D01*
G01X27699Y4813D01*
G01X27710Y4820D01*
G01X27723Y4825D01*
G01X27736Y4830D01*
G01X27749Y4833D01*
G01X28229Y4833D01*
G01X28243Y4830D01*
G01X28256Y4825D01*
G01X28268Y4820D01*
G01X28280Y4813D01*
G01X28290Y4804D01*
G01X28300Y4794D01*
G01X28308Y4783D01*
G01X28314Y4771D01*
G01X28319Y4758D01*
G01X28323Y4745D01*
G01X28324Y4731D01*
G01X28324Y4718D01*
G01X28323Y4704D01*
G01X28319Y4690D01*
G01X28314Y4677D01*
G01X28308Y4665D01*
G01X28300Y4655D01*
G01X28290Y4645D01*
G01X28280Y4636D01*
G01X28268Y4629D01*
G01X28256Y4623D01*
G01X28243Y4619D01*
G01X28229Y4615D01*
G01X27749Y4615D01*
G37*
G36*
G01X27749Y4360D02*
G01X27736Y4363D01*
G01X27723Y4367D01*
G01X27710Y4373D01*
G01X27699Y4380D01*
G01X27688Y4388D01*
G01X27679Y4399D01*
G01X27671Y4410D01*
G01X27664Y4422D01*
G01X27659Y4435D01*
G01X27656Y4448D01*
G01X27654Y4462D01*
G01X27654Y4475D01*
G01X27656Y4488D01*
G01X27659Y4501D01*
G01X27664Y4514D01*
G01X27671Y4526D01*
G01X27679Y4538D01*
G01X27688Y4548D01*
G01X27699Y4557D01*
G01X27710Y4563D01*
G01X27723Y4570D01*
G01X27736Y4574D01*
G01X27749Y4576D01*
G01X28229Y4576D01*
G01X28243Y4574D01*
G01X28256Y4570D01*
G01X28268Y4563D01*
G01X28280Y4557D01*
G01X28290Y4548D01*
G01X28300Y4538D01*
G01X28308Y4526D01*
G01X28314Y4514D01*
G01X28319Y4501D01*
G01X28323Y4488D01*
G01X28324Y4475D01*
G01X28324Y4462D01*
G01X28323Y4448D01*
G01X28319Y4435D01*
G01X28314Y4422D01*
G01X28308Y4410D01*
G01X28300Y4399D01*
G01X28290Y4388D01*
G01X28280Y4380D01*
G01X28268Y4373D01*
G01X28256Y4367D01*
G01X28243Y4363D01*
G01X28229Y4360D01*
G01X27749Y4360D01*
G37*
G36*
G01X27762Y4104D02*
G01X27749Y4105D01*
G01X27736Y4107D01*
G01X27723Y4111D01*
G01X27710Y4117D01*
G01X27699Y4124D01*
G01X27688Y4133D01*
G01X27679Y4143D01*
G01X27671Y4154D01*
G01X27664Y4165D01*
G01X27659Y4179D01*
G01X27656Y4192D01*
G01X27654Y4206D01*
G01X27654Y4220D01*
G01X27656Y4233D01*
G01X27659Y4247D01*
G01X27664Y4259D01*
G01X27671Y4271D01*
G01X27679Y4282D01*
G01X27688Y4292D01*
G01X27699Y4300D01*
G01X27710Y4308D01*
G01X27723Y4313D01*
G01X27736Y4318D01*
G01X27749Y4321D01*
G01X27762Y4322D01*
G01X28217Y4322D01*
G01X28229Y4321D01*
G01X28243Y4318D01*
G01X28256Y4313D01*
G01X28268Y4308D01*
G01X28280Y4300D01*
G01X28290Y4292D01*
G01X28300Y4282D01*
G01X28308Y4271D01*
G01X28314Y4259D01*
G01X28319Y4246D01*
G01X28323Y4233D01*
G01X28324Y4220D01*
G01X28324Y4206D01*
G01X28323Y4192D01*
G01X28319Y4179D01*
G01X28314Y4165D01*
G01X28308Y4154D01*
G01X28300Y4143D01*
G01X28290Y4133D01*
G01X28280Y4124D01*
G01X28268Y4117D01*
G01X28256Y4111D01*
G01X28243Y4107D01*
G01X28229Y4105D01*
G01X28217Y4104D01*
G01X27762Y4104D01*
G37*
G36*
G01X27762Y3848D02*
G01X27749Y3849D01*
G01X27736Y3850D01*
G01X27723Y3855D01*
G01X27710Y3861D01*
G01X27699Y3868D01*
G01X27688Y3876D01*
G01X27679Y3887D01*
G01X27671Y3898D01*
G01X27664Y3910D01*
G01X27659Y3923D01*
G01X27656Y3936D01*
G01X27654Y3950D01*
G01X27654Y3963D01*
G01X27656Y3976D01*
G01X27659Y3990D01*
G01X27664Y4002D01*
G01X27671Y4014D01*
G01X27679Y4025D01*
G01X27688Y4036D01*
G01X27699Y4045D01*
G01X27710Y4051D01*
G01X27723Y4058D01*
G01X27736Y4062D01*
G01X27749Y4064D01*
G01X27762Y4065D01*
G01X28217Y4065D01*
G01X28229Y4064D01*
G01X28243Y4062D01*
G01X28256Y4058D01*
G01X28268Y4051D01*
G01X28280Y4045D01*
G01X28290Y4036D01*
G01X28300Y4025D01*
G01X28308Y4014D01*
G01X28314Y4002D01*
G01X28319Y3989D01*
G01X28323Y3976D01*
G01X28324Y3963D01*
G01X28324Y3950D01*
G01X28323Y3936D01*
G01X28319Y3923D01*
G01X28314Y3910D01*
G01X28308Y3898D01*
G01X28300Y3887D01*
G01X28290Y3876D01*
G01X28280Y3868D01*
G01X28268Y3861D01*
G01X28256Y3855D01*
G01X28243Y3850D01*
G01X28229Y3849D01*
G01X28217Y3848D01*
G01X27762Y3848D01*
G37*
G36*
G01X27762Y3592D02*
G01X27749Y3593D01*
G01X27736Y3595D01*
G01X27710Y3605D01*
G01X27688Y3621D01*
G01X27679Y3631D01*
G01X27671Y3643D01*
G01X27664Y3655D01*
G01X27659Y3667D01*
G01X27656Y3680D01*
G01X27654Y3694D01*
G01X27654Y3708D01*
G01X27656Y3721D01*
G01X27659Y3735D01*
G01X27664Y3747D01*
G01X27671Y3759D01*
G01X27679Y3770D01*
G01X27688Y3780D01*
G01X27699Y3788D01*
G01X27710Y3796D01*
G01X27723Y3801D01*
G01X27736Y3806D01*
G01X27749Y3809D01*
G01X27762Y3810D01*
G01X28217Y3810D01*
G01X28229Y3809D01*
G01X28243Y3806D01*
G01X28256Y3801D01*
G01X28268Y3796D01*
G01X28280Y3788D01*
G01X28290Y3780D01*
G01X28300Y3770D01*
G01X28308Y3759D01*
G01X28314Y3747D01*
G01X28319Y3735D01*
G01X28323Y3721D01*
G01X28324Y3708D01*
G01X28324Y3694D01*
G01X28323Y3681D01*
G01X28319Y3667D01*
G01X28314Y3654D01*
G01X28308Y3642D01*
G01X28300Y3631D01*
G01X28290Y3621D01*
G01X28280Y3612D01*
G01X28268Y3605D01*
G01X28256Y3600D01*
G01X28243Y3595D01*
G01X28229Y3593D01*
G01X28217Y3592D01*
G01X27762Y3592D01*
G37*
G36*
G01X27762Y3336D02*
G01X27749Y3337D01*
G01X27736Y3338D01*
G01X27710Y3349D01*
G01X27688Y3364D01*
G01X27679Y3375D01*
G01X27671Y3387D01*
G01X27664Y3399D01*
G01X27659Y3411D01*
G01X27656Y3424D01*
G01X27654Y3437D01*
G01X27654Y3451D01*
G01X27656Y3465D01*
G01X27659Y3479D01*
G01X27664Y3490D01*
G01X27671Y3502D01*
G01X27679Y3513D01*
G01X27688Y3524D01*
G01X27699Y3533D01*
G01X27710Y3539D01*
G01X27723Y3546D01*
G01X27736Y3550D01*
G01X27749Y3552D01*
G01X27762Y3554D01*
G01X28217Y3554D01*
G01X28229Y3552D01*
G01X28243Y3550D01*
G01X28256Y3546D01*
G01X28268Y3539D01*
G01X28280Y3533D01*
G01X28290Y3524D01*
G01X28300Y3513D01*
G01X28308Y3502D01*
G01X28314Y3490D01*
G01X28319Y3479D01*
G01X28323Y3464D01*
G01X28324Y3451D01*
G01X28324Y3437D01*
G01X28323Y3425D01*
G01X28319Y3411D01*
G01X28314Y3399D01*
G01X28308Y3386D01*
G01X28300Y3375D01*
G01X28280Y3357D01*
G01X28268Y3349D01*
G01X28256Y3344D01*
G01X28243Y3338D01*
G01X28229Y3337D01*
G01X28217Y3336D01*
G01X27762Y3336D01*
G37*
G36*
G01X27762Y3080D02*
G01X27749Y3081D01*
G01X27736Y3083D01*
G01X27723Y3087D01*
G01X27710Y3094D01*
G01X27699Y3100D01*
G01X27688Y3110D01*
G01X27679Y3120D01*
G01X27671Y3131D01*
G01X27664Y3143D01*
G01X27659Y3155D01*
G01X27656Y3168D01*
G01X27654Y3182D01*
G01X27654Y3196D01*
G01X27656Y3210D01*
G01X27659Y3223D01*
G01X27664Y3235D01*
G01X27671Y3247D01*
G01X27679Y3259D01*
G01X27688Y3269D01*
G01X27710Y3285D01*
G01X27736Y3295D01*
G01X27749Y3297D01*
G01X27762Y3298D01*
G01X28217Y3298D01*
G01X28229Y3297D01*
G01X28243Y3295D01*
G01X28256Y3289D01*
G01X28268Y3285D01*
G01X28280Y3276D01*
G01X28300Y3259D01*
G01X28308Y3248D01*
G01X28314Y3235D01*
G01X28319Y3223D01*
G01X28323Y3209D01*
G01X28324Y3196D01*
G01X28324Y3182D01*
G01X28323Y3169D01*
G01X28319Y3155D01*
G01X28314Y3143D01*
G01X28308Y3131D01*
G01X28300Y3120D01*
G01X28290Y3110D01*
G01X28280Y3100D01*
G01X28268Y3094D01*
G01X28256Y3087D01*
G01X28243Y3083D01*
G01X28229Y3081D01*
G01X28217Y3080D01*
G01X27762Y3080D01*
G37*
G36*
G01X27762Y2824D02*
G01X27749Y2825D01*
G01X27736Y2827D01*
G01X27723Y2832D01*
G01X27710Y2837D01*
G01X27699Y2845D01*
G01X27688Y2854D01*
G01X27679Y2863D01*
G01X27671Y2875D01*
G01X27664Y2887D01*
G01X27659Y2899D01*
G01X27656Y2912D01*
G01X27654Y2925D01*
G01X27654Y2939D01*
G01X27656Y2954D01*
G01X27659Y2967D01*
G01X27664Y2979D01*
G01X27671Y2990D01*
G01X27679Y3002D01*
G01X27688Y3012D01*
G01X27710Y3029D01*
G01X27736Y3038D01*
G01X27749Y3040D01*
G01X27762Y3042D01*
G01X28217Y3042D01*
G01X28229Y3040D01*
G01X28243Y3038D01*
G01X28256Y3034D01*
G01X28268Y3029D01*
G01X28280Y3021D01*
G01X28290Y3012D01*
G01X28300Y3002D01*
G01X28308Y2992D01*
G01X28314Y2980D01*
G01X28319Y2967D01*
G01X28323Y2954D01*
G01X28324Y2939D01*
G01X28324Y2925D01*
G01X28323Y2912D01*
G01X28319Y2900D01*
G01X28314Y2887D01*
G01X28308Y2875D01*
G01X28300Y2863D01*
G01X28290Y2854D01*
G01X28280Y2845D01*
G01X28268Y2837D01*
G01X28256Y2832D01*
G01X28243Y2827D01*
G01X28229Y2825D01*
G01X28217Y2824D01*
G01X27762Y2824D01*
G37*
G36*
G01X27762Y2568D02*
G01X27749Y2569D01*
G01X27736Y2572D01*
G01X27723Y2575D01*
G01X27710Y2582D01*
G01X27699Y2588D01*
G01X27688Y2598D01*
G01X27679Y2608D01*
G01X27671Y2619D01*
G01X27664Y2631D01*
G01X27659Y2643D01*
G01X27656Y2657D01*
G01X27654Y2670D01*
G01X27654Y2684D01*
G01X27656Y2698D01*
G01X27659Y2711D01*
G01X27664Y2724D01*
G01X27671Y2736D01*
G01X27679Y2747D01*
G01X27688Y2757D01*
G01X27699Y2765D01*
G01X27710Y2773D01*
G01X27723Y2779D01*
G01X27736Y2783D01*
G01X27749Y2785D01*
G01X27762Y2786D01*
G01X28217Y2786D01*
G01X28229Y2785D01*
G01X28243Y2783D01*
G01X28256Y2779D01*
G01X28268Y2773D01*
G01X28280Y2765D01*
G01X28290Y2757D01*
G01X28300Y2747D01*
G01X28308Y2736D01*
G01X28314Y2724D01*
G01X28319Y2711D01*
G01X28323Y2698D01*
G01X28324Y2684D01*
G01X28324Y2670D01*
G01X28323Y2657D01*
G01X28319Y2644D01*
G01X28314Y2631D01*
G01X28308Y2619D01*
G01X28300Y2608D01*
G01X28290Y2598D01*
G01X28280Y2588D01*
G01X28268Y2582D01*
G01X28256Y2575D01*
G01X28243Y2572D01*
G01X28229Y2569D01*
G01X28217Y2568D01*
G01X27762Y2568D01*
G37*
G36*
G01X27762Y2312D02*
G01X27749Y2312D01*
G01X27736Y2315D01*
G01X27723Y2320D01*
G01X27710Y2325D01*
G01X27699Y2333D01*
G01X27688Y2342D01*
G01X27679Y2351D01*
G01X27671Y2362D01*
G01X27664Y2375D01*
G01X27659Y2387D01*
G01X27656Y2400D01*
G01X27654Y2413D01*
G01X27654Y2427D01*
G01X27656Y2442D01*
G01X27659Y2455D01*
G01X27664Y2468D01*
G01X27671Y2480D01*
G01X27679Y2490D01*
G01X27688Y2500D01*
G01X27699Y2510D01*
G01X27710Y2517D01*
G01X27723Y2523D01*
G01X27736Y2526D01*
G01X27749Y2529D01*
G01X27762Y2530D01*
G01X28217Y2530D01*
G01X28229Y2529D01*
G01X28243Y2526D01*
G01X28256Y2523D01*
G01X28268Y2517D01*
G01X28280Y2510D01*
G01X28290Y2500D01*
G01X28300Y2490D01*
G01X28308Y2480D01*
G01X28314Y2468D01*
G01X28319Y2455D01*
G01X28323Y2442D01*
G01X28324Y2427D01*
G01X28324Y2413D01*
G01X28323Y2400D01*
G01X28319Y2387D01*
G01X28314Y2375D01*
G01X28308Y2362D01*
G01X28300Y2351D01*
G01X28290Y2342D01*
G01X28280Y2333D01*
G01X28268Y2325D01*
G01X28256Y2320D01*
G01X28243Y2315D01*
G01X28229Y2312D01*
G01X28217Y2312D01*
G01X27762Y2312D01*
G37*
G36*
G01X30006Y2312D02*
G01X29993Y2312D01*
G01X29980Y2315D01*
G01X29967Y2320D01*
G01X29954Y2325D01*
G01X29943Y2333D01*
G01X29932Y2342D01*
G01X29923Y2351D01*
G01X29915Y2362D01*
G01X29908Y2375D01*
G01X29903Y2387D01*
G01X29900Y2400D01*
G01X29898Y2413D01*
G01X29898Y2427D01*
G01X29900Y2442D01*
G01X29903Y2455D01*
G01X29908Y2468D01*
G01X29915Y2480D01*
G01X29923Y2490D01*
G01X29932Y2500D01*
G01X29943Y2510D01*
G01X29954Y2517D01*
G01X29967Y2523D01*
G01X29980Y2526D01*
G01X29994Y2529D01*
G01X30006Y2530D01*
G01X30461Y2530D01*
G01X30473Y2529D01*
G01X30487Y2526D01*
G01X30500Y2523D01*
G01X30512Y2517D01*
G01X30524Y2510D01*
G01X30534Y2500D01*
G01X30544Y2490D01*
G01X30552Y2480D01*
G01X30558Y2468D01*
G01X30563Y2455D01*
G01X30567Y2442D01*
G01X30569Y2427D01*
G01X30569Y2413D01*
G01X30567Y2400D01*
G01X30563Y2387D01*
G01X30558Y2375D01*
G01X30552Y2362D01*
G01X30544Y2351D01*
G01X30534Y2342D01*
G01X30524Y2333D01*
G01X30512Y2325D01*
G01X30500Y2320D01*
G01X30487Y2315D01*
G01X30473Y2312D01*
G01X30461Y2312D01*
G01X30006Y2312D01*
G37*
G36*
G01X30006Y2568D02*
G01X29993Y2569D01*
G01X29980Y2572D01*
G01X29967Y2575D01*
G01X29954Y2582D01*
G01X29943Y2588D01*
G01X29932Y2598D01*
G01X29923Y2608D01*
G01X29915Y2619D01*
G01X29908Y2631D01*
G01X29903Y2643D01*
G01X29900Y2657D01*
G01X29898Y2670D01*
G01X29898Y2684D01*
G01X29900Y2698D01*
G01X29903Y2711D01*
G01X29908Y2724D01*
G01X29915Y2736D01*
G01X29923Y2747D01*
G01X29932Y2757D01*
G01X29943Y2765D01*
G01X29954Y2773D01*
G01X29967Y2779D01*
G01X29980Y2783D01*
G01X29994Y2785D01*
G01X30006Y2786D01*
G01X30461Y2786D01*
G01X30473Y2785D01*
G01X30487Y2783D01*
G01X30500Y2779D01*
G01X30512Y2773D01*
G01X30524Y2765D01*
G01X30534Y2757D01*
G01X30544Y2747D01*
G01X30552Y2736D01*
G01X30558Y2724D01*
G01X30563Y2711D01*
G01X30567Y2698D01*
G01X30569Y2684D01*
G01X30569Y2670D01*
G01X30567Y2657D01*
G01X30563Y2644D01*
G01X30558Y2631D01*
G01X30552Y2619D01*
G01X30544Y2608D01*
G01X30534Y2598D01*
G01X30524Y2588D01*
G01X30512Y2582D01*
G01X30500Y2575D01*
G01X30487Y2572D01*
G01X30473Y2569D01*
G01X30461Y2568D01*
G01X30006Y2568D01*
G37*
G36*
G01X30006Y2824D02*
G01X29994Y2825D01*
G01X29980Y2827D01*
G01X29967Y2832D01*
G01X29954Y2837D01*
G01X29943Y2845D01*
G01X29932Y2854D01*
G01X29923Y2863D01*
G01X29915Y2875D01*
G01X29908Y2887D01*
G01X29903Y2899D01*
G01X29900Y2912D01*
G01X29898Y2925D01*
G01X29898Y2939D01*
G01X29900Y2954D01*
G01X29903Y2967D01*
G01X29908Y2979D01*
G01X29915Y2990D01*
G01X29923Y3002D01*
G01X29932Y3012D01*
G01X29954Y3029D01*
G01X29980Y3038D01*
G01X29994Y3040D01*
G01X30006Y3042D01*
G01X30461Y3042D01*
G01X30473Y3040D01*
G01X30487Y3038D01*
G01X30500Y3034D01*
G01X30512Y3029D01*
G01X30524Y3021D01*
G01X30534Y3012D01*
G01X30544Y3002D01*
G01X30552Y2992D01*
G01X30558Y2980D01*
G01X30563Y2967D01*
G01X30567Y2954D01*
G01X30569Y2939D01*
G01X30569Y2925D01*
G01X30567Y2912D01*
G01X30563Y2900D01*
G01X30558Y2887D01*
G01X30552Y2875D01*
G01X30544Y2863D01*
G01X30534Y2854D01*
G01X30524Y2845D01*
G01X30512Y2837D01*
G01X30500Y2832D01*
G01X30487Y2827D01*
G01X30473Y2825D01*
G01X30461Y2824D01*
G01X30006Y2824D01*
G37*
G36*
G01X30006Y3080D02*
G01X29994Y3081D01*
G01X29980Y3083D01*
G01X29967Y3087D01*
G01X29954Y3094D01*
G01X29943Y3100D01*
G01X29932Y3110D01*
G01X29923Y3120D01*
G01X29915Y3131D01*
G01X29908Y3143D01*
G01X29903Y3155D01*
G01X29900Y3168D01*
G01X29898Y3182D01*
G01X29898Y3196D01*
G01X29900Y3210D01*
G01X29903Y3223D01*
G01X29908Y3235D01*
G01X29915Y3247D01*
G01X29923Y3259D01*
G01X29932Y3269D01*
G01X29954Y3285D01*
G01X29980Y3295D01*
G01X29993Y3297D01*
G01X30006Y3298D01*
G01X30461Y3298D01*
G01X30473Y3297D01*
G01X30487Y3295D01*
G01X30500Y3289D01*
G01X30512Y3285D01*
G01X30524Y3276D01*
G01X30534Y3269D01*
G01X30544Y3259D01*
G01X30552Y3248D01*
G01X30558Y3235D01*
G01X30563Y3223D01*
G01X30567Y3209D01*
G01X30569Y3196D01*
G01X30569Y3182D01*
G01X30567Y3169D01*
G01X30563Y3155D01*
G01X30558Y3143D01*
G01X30552Y3131D01*
G01X30544Y3120D01*
G01X30534Y3110D01*
G01X30524Y3100D01*
G01X30512Y3094D01*
G01X30500Y3087D01*
G01X30487Y3083D01*
G01X30473Y3081D01*
G01X30461Y3080D01*
G01X30006Y3080D01*
G37*
G36*
G01X30006Y3336D02*
G01X29994Y3337D01*
G01X29980Y3338D01*
G01X29954Y3349D01*
G01X29932Y3364D01*
G01X29923Y3375D01*
G01X29915Y3387D01*
G01X29908Y3399D01*
G01X29903Y3411D01*
G01X29900Y3424D01*
G01X29898Y3437D01*
G01X29898Y3451D01*
G01X29900Y3465D01*
G01X29903Y3479D01*
G01X29908Y3490D01*
G01X29915Y3502D01*
G01X29923Y3513D01*
G01X29932Y3524D01*
G01X29943Y3533D01*
G01X29954Y3539D01*
G01X29967Y3546D01*
G01X29980Y3550D01*
G01X29993Y3552D01*
G01X30006Y3554D01*
G01X30461Y3554D01*
G01X30473Y3552D01*
G01X30487Y3550D01*
G01X30500Y3546D01*
G01X30512Y3539D01*
G01X30524Y3533D01*
G01X30534Y3524D01*
G01X30544Y3513D01*
G01X30552Y3502D01*
G01X30558Y3490D01*
G01X30563Y3479D01*
G01X30567Y3464D01*
G01X30569Y3451D01*
G01X30569Y3437D01*
G01X30567Y3425D01*
G01X30563Y3411D01*
G01X30558Y3399D01*
G01X30552Y3386D01*
G01X30544Y3375D01*
G01X30534Y3364D01*
G01X30524Y3357D01*
G01X30512Y3349D01*
G01X30500Y3344D01*
G01X30487Y3338D01*
G01X30473Y3337D01*
G01X30461Y3336D01*
G01X30006Y3336D01*
G37*
G36*
G01X30006Y3592D02*
G01X29994Y3593D01*
G01X29980Y3595D01*
G01X29954Y3605D01*
G01X29932Y3621D01*
G01X29923Y3631D01*
G01X29915Y3643D01*
G01X29908Y3655D01*
G01X29903Y3667D01*
G01X29900Y3680D01*
G01X29898Y3694D01*
G01X29898Y3708D01*
G01X29900Y3721D01*
G01X29903Y3735D01*
G01X29908Y3747D01*
G01X29915Y3759D01*
G01X29923Y3770D01*
G01X29932Y3780D01*
G01X29943Y3788D01*
G01X29954Y3796D01*
G01X29967Y3801D01*
G01X29980Y3806D01*
G01X29993Y3809D01*
G01X30006Y3810D01*
G01X30461Y3810D01*
G01X30473Y3809D01*
G01X30487Y3806D01*
G01X30500Y3801D01*
G01X30512Y3796D01*
G01X30524Y3788D01*
G01X30534Y3780D01*
G01X30544Y3770D01*
G01X30552Y3759D01*
G01X30558Y3747D01*
G01X30563Y3735D01*
G01X30567Y3721D01*
G01X30569Y3708D01*
G01X30569Y3694D01*
G01X30567Y3681D01*
G01X30563Y3667D01*
G01X30558Y3654D01*
G01X30552Y3642D01*
G01X30544Y3631D01*
G01X30534Y3621D01*
G01X30524Y3612D01*
G01X30512Y3605D01*
G01X30500Y3600D01*
G01X30487Y3595D01*
G01X30473Y3593D01*
G01X30461Y3592D01*
G01X30006Y3592D01*
G37*
G36*
G01X30006Y3848D02*
G01X29994Y3849D01*
G01X29980Y3850D01*
G01X29967Y3855D01*
G01X29954Y3861D01*
G01X29943Y3868D01*
G01X29932Y3876D01*
G01X29923Y3887D01*
G01X29915Y3898D01*
G01X29908Y3910D01*
G01X29903Y3923D01*
G01X29900Y3936D01*
G01X29898Y3950D01*
G01X29898Y3963D01*
G01X29900Y3976D01*
G01X29903Y3990D01*
G01X29908Y4002D01*
G01X29915Y4014D01*
G01X29923Y4025D01*
G01X29932Y4036D01*
G01X29943Y4045D01*
G01X29954Y4051D01*
G01X29967Y4058D01*
G01X29980Y4062D01*
G01X29993Y4064D01*
G01X30006Y4065D01*
G01X30461Y4065D01*
G01X30473Y4064D01*
G01X30487Y4062D01*
G01X30500Y4058D01*
G01X30512Y4051D01*
G01X30524Y4045D01*
G01X30534Y4036D01*
G01X30544Y4025D01*
G01X30552Y4014D01*
G01X30558Y4002D01*
G01X30563Y3989D01*
G01X30567Y3976D01*
G01X30569Y3963D01*
G01X30569Y3950D01*
G01X30567Y3936D01*
G01X30563Y3923D01*
G01X30558Y3910D01*
G01X30552Y3898D01*
G01X30544Y3887D01*
G01X30534Y3876D01*
G01X30524Y3868D01*
G01X30512Y3861D01*
G01X30500Y3855D01*
G01X30487Y3850D01*
G01X30473Y3849D01*
G01X30461Y3848D01*
G01X30006Y3848D01*
G37*
G36*
G01X30006Y4104D02*
G01X29994Y4105D01*
G01X29980Y4107D01*
G01X29967Y4111D01*
G01X29954Y4117D01*
G01X29943Y4124D01*
G01X29932Y4133D01*
G01X29923Y4143D01*
G01X29915Y4154D01*
G01X29908Y4165D01*
G01X29903Y4179D01*
G01X29900Y4192D01*
G01X29898Y4206D01*
G01X29898Y4220D01*
G01X29900Y4233D01*
G01X29903Y4247D01*
G01X29908Y4259D01*
G01X29915Y4271D01*
G01X29923Y4282D01*
G01X29932Y4292D01*
G01X29943Y4300D01*
G01X29954Y4308D01*
G01X29967Y4313D01*
G01X29980Y4318D01*
G01X29993Y4321D01*
G01X30006Y4322D01*
G01X30461Y4322D01*
G01X30473Y4321D01*
G01X30487Y4318D01*
G01X30500Y4313D01*
G01X30512Y4308D01*
G01X30524Y4300D01*
G01X30534Y4292D01*
G01X30544Y4282D01*
G01X30552Y4271D01*
G01X30558Y4259D01*
G01X30563Y4246D01*
G01X30567Y4233D01*
G01X30569Y4220D01*
G01X30569Y4206D01*
G01X30567Y4192D01*
G01X30563Y4179D01*
G01X30558Y4165D01*
G01X30552Y4154D01*
G01X30544Y4143D01*
G01X30534Y4133D01*
G01X30524Y4124D01*
G01X30512Y4117D01*
G01X30500Y4111D01*
G01X30487Y4107D01*
G01X30473Y4105D01*
G01X30461Y4104D01*
G01X30006Y4104D01*
G37*
G36*
G01X29994Y4360D02*
G01X29980Y4363D01*
G01X29967Y4367D01*
G01X29954Y4373D01*
G01X29943Y4380D01*
G01X29932Y4388D01*
G01X29923Y4399D01*
G01X29915Y4410D01*
G01X29908Y4422D01*
G01X29903Y4435D01*
G01X29900Y4448D01*
G01X29898Y4462D01*
G01X29898Y4475D01*
G01X29900Y4488D01*
G01X29903Y4501D01*
G01X29908Y4514D01*
G01X29915Y4526D01*
G01X29923Y4538D01*
G01X29932Y4548D01*
G01X29943Y4557D01*
G01X29954Y4563D01*
G01X29967Y4570D01*
G01X29980Y4574D01*
G01X29993Y4576D01*
G01X30473Y4576D01*
G01X30487Y4574D01*
G01X30500Y4570D01*
G01X30512Y4563D01*
G01X30524Y4557D01*
G01X30534Y4548D01*
G01X30544Y4538D01*
G01X30552Y4526D01*
G01X30558Y4514D01*
G01X30563Y4501D01*
G01X30567Y4488D01*
G01X30569Y4475D01*
G01X30569Y4462D01*
G01X30567Y4448D01*
G01X30563Y4435D01*
G01X30558Y4422D01*
G01X30552Y4410D01*
G01X30544Y4399D01*
G01X30534Y4388D01*
G01X30524Y4380D01*
G01X30512Y4373D01*
G01X30500Y4367D01*
G01X30487Y4363D01*
G01X30473Y4360D01*
G01X29994Y4360D01*
G37*
G36*
G01X29993Y4615D02*
G01X29980Y4619D01*
G01X29967Y4623D01*
G01X29954Y4629D01*
G01X29943Y4636D01*
G01X29932Y4645D01*
G01X29923Y4655D01*
G01X29915Y4665D01*
G01X29908Y4677D01*
G01X29903Y4690D01*
G01X29900Y4704D01*
G01X29898Y4718D01*
G01X29898Y4731D01*
G01X29900Y4745D01*
G01X29903Y4758D01*
G01X29908Y4771D01*
G01X29915Y4783D01*
G01X29923Y4794D01*
G01X29932Y4804D01*
G01X29943Y4813D01*
G01X29954Y4820D01*
G01X29967Y4825D01*
G01X29980Y4830D01*
G01X29993Y4833D01*
G01X30473Y4833D01*
G01X30487Y4830D01*
G01X30500Y4825D01*
G01X30512Y4820D01*
G01X30524Y4813D01*
G01X30534Y4804D01*
G01X30544Y4794D01*
G01X30552Y4783D01*
G01X30558Y4771D01*
G01X30563Y4758D01*
G01X30567Y4745D01*
G01X30569Y4731D01*
G01X30569Y4718D01*
G01X30567Y4704D01*
G01X30563Y4690D01*
G01X30558Y4677D01*
G01X30552Y4665D01*
G01X30544Y4655D01*
G01X30534Y4645D01*
G01X30524Y4636D01*
G01X30512Y4629D01*
G01X30500Y4623D01*
G01X30487Y4619D01*
G01X30473Y4615D01*
G01X29993Y4615D01*
G37*
G36*
G01X2143Y17621D02*
G01X2143Y18134D01*
G01X2459Y18134D01*
G01X2459Y17621D01*
G01X2143Y17621D01*
G37*
G36*
G01X1769Y17621D02*
G01X1769Y18134D01*
G01X2085Y18134D01*
G01X2085Y17621D01*
G01X1769Y17621D01*
G37*
G36*
G01X1395Y17621D02*
G01X1395Y18134D01*
G01X1711Y18134D01*
G01X1711Y17621D01*
G01X1395Y17621D01*
G37*
G36*
G01X1395Y18724D02*
G01X1395Y19237D01*
G01X1711Y19237D01*
G01X1711Y18724D01*
G01X1395Y18724D01*
G37*
G36*
G01X1769Y18724D02*
G01X1769Y19237D01*
G01X2085Y19237D01*
G01X2085Y18724D01*
G01X1769Y18724D01*
G37*
G36*
G01X2143Y18724D02*
G01X2143Y19237D01*
G01X2459Y19237D01*
G01X2459Y18724D01*
G01X2143Y18724D01*
G37*
G54D45*
G01X925Y26818D03*
G01X925Y27818D03*
G01X925Y28818D03*
G01X925Y25818D03*
G36*
G01X2005Y21656D02*
G01X2005Y22315D01*
G01X2542Y22315D01*
G01X2542Y21656D01*
G01X2005Y21656D01*
G37*
G36*
G01X1304Y21656D02*
G01X1304Y22315D01*
G01X1841Y22315D01*
G01X1841Y21656D01*
G01X1304Y21656D01*
G37*
G36*
G01X3637Y22029D02*
G01X3637Y22688D01*
G01X4173Y22688D01*
G01X4173Y22029D01*
G01X3637Y22029D01*
G37*
G36*
G01X4338Y22029D02*
G01X4338Y22688D01*
G01X4874Y22688D01*
G01X4874Y22029D01*
G01X4338Y22029D01*
G37*
G54D49*
G01X12208Y11236D03*
G01X13369Y11236D03*
G01X13369Y12094D03*
G01X12208Y12094D03*
G36*
G01X1542Y36471D02*
G01X1542Y37129D01*
G01X2079Y37129D01*
G01X2079Y36471D01*
G01X1542Y36471D01*
G37*
G36*
G01X842Y36471D02*
G01X842Y37129D01*
G01X1378Y37129D01*
G01X1378Y36471D01*
G01X842Y36471D01*
G37*
G54D51*
G01X44077Y32622D03*
G54D46*
G01X39601Y34622D03*
G01X42101Y35622D03*
G54D51*
G01X38624Y31622D03*
G01X109702Y25122D03*
G54D46*
G01X105225Y27122D03*
G01X107725Y28122D03*
G54D51*
G01X104249Y24122D03*
G01X14077Y32622D03*
G54D46*
G01X9601Y34622D03*
G01X12101Y35622D03*
G54D51*
G01X8624Y31622D03*
G01X29077Y32622D03*
G54D46*
G01X24601Y34622D03*
G01X27101Y35622D03*
G54D51*
G01X23624Y31622D03*
G01X36577Y32622D03*
G54D46*
G01X32101Y34622D03*
G01X34601Y35622D03*
G54D51*
G01X31124Y31622D03*
G01X51577Y32622D03*
G54D46*
G01X47101Y34622D03*
G01X49601Y35622D03*
G54D51*
G01X46124Y31622D03*
G01X59077Y32622D03*
G54D46*
G01X54601Y34622D03*
G01X57101Y35622D03*
G54D51*
G01X53624Y31622D03*
G01X66577Y32622D03*
G54D46*
G01X62101Y34622D03*
G01X64601Y35622D03*
G54D51*
G01X61124Y31622D03*
G01X74077Y32622D03*
G54D46*
G01X69601Y34622D03*
G01X72101Y35622D03*
G54D51*
G01X68624Y31622D03*
G01X81577Y32622D03*
G54D46*
G01X77101Y34622D03*
G01X79601Y35622D03*
G54D51*
G01X76124Y31622D03*
G01X89077Y32622D03*
G54D46*
G01X84601Y34622D03*
G01X87101Y35622D03*
G54D51*
G01X83624Y31622D03*
G01X96577Y32622D03*
G54D46*
G01X92101Y34622D03*
G01X94601Y35622D03*
G54D51*
G01X91124Y31622D03*
G01X107827Y32622D03*
G54D46*
G01X103350Y34622D03*
G01X105850Y35622D03*
G54D51*
G01X102374Y31622D03*
G01X8452Y25122D03*
G54D46*
G01X3976Y27122D03*
G01X6476Y28122D03*
G54D51*
G01X2999Y24122D03*
G01X17827Y25122D03*
G54D46*
G01X13350Y27122D03*
G01X15850Y28122D03*
G54D51*
G01X12374Y24122D03*
G01X25327Y25122D03*
G54D46*
G01X20850Y27122D03*
G01X23350Y28122D03*
G54D51*
G01X19874Y24122D03*
G01X32827Y25122D03*
G54D46*
G01X28350Y27122D03*
G01X30850Y28122D03*
G54D51*
G01X27374Y24122D03*
G01X40327Y25122D03*
G54D46*
G01X35850Y27122D03*
G01X38350Y28122D03*
G54D51*
G01X34874Y24122D03*
G01X47827Y25122D03*
G54D46*
G01X43350Y27122D03*
G01X45850Y28122D03*
G54D51*
G01X42374Y24122D03*
G01X55327Y25122D03*
G54D46*
G01X50850Y27122D03*
G01X53350Y28122D03*
G54D51*
G01X49874Y24122D03*
G01X62827Y25122D03*
G54D46*
G01X58350Y27122D03*
G01X60850Y28122D03*
G54D51*
G01X57374Y24122D03*
G01X70327Y25122D03*
G54D46*
G01X65850Y27122D03*
G01X68350Y28122D03*
G54D51*
G01X64874Y24122D03*
G01X77827Y25122D03*
G54D46*
G01X73350Y27122D03*
G01X75850Y28122D03*
G54D51*
G01X72374Y24122D03*
G01X85327Y25122D03*
G54D46*
G01X80850Y27122D03*
G01X83350Y28122D03*
G54D51*
G01X79874Y24122D03*
G01X92827Y25122D03*
G54D46*
G01X88350Y27122D03*
G01X90850Y28122D03*
G54D51*
G01X87374Y24122D03*
G01X100327Y25122D03*
G54D46*
G01X95850Y27122D03*
G01X98350Y28122D03*
G54D51*
G01X94874Y24122D03*
G01X9389Y17622D03*
G54D46*
G01X4913Y19622D03*
G01X7413Y20622D03*
G54D51*
G01X3937Y16622D03*
G01X19702Y17622D03*
G54D46*
G01X15226Y19622D03*
G01X17726Y20622D03*
G54D51*
G01X14249Y16622D03*
G01X27202Y17622D03*
G54D46*
G01X22726Y19622D03*
G01X25226Y20622D03*
G54D51*
G01X21749Y16622D03*
G01X34702Y17622D03*
G54D46*
G01X30226Y19622D03*
G01X32726Y20622D03*
G54D51*
G01X29249Y16622D03*
G01X42202Y17622D03*
G54D46*
G01X37726Y19622D03*
G01X40226Y20622D03*
G54D51*
G01X36749Y16622D03*
G01X49702Y17622D03*
G54D46*
G01X45226Y19622D03*
G01X47726Y20622D03*
G54D51*
G01X44249Y16622D03*
G01X57202Y17622D03*
G54D46*
G01X52725Y19622D03*
G01X55225Y20622D03*
G54D51*
G01X51749Y16622D03*
G01X64702Y17622D03*
G54D46*
G01X60225Y19622D03*
G01X62725Y20622D03*
G54D51*
G01X59249Y16622D03*
G01X72202Y17622D03*
G54D46*
G01X67725Y19622D03*
G01X70225Y20622D03*
G54D51*
G01X66749Y16622D03*
G01X79702Y17622D03*
G54D46*
G01X75225Y19622D03*
G01X77725Y20622D03*
G54D51*
G01X74249Y16622D03*
G01X87202Y17622D03*
G54D46*
G01X82725Y19622D03*
G01X85225Y20622D03*
G54D51*
G01X81749Y16622D03*
G01X94702Y17622D03*
G54D46*
G01X90225Y19622D03*
G01X92725Y20622D03*
G54D51*
G01X89249Y16622D03*
G01X106889Y17622D03*
G54D46*
G01X102413Y19622D03*
G01X104913Y20622D03*
G54D51*
G01X101436Y16622D03*
G01X11264Y10122D03*
G54D46*
G01X6788Y12122D03*
G01X9288Y13122D03*
G54D51*
G01X5812Y9122D03*
G01X23452Y10122D03*
G54D46*
G01X18976Y12122D03*
G01X21476Y13122D03*
G54D51*
G01X17999Y9122D03*
G01X30952Y10122D03*
G54D46*
G01X26476Y12122D03*
G01X28976Y13122D03*
G54D51*
G01X25499Y9122D03*
G01X38452Y10122D03*
G54D46*
G01X33976Y12122D03*
G01X36476Y13122D03*
G54D51*
G01X32999Y9122D03*
G01X45952Y10122D03*
G54D46*
G01X41476Y12122D03*
G01X43976Y13122D03*
G54D51*
G01X40499Y9122D03*
G01X53452Y10122D03*
G54D46*
G01X48976Y12122D03*
G01X51475Y13122D03*
G54D51*
G01X47999Y9122D03*
G01X60952Y10122D03*
G54D46*
G01X56475Y12122D03*
G01X58975Y13122D03*
G54D51*
G01X55499Y9122D03*
G01X68452Y10122D03*
G54D46*
G01X63975Y12122D03*
G01X66475Y13122D03*
G54D51*
G01X62999Y9122D03*
G01X75952Y10122D03*
G54D46*
G01X71475Y12122D03*
G01X73975Y13122D03*
G54D51*
G01X70499Y9122D03*
G01X83452Y10122D03*
G54D46*
G01X78975Y12122D03*
G01X81475Y13122D03*
G54D51*
G01X77999Y9122D03*
G01X90952Y10122D03*
G54D46*
G01X86475Y12122D03*
G01X88975Y13122D03*
G54D51*
G01X85499Y9122D03*
G01X105014Y10122D03*
G54D46*
G01X100538Y12122D03*
G01X103038Y13122D03*
G54D51*
G01X99562Y9122D03*
G01X7514Y2622D03*
G54D46*
G01X3038Y4622D03*
G01X5538Y5622D03*
G54D51*
G01X2062Y1622D03*
G01X16889Y2622D03*
G54D46*
G01X12413Y4622D03*
G01X14913Y5622D03*
G54D51*
G01X11437Y1622D03*
G01X26264Y2622D03*
G54D46*
G01X21788Y4622D03*
G01X24288Y5622D03*
G54D51*
G01X20812Y1622D03*
G01X54389Y2622D03*
G54D46*
G01X49913Y4622D03*
G01X52413Y5622D03*
G54D51*
G01X48937Y1622D03*
G01X82514Y2622D03*
G54D46*
G01X78038Y4622D03*
G01X80538Y5622D03*
G54D51*
G01X77062Y1622D03*
G01X91889Y2622D03*
G54D46*
G01X87413Y4622D03*
G01X89913Y5622D03*
G54D51*
G01X86436Y1622D03*
G01X101264Y2622D03*
G54D46*
G01X96788Y4622D03*
G01X99288Y5622D03*
G54D51*
G01X95812Y1622D03*
G01X110639Y2622D03*
G54D46*
G01X106163Y4622D03*
G01X108663Y5622D03*
G54D51*
G01X105186Y1622D03*
G01X6577Y32622D03*
G54D46*
G01X2101Y34622D03*
G01X4601Y35622D03*
G54D51*
G01X1124Y31622D03*
G01X21577Y32622D03*
G54D46*
G01X17101Y34622D03*
G01X19601Y35622D03*
G54D51*
G01X16124Y31622D03*
G54D45*
G01X110830Y28866D03*
G01X110830Y21110D03*
G01X110830Y13354D03*
G01X925Y29818D03*
G01X925Y24818D03*
M00*
M02*
