;Layer: Drill NPTH
;EasyEDA v6.1.51, Wed, 19 Jun 2019 13:06:47 GMT
;66271e87440c4271b6eaadeb73023992,1972fb780e03461d8e8e980d21b9fed7,00
;Gerber Generator version 0.2
M48
INCH,LZ,00.0000
;Holesize 1 = 0.026 INCH
T01C0.026
;Holesize 2 = 0.067 INCH
T02C0.067
;Holesize 3 = 0.098 INCH
T03C0.098
;Holesize 4 = 0.118 INCH
T04C0.118
;Holesize 5 = 0.120 INCH
T05C0.120
;Holesize 6 = 0.157 INCH
T06C0.157
%
G05
G90
T01
X+008316Y+035354
X+006041Y+035354
T02
X+039101Y+033622
X+043101Y+033622
X+104725Y+026122
X+108725Y+026122
X+009101Y+033622
X+013101Y+033622
X+024101Y+033622
X+028101Y+033622
X+031601Y+033622
X+035601Y+033622
X+046601Y+033622
X+050601Y+033622
X+054101Y+033622
X+058101Y+033622
X+061601Y+033622
X+065601Y+033622
X+069101Y+033622
X+073101Y+033622
X+076601Y+033622
X+080601Y+033622
X+084101Y+033622
X+088101Y+033622
X+091601Y+033622
X+095601Y+033622
X+102850Y+033622
X+106850Y+033622
X+003476Y+026122
X+007476Y+026122
X+012850Y+026122
X+016850Y+026122
X+020350Y+026122
X+024350Y+026122
X+027850Y+026122
X+031850Y+026122
X+035350Y+026122
X+039350Y+026122
X+042850Y+026122
X+046850Y+026122
X+050350Y+026122
X+054350Y+026122
X+057850Y+026122
X+061850Y+026122
X+065350Y+026122
X+069350Y+026122
X+072850Y+026122
X+076850Y+026122
X+080350Y+026122
X+084350Y+026122
X+087850Y+026122
X+091850Y+026122
X+095350Y+026122
X+099350Y+026122
X+004413Y+018622
X+008413Y+018622
X+014726Y+018622
X+018726Y+018622
X+022226Y+018622
X+026226Y+018622
X+029726Y+018622
X+033726Y+018622
X+037226Y+018622
X+041226Y+018622
X+044726Y+018622
X+048726Y+018622
X+052225Y+018622
X+056225Y+018622
X+059725Y+018622
X+063725Y+018622
X+067225Y+018622
X+071225Y+018622
X+074725Y+018622
X+078725Y+018622
X+082225Y+018622
X+086225Y+018622
X+089725Y+018622
X+093725Y+018622
X+101913Y+018622
X+105913Y+018622
X+006288Y+011122
X+010288Y+011122
X+018476Y+011122
X+022476Y+011122
X+025976Y+011122
X+029976Y+011122
X+033476Y+011122
X+037476Y+011122
X+040976Y+011122
X+044976Y+011122
X+048476Y+011122
X+052475Y+011122
X+055975Y+011122
X+059975Y+011122
X+063475Y+011122
X+067475Y+011122
X+070975Y+011122
X+074975Y+011122
X+078475Y+011122
X+082475Y+011122
X+085975Y+011122
X+089975Y+011122
X+100038Y+011122
X+104038Y+011122
X+002538Y+003622
X+006538Y+003622
X+011913Y+003622
X+015913Y+003622
X+021288Y+003622
X+025288Y+003622
X+049413Y+003622
X+053413Y+003622
X+077538Y+003622
X+081538Y+003622
X+086913Y+003622
X+090913Y+003622
X+096288Y+003622
X+100288Y+003622
X+105663Y+003622
X+109663Y+003622
X+001601Y+033622
X+005601Y+033622
X+016601Y+033622
X+020601Y+033622
T03
X+049979Y+018740G85X+050964Y+018740
X+009428Y+026259G85X+010413Y+026259
X+074506Y+003700G85X+075491Y+003700
X+101888Y+026259G85X+102873Y+026259
T04
X+042601Y+032622
X+040101Y+031622
X+108225Y+025122
X+105725Y+024122
X+012601Y+032622
X+010101Y+031622
X+027601Y+032622
X+025101Y+031622
X+035101Y+032622
X+032601Y+031622
X+050101Y+032622
X+047601Y+031622
X+057601Y+032622
X+055101Y+031622
X+065101Y+032622
X+062601Y+031622
X+072601Y+032622
X+070101Y+031622
X+080101Y+032622
X+077601Y+031622
X+087601Y+032622
X+085101Y+031622
X+095101Y+032622
X+092601Y+031622
X+106350Y+032622
X+103850Y+031622
X+006976Y+025122
X+004476Y+024122
X+016350Y+025122
X+013850Y+024122
X+023850Y+025122
X+021350Y+024122
X+031350Y+025122
X+028850Y+024122
X+038850Y+025122
X+036350Y+024122
X+046350Y+025122
X+043850Y+024122
X+053850Y+025122
X+051350Y+024122
X+061350Y+025122
X+058850Y+024122
X+068850Y+025122
X+066350Y+024122
X+076350Y+025122
X+073850Y+024122
X+083850Y+025122
X+081350Y+024122
X+091350Y+025122
X+088850Y+024122
X+098850Y+025122
X+096350Y+024122
X+007913Y+017622
X+005413Y+016622
X+018226Y+017622
X+015726Y+016622
X+025726Y+017622
X+023226Y+016622
X+033226Y+017622
X+030726Y+016622
X+040726Y+017622
X+038226Y+016622
X+048226Y+017622
X+045726Y+016622
X+055725Y+017622
X+053225Y+016622
X+063225Y+017622
X+060725Y+016622
X+070725Y+017622
X+068225Y+016622
X+078225Y+017622
X+075725Y+016622
X+085725Y+017622
X+083225Y+016622
X+093225Y+017622
X+090725Y+016622
X+105413Y+017622
X+102913Y+016622
X+009788Y+010122
X+007288Y+009122
X+021976Y+010122
X+019476Y+009122
X+029476Y+010122
X+026976Y+009122
X+036976Y+010122
X+034476Y+009122
X+044476Y+010122
X+041976Y+009122
X+051975Y+010122
X+049476Y+009122
X+059475Y+010122
X+056975Y+009122
X+066975Y+010122
X+064475Y+009122
X+074475Y+010122
X+071975Y+009122
X+081975Y+010122
X+079475Y+009122
X+089475Y+010122
X+086975Y+009122
X+103538Y+010122
X+101038Y+009122
X+006038Y+002622
X+003538Y+001622
X+015413Y+002622
X+012913Y+001622
X+024788Y+002622
X+022288Y+001622
X+052913Y+002622
X+050413Y+001622
X+081038Y+002622
X+078538Y+001622
X+090413Y+002622
X+087913Y+001622
X+099788Y+002622
X+097288Y+001622
X+109163Y+002622
X+106663Y+001622
X+005101Y+032622
X+002601Y+031622
X+020101Y+032622
X+017601Y+031622
T05
X+109550Y+036372
X+100150Y+036372
X+106738Y+013872
X+097338Y+013872
X+108613Y+021372
X+099213Y+021372
X+012988Y+013872
X+003588Y+013872
X+071113Y+000872
X+031713Y+000872
T06
X+109550Y+030372
X+100150Y+030372
X+106738Y+007872
X+097338Y+007872
X+108613Y+015372
X+099213Y+015372
X+012988Y+007872
X+003588Y+007872
X+071113Y+006872
X+031713Y+006872
X+041101Y+033622
X+106725Y+026122
X+011101Y+033622
X+026101Y+033622
X+033601Y+033622
X+048601Y+033622
X+056101Y+033622
X+063601Y+033622
X+071101Y+033622
X+078601Y+033622
X+086101Y+033622
X+093601Y+033622
X+104850Y+033622
X+005476Y+026122
X+014850Y+026122
X+022350Y+026122
X+029850Y+026122
X+037350Y+026122
X+044850Y+026122
X+052350Y+026122
X+059850Y+026122
X+067350Y+026122
X+074850Y+026122
X+082350Y+026122
X+089850Y+026122
X+097350Y+026122
X+006413Y+018622
X+016726Y+018622
X+024226Y+018622
X+031726Y+018622
X+039226Y+018622
X+046726Y+018622
X+054225Y+018622
X+061725Y+018622
X+069225Y+018622
X+076725Y+018622
X+084225Y+018622
X+091725Y+018622
X+103913Y+018622
X+008288Y+011122
X+020476Y+011122
X+027976Y+011122
X+035476Y+011122
X+042976Y+011122
X+050475Y+011122
X+057975Y+011122
X+065475Y+011122
X+072975Y+011122
X+080475Y+011122
X+087975Y+011122
X+102038Y+011122
X+004538Y+003622
X+013913Y+003622
X+023288Y+003622
X+051413Y+003622
X+079538Y+003622
X+088913Y+003622
X+098288Y+003622
X+107663Y+003622
X+003601Y+033622
X+018601Y+033622
M30
