G04 Layer: TopSilkLayer*
G04 EasyEDA v6.1.51, Wed, 19 Jun 2019 13:06:47 GMT*
G04 66271e87440c4271b6eaadeb73023992,1972fb780e03461d8e8e980d21b9fed7,00*
G04 Gerber Generator version 0.2*
G04 Scale: 100 percent, Rotated: No, Reflected: No *
G04 Dimensions in inches *
G04 leading zeros omitted , absolute positions ,2 integer and 4 decimal *
%FSLAX24Y24*%
%MOIN*%
G90*
G70D02*

%ADD30C,0.007870*%
%ADD31C,0.009840*%
%ADD32C,0.005910*%
%ADD33C,0.012000*%

%LPD*%
G54D30*
G01X111085Y25215D02*
G01X111085Y24696D01*
G01X111492Y24481D01*
G01X111900Y24696D01*
G01X111085Y24696D01*
G01X111900Y25570D02*
G01X111900Y26089D01*
G01X111085Y26089D01*
G01X111085Y25570D01*
G01X111900Y24696D02*
G01X111900Y25215D01*
G01X111085Y17502D02*
G01X111085Y16982D01*
G01X111492Y16768D01*
G01X111900Y16982D01*
G01X111085Y16982D01*
G01X111900Y17856D02*
G01X111900Y18376D01*
G01X111085Y18376D01*
G01X111085Y17856D01*
G01X111900Y16982D02*
G01X111900Y17502D01*
G01X111085Y9788D02*
G01X111085Y9269D01*
G01X111492Y9054D01*
G01X111900Y9269D01*
G01X111085Y9269D01*
G01X111900Y10143D02*
G01X111900Y10663D01*
G01X111085Y10663D01*
G01X111085Y10143D01*
G01X111900Y9269D02*
G01X111900Y9788D01*
G01X7003Y21951D02*
G01X7218Y22358D01*
G01X7003Y22766D01*
G01X7003Y21951D01*
G01X6483Y21951D01*
G01X6129Y21951D02*
G01X5609Y21951D01*
G01X5609Y22766D01*
G01X6129Y22766D01*
G01X7003Y22766D02*
G01X6483Y22766D01*
G01X4168Y36392D02*
G01X4382Y36800D01*
G01X4168Y37207D01*
G01X4168Y36392D01*
G01X3648Y36392D01*
G01X3294Y36392D02*
G01X2774Y36392D01*
G01X2774Y37207D01*
G01X3294Y37207D01*
G01X4168Y37207D02*
G01X3648Y37207D01*
G54D31*
G01X43463Y36378D02*
G01X43857Y36378D01*
G01X43857Y31242D01*
G01X43857Y31260D02*
G01X43857Y30866D01*
G01X43463Y30866D01*
G01X38345Y30866D01*
G01X38345Y31260D01*
G01X38345Y31282D02*
G01X38345Y36378D01*
G01X43461Y36378D01*
G01X109087Y28878D02*
G01X109481Y28878D01*
G01X109481Y23742D01*
G01X109481Y23760D02*
G01X109481Y23366D01*
G01X109087Y23366D01*
G01X103969Y23366D01*
G01X103969Y23760D01*
G01X103969Y23782D02*
G01X103969Y28878D01*
G01X109085Y28878D01*
G01X13463Y36378D02*
G01X13856Y36378D01*
G01X13856Y31242D01*
G01X13856Y31260D02*
G01X13856Y30866D01*
G01X13463Y30866D01*
G01X8345Y30866D01*
G01X8345Y31260D01*
G01X8345Y31282D02*
G01X8345Y36378D01*
G01X13460Y36378D01*
G01X28463Y36378D02*
G01X28857Y36378D01*
G01X28857Y31242D01*
G01X28857Y31260D02*
G01X28857Y30866D01*
G01X28463Y30866D01*
G01X23345Y30866D01*
G01X23345Y31260D01*
G01X23345Y31282D02*
G01X23345Y36378D01*
G01X28461Y36378D01*
G01X35963Y36378D02*
G01X36357Y36378D01*
G01X36357Y31242D01*
G01X36357Y31260D02*
G01X36357Y30866D01*
G01X35963Y30866D01*
G01X30845Y30866D01*
G01X30845Y31260D01*
G01X30845Y31282D02*
G01X30845Y36378D01*
G01X35961Y36378D01*
G01X50963Y36378D02*
G01X51357Y36378D01*
G01X51357Y31242D01*
G01X51357Y31260D02*
G01X51357Y30866D01*
G01X50963Y30866D01*
G01X45845Y30866D01*
G01X45845Y31260D01*
G01X45845Y31282D02*
G01X45845Y36378D01*
G01X50961Y36378D01*
G01X58463Y36378D02*
G01X58856Y36378D01*
G01X58856Y31242D01*
G01X58856Y31260D02*
G01X58856Y30866D01*
G01X58463Y30866D01*
G01X53345Y30866D01*
G01X53345Y31260D01*
G01X53345Y31282D02*
G01X53345Y36378D01*
G01X58461Y36378D01*
G01X65963Y36378D02*
G01X66357Y36378D01*
G01X66357Y31242D01*
G01X66357Y31260D02*
G01X66357Y30866D01*
G01X65963Y30866D01*
G01X60845Y30866D01*
G01X60845Y31260D01*
G01X60845Y31282D02*
G01X60845Y36378D01*
G01X65961Y36378D01*
G01X73463Y36378D02*
G01X73857Y36378D01*
G01X73857Y31242D01*
G01X73857Y31260D02*
G01X73857Y30866D01*
G01X73463Y30866D01*
G01X68345Y30866D01*
G01X68345Y31260D01*
G01X68345Y31282D02*
G01X68345Y36378D01*
G01X73461Y36378D01*
G01X80963Y36378D02*
G01X81357Y36378D01*
G01X81357Y31242D01*
G01X81357Y31260D02*
G01X81357Y30866D01*
G01X80963Y30866D01*
G01X75845Y30866D01*
G01X75845Y31260D01*
G01X75845Y31282D02*
G01X75845Y36378D01*
G01X80961Y36378D01*
G01X88463Y36378D02*
G01X88857Y36378D01*
G01X88857Y31242D01*
G01X88857Y31260D02*
G01X88857Y30866D01*
G01X88463Y30866D01*
G01X83345Y30866D01*
G01X83345Y31260D01*
G01X83345Y31282D02*
G01X83345Y36378D01*
G01X88461Y36378D01*
G01X95963Y36378D02*
G01X96357Y36378D01*
G01X96357Y31242D01*
G01X96357Y31260D02*
G01X96357Y30866D01*
G01X95963Y30866D01*
G01X90845Y30866D01*
G01X90845Y31260D01*
G01X90845Y31282D02*
G01X90845Y36378D01*
G01X95961Y36378D01*
G01X107212Y36378D02*
G01X107606Y36378D01*
G01X107606Y31242D01*
G01X107606Y31260D02*
G01X107606Y30866D01*
G01X107212Y30866D01*
G01X102094Y30866D01*
G01X102094Y31260D01*
G01X102094Y31282D02*
G01X102094Y36378D01*
G01X107210Y36378D01*
G01X7838Y28878D02*
G01X8231Y28878D01*
G01X8231Y23742D01*
G01X8231Y23760D02*
G01X8231Y23366D01*
G01X7838Y23366D01*
G01X2720Y23366D01*
G01X2720Y23760D01*
G01X2720Y23782D02*
G01X2720Y28878D01*
G01X7835Y28878D01*
G01X17213Y28878D02*
G01X17606Y28878D01*
G01X17606Y23742D01*
G01X17606Y23760D02*
G01X17606Y23366D01*
G01X17213Y23366D01*
G01X12094Y23366D01*
G01X12094Y23760D01*
G01X12094Y23782D02*
G01X12094Y28878D01*
G01X17210Y28878D01*
G01X24713Y28878D02*
G01X25106Y28878D01*
G01X25106Y23742D01*
G01X25106Y23760D02*
G01X25106Y23366D01*
G01X24713Y23366D01*
G01X19594Y23366D01*
G01X19594Y23760D01*
G01X19594Y23782D02*
G01X19594Y28878D01*
G01X24710Y28878D01*
G01X32213Y28878D02*
G01X32606Y28878D01*
G01X32606Y23742D01*
G01X32606Y23760D02*
G01X32606Y23366D01*
G01X32213Y23366D01*
G01X27094Y23366D01*
G01X27094Y23760D01*
G01X27094Y23782D02*
G01X27094Y28878D01*
G01X32210Y28878D01*
G01X39713Y28878D02*
G01X40106Y28878D01*
G01X40106Y23742D01*
G01X40106Y23760D02*
G01X40106Y23366D01*
G01X39713Y23366D01*
G01X34594Y23366D01*
G01X34594Y23760D01*
G01X34594Y23782D02*
G01X34594Y28878D01*
G01X39710Y28878D01*
G01X47213Y28878D02*
G01X47606Y28878D01*
G01X47606Y23742D01*
G01X47606Y23760D02*
G01X47606Y23366D01*
G01X47213Y23366D01*
G01X42094Y23366D01*
G01X42094Y23760D01*
G01X42094Y23782D02*
G01X42094Y28878D01*
G01X47210Y28878D01*
G01X54712Y28878D02*
G01X55106Y28878D01*
G01X55106Y23742D01*
G01X55106Y23760D02*
G01X55106Y23366D01*
G01X54712Y23366D01*
G01X49594Y23366D01*
G01X49594Y23760D01*
G01X49594Y23782D02*
G01X49594Y28878D01*
G01X54710Y28878D01*
G01X62212Y28878D02*
G01X62606Y28878D01*
G01X62606Y23742D01*
G01X62606Y23760D02*
G01X62606Y23366D01*
G01X62212Y23366D01*
G01X57094Y23366D01*
G01X57094Y23760D01*
G01X57094Y23782D02*
G01X57094Y28878D01*
G01X62210Y28878D01*
G01X69712Y28878D02*
G01X70106Y28878D01*
G01X70106Y23742D01*
G01X70106Y23760D02*
G01X70106Y23366D01*
G01X69712Y23366D01*
G01X64594Y23366D01*
G01X64594Y23760D01*
G01X64594Y23782D02*
G01X64594Y28878D01*
G01X69710Y28878D01*
G01X77212Y28878D02*
G01X77606Y28878D01*
G01X77606Y23742D01*
G01X77606Y23760D02*
G01X77606Y23366D01*
G01X77212Y23366D01*
G01X72094Y23366D01*
G01X72094Y23760D01*
G01X72094Y23782D02*
G01X72094Y28878D01*
G01X77210Y28878D01*
G01X84712Y28878D02*
G01X85106Y28878D01*
G01X85106Y23742D01*
G01X85106Y23760D02*
G01X85106Y23366D01*
G01X84712Y23366D01*
G01X79594Y23366D01*
G01X79594Y23760D01*
G01X79594Y23782D02*
G01X79594Y28878D01*
G01X84710Y28878D01*
G01X92212Y28878D02*
G01X92606Y28878D01*
G01X92606Y23742D01*
G01X92606Y23760D02*
G01X92606Y23366D01*
G01X92212Y23366D01*
G01X87094Y23366D01*
G01X87094Y23760D01*
G01X87094Y23782D02*
G01X87094Y28878D01*
G01X92210Y28878D01*
G01X99712Y28878D02*
G01X100106Y28878D01*
G01X100106Y23742D01*
G01X100106Y23760D02*
G01X100106Y23366D01*
G01X99712Y23366D01*
G01X94594Y23366D01*
G01X94594Y23760D01*
G01X94594Y23782D02*
G01X94594Y28878D01*
G01X99710Y28878D01*
G01X8775Y21378D02*
G01X9169Y21378D01*
G01X9169Y16242D01*
G01X9169Y16260D02*
G01X9169Y15866D01*
G01X8775Y15866D01*
G01X3657Y15866D01*
G01X3657Y16260D01*
G01X3657Y16282D02*
G01X3657Y21378D01*
G01X8773Y21378D01*
G01X19088Y21378D02*
G01X19481Y21378D01*
G01X19481Y16242D01*
G01X19481Y16260D02*
G01X19481Y15866D01*
G01X19088Y15866D01*
G01X13970Y15866D01*
G01X13970Y16260D01*
G01X13970Y16282D02*
G01X13970Y21378D01*
G01X19086Y21378D01*
G01X26588Y21378D02*
G01X26981Y21378D01*
G01X26981Y16242D01*
G01X26981Y16260D02*
G01X26981Y15866D01*
G01X26588Y15866D01*
G01X21470Y15866D01*
G01X21470Y16260D01*
G01X21470Y16282D02*
G01X21470Y21378D01*
G01X26586Y21378D01*
G01X34088Y21378D02*
G01X34481Y21378D01*
G01X34481Y16242D01*
G01X34481Y16260D02*
G01X34481Y15866D01*
G01X34088Y15866D01*
G01X28970Y15866D01*
G01X28970Y16260D01*
G01X28970Y16282D02*
G01X28970Y21378D01*
G01X34086Y21378D01*
G01X41588Y21378D02*
G01X41981Y21378D01*
G01X41981Y16242D01*
G01X41981Y16260D02*
G01X41981Y15866D01*
G01X41588Y15866D01*
G01X36470Y15866D01*
G01X36470Y16260D01*
G01X36470Y16282D02*
G01X36470Y21378D01*
G01X41586Y21378D01*
G01X49088Y21378D02*
G01X49481Y21378D01*
G01X49481Y16242D01*
G01X49481Y16260D02*
G01X49481Y15866D01*
G01X49088Y15866D01*
G01X43970Y15866D01*
G01X43970Y16260D01*
G01X43970Y16282D02*
G01X43970Y21378D01*
G01X49086Y21378D01*
G01X56588Y21378D02*
G01X56981Y21378D01*
G01X56981Y16242D01*
G01X56981Y16260D02*
G01X56981Y15866D01*
G01X56588Y15866D01*
G01X51469Y15866D01*
G01X51469Y16260D01*
G01X51469Y16282D02*
G01X51469Y21378D01*
G01X56585Y21378D01*
G01X64088Y21378D02*
G01X64481Y21378D01*
G01X64481Y16242D01*
G01X64481Y16260D02*
G01X64481Y15866D01*
G01X64088Y15866D01*
G01X58969Y15866D01*
G01X58969Y16260D01*
G01X58969Y16282D02*
G01X58969Y21378D01*
G01X64085Y21378D01*
G01X71588Y21378D02*
G01X71981Y21378D01*
G01X71981Y16242D01*
G01X71981Y16260D02*
G01X71981Y15866D01*
G01X71588Y15866D01*
G01X66470Y15866D01*
G01X66470Y16260D01*
G01X66470Y16282D02*
G01X66470Y21378D01*
G01X71585Y21378D01*
G01X79088Y21378D02*
G01X79481Y21378D01*
G01X79481Y16242D01*
G01X79481Y16260D02*
G01X79481Y15866D01*
G01X79088Y15866D01*
G01X73970Y15866D01*
G01X73970Y16260D01*
G01X73970Y16282D02*
G01X73970Y21378D01*
G01X79085Y21378D01*
G01X86588Y21378D02*
G01X86981Y21378D01*
G01X86981Y16242D01*
G01X86981Y16260D02*
G01X86981Y15866D01*
G01X86588Y15866D01*
G01X81470Y15866D01*
G01X81470Y16260D01*
G01X81470Y16282D02*
G01X81470Y21378D01*
G01X86585Y21378D01*
G01X94088Y21378D02*
G01X94481Y21378D01*
G01X94481Y16242D01*
G01X94481Y16260D02*
G01X94481Y15866D01*
G01X94088Y15866D01*
G01X88970Y15866D01*
G01X88970Y16260D01*
G01X88970Y16282D02*
G01X88970Y21378D01*
G01X94085Y21378D01*
G01X106275Y21378D02*
G01X106669Y21378D01*
G01X106669Y16242D01*
G01X106669Y16260D02*
G01X106669Y15866D01*
G01X106275Y15866D01*
G01X101157Y15866D01*
G01X101157Y16260D01*
G01X101157Y16282D02*
G01X101157Y21378D01*
G01X106273Y21378D01*
G01X10650Y13878D02*
G01X11044Y13878D01*
G01X11044Y8742D01*
G01X11044Y8760D02*
G01X11044Y8366D01*
G01X10650Y8366D01*
G01X5532Y8366D01*
G01X5532Y8760D01*
G01X5532Y8782D02*
G01X5532Y13878D01*
G01X10648Y13878D01*
G01X22838Y13878D02*
G01X23231Y13878D01*
G01X23231Y8742D01*
G01X23231Y8760D02*
G01X23231Y8366D01*
G01X22838Y8366D01*
G01X17720Y8366D01*
G01X17720Y8760D01*
G01X17720Y8782D02*
G01X17720Y13878D01*
G01X22836Y13878D01*
G01X30338Y13878D02*
G01X30731Y13878D01*
G01X30731Y8742D01*
G01X30731Y8760D02*
G01X30731Y8366D01*
G01X30338Y8366D01*
G01X25220Y8366D01*
G01X25220Y8760D01*
G01X25220Y8782D02*
G01X25220Y13878D01*
G01X30336Y13878D01*
G01X37838Y13878D02*
G01X38231Y13878D01*
G01X38231Y8742D01*
G01X38231Y8760D02*
G01X38231Y8366D01*
G01X37838Y8366D01*
G01X32720Y8366D01*
G01X32720Y8760D01*
G01X32720Y8782D02*
G01X32720Y13878D01*
G01X37836Y13878D01*
G01X45338Y13878D02*
G01X45731Y13878D01*
G01X45731Y8742D01*
G01X45731Y8760D02*
G01X45731Y8366D01*
G01X45338Y8366D01*
G01X40220Y8366D01*
G01X40220Y8760D01*
G01X40220Y8782D02*
G01X40220Y13878D01*
G01X45336Y13878D01*
G01X52838Y13878D02*
G01X53231Y13878D01*
G01X53231Y8742D01*
G01X53231Y8760D02*
G01X53231Y8366D01*
G01X52838Y8366D01*
G01X47719Y8366D01*
G01X47719Y8760D01*
G01X47719Y8782D02*
G01X47719Y13878D01*
G01X52835Y13878D01*
G01X60338Y13878D02*
G01X60731Y13878D01*
G01X60731Y8742D01*
G01X60731Y8760D02*
G01X60731Y8366D01*
G01X60338Y8366D01*
G01X55219Y8366D01*
G01X55219Y8760D01*
G01X55219Y8782D02*
G01X55219Y13878D01*
G01X60335Y13878D01*
G01X67838Y13878D02*
G01X68231Y13878D01*
G01X68231Y8742D01*
G01X68231Y8760D02*
G01X68231Y8366D01*
G01X67838Y8366D01*
G01X62719Y8366D01*
G01X62719Y8760D01*
G01X62719Y8782D02*
G01X62719Y13878D01*
G01X67835Y13878D01*
G01X75338Y13878D02*
G01X75731Y13878D01*
G01X75731Y8742D01*
G01X75731Y8760D02*
G01X75731Y8366D01*
G01X75338Y8366D01*
G01X70220Y8366D01*
G01X70220Y8760D01*
G01X70220Y8782D02*
G01X70220Y13878D01*
G01X75335Y13878D01*
G01X82838Y13878D02*
G01X83231Y13878D01*
G01X83231Y8742D01*
G01X83231Y8760D02*
G01X83231Y8366D01*
G01X82838Y8366D01*
G01X77720Y8366D01*
G01X77720Y8760D01*
G01X77720Y8782D02*
G01X77720Y13878D01*
G01X82835Y13878D01*
G01X90338Y13878D02*
G01X90731Y13878D01*
G01X90731Y8742D01*
G01X90731Y8760D02*
G01X90731Y8366D01*
G01X90338Y8366D01*
G01X85220Y8366D01*
G01X85220Y8760D01*
G01X85220Y8782D02*
G01X85220Y13878D01*
G01X90335Y13878D01*
G01X104400Y13878D02*
G01X104794Y13878D01*
G01X104794Y8742D01*
G01X104794Y8760D02*
G01X104794Y8366D01*
G01X104400Y8366D01*
G01X99282Y8366D01*
G01X99282Y8760D01*
G01X99282Y8782D02*
G01X99282Y13878D01*
G01X104398Y13878D01*
G01X6900Y6378D02*
G01X7294Y6378D01*
G01X7294Y1242D01*
G01X7294Y1260D02*
G01X7294Y866D01*
G01X6900Y866D01*
G01X1782Y866D01*
G01X1782Y1260D01*
G01X1782Y1282D02*
G01X1782Y6378D01*
G01X6898Y6378D01*
G01X16275Y6378D02*
G01X16669Y6378D01*
G01X16669Y1242D01*
G01X16669Y1260D02*
G01X16669Y866D01*
G01X16275Y866D01*
G01X11157Y866D01*
G01X11157Y1260D01*
G01X11157Y1282D02*
G01X11157Y6378D01*
G01X16273Y6378D01*
G01X25650Y6378D02*
G01X26044Y6378D01*
G01X26044Y1242D01*
G01X26044Y1260D02*
G01X26044Y866D01*
G01X25650Y866D01*
G01X20532Y866D01*
G01X20532Y1260D01*
G01X20532Y1282D02*
G01X20532Y6378D01*
G01X25648Y6378D01*
G01X53775Y6378D02*
G01X54169Y6378D01*
G01X54169Y1242D01*
G01X54169Y1260D02*
G01X54169Y866D01*
G01X53775Y866D01*
G01X48657Y866D01*
G01X48657Y1260D01*
G01X48657Y1282D02*
G01X48657Y6378D01*
G01X53773Y6378D01*
G01X81900Y6378D02*
G01X82294Y6378D01*
G01X82294Y1242D01*
G01X82294Y1260D02*
G01X82294Y866D01*
G01X81900Y866D01*
G01X76782Y866D01*
G01X76782Y1260D01*
G01X76782Y1282D02*
G01X76782Y6378D01*
G01X81898Y6378D01*
G01X91275Y6378D02*
G01X91669Y6378D01*
G01X91669Y1242D01*
G01X91669Y1260D02*
G01X91669Y866D01*
G01X91275Y866D01*
G01X86157Y866D01*
G01X86157Y1260D01*
G01X86157Y1282D02*
G01X86157Y6378D01*
G01X91273Y6378D01*
G01X100650Y6378D02*
G01X101044Y6378D01*
G01X101044Y1242D01*
G01X101044Y1260D02*
G01X101044Y866D01*
G01X100650Y866D01*
G01X95532Y866D01*
G01X95532Y1260D01*
G01X95532Y1282D02*
G01X95532Y6378D01*
G01X100648Y6378D01*
G01X110025Y6378D02*
G01X110419Y6378D01*
G01X110419Y1242D01*
G01X110419Y1260D02*
G01X110419Y866D01*
G01X110025Y866D01*
G01X104907Y866D01*
G01X104907Y1260D01*
G01X104907Y1282D02*
G01X104907Y6378D01*
G01X110023Y6378D01*
G01X5963Y36378D02*
G01X6356Y36378D01*
G01X6356Y31242D01*
G01X6356Y31260D02*
G01X6356Y30866D01*
G01X5963Y30866D01*
G01X845Y30866D01*
G01X845Y31260D01*
G01X845Y31282D02*
G01X845Y36378D01*
G01X5960Y36378D01*
G01X20963Y36378D02*
G01X21357Y36378D01*
G01X21357Y31242D01*
G01X21357Y31260D02*
G01X21357Y30866D01*
G01X20963Y30866D01*
G01X15845Y30866D01*
G01X15845Y31260D01*
G01X15845Y31282D02*
G01X15845Y36378D01*
G01X20961Y36378D01*
G54D32*
G01X109775Y24374D02*
G01X109775Y23998D01*
G01X109775Y23998D02*
G01X109990Y23998D01*
G01X110108Y24374D02*
G01X110108Y23998D01*
G01X110108Y24374D02*
G01X110341Y24374D01*
G01X110108Y24195D02*
G01X110251Y24195D01*
G01X110108Y23998D02*
G01X110341Y23998D01*
G01X110459Y24374D02*
G01X110459Y23998D01*
G01X110459Y24374D02*
G01X110584Y24374D01*
G01X110638Y24356D01*
G01X110674Y24320D01*
G01X110692Y24284D01*
G01X110710Y24231D01*
G01X110710Y24141D01*
G01X110692Y24088D01*
G01X110674Y24052D01*
G01X110638Y24016D01*
G01X110584Y23998D01*
G01X110459Y23998D01*
G01X110828Y24302D02*
G01X110863Y24320D01*
G01X110917Y24374D01*
G01X110917Y23998D01*
G01X111035Y24302D02*
G01X111071Y24320D01*
G01X111125Y24374D01*
G01X111125Y23998D01*
G01X109342Y17906D02*
G01X109342Y17530D01*
G01X109342Y17530D02*
G01X109557Y17530D01*
G01X109675Y17906D02*
G01X109675Y17530D01*
G01X109675Y17906D02*
G01X109908Y17906D01*
G01X109675Y17727D02*
G01X109818Y17727D01*
G01X109675Y17530D02*
G01X109908Y17530D01*
G01X110026Y17906D02*
G01X110026Y17530D01*
G01X110026Y17906D02*
G01X110151Y17906D01*
G01X110205Y17888D01*
G01X110241Y17853D01*
G01X110259Y17817D01*
G01X110277Y17763D01*
G01X110277Y17674D01*
G01X110259Y17620D01*
G01X110241Y17584D01*
G01X110205Y17548D01*
G01X110151Y17530D01*
G01X110026Y17530D01*
G01X110413Y17817D02*
G01X110413Y17835D01*
G01X110430Y17870D01*
G01X110448Y17888D01*
G01X110484Y17906D01*
G01X110556Y17906D01*
G01X110592Y17888D01*
G01X110609Y17870D01*
G01X110627Y17835D01*
G01X110627Y17799D01*
G01X110609Y17763D01*
G01X110574Y17709D01*
G01X110395Y17530D01*
G01X110645Y17530D01*
G01X110763Y17835D02*
G01X110799Y17853D01*
G01X110853Y17906D01*
G01X110853Y17530D01*
G01X109315Y10245D02*
G01X109315Y9869D01*
G01X109315Y9869D02*
G01X109530Y9869D01*
G01X109648Y10245D02*
G01X109648Y9869D01*
G01X109648Y10245D02*
G01X109881Y10245D01*
G01X109648Y10065D02*
G01X109791Y10065D01*
G01X109648Y9869D02*
G01X109881Y9869D01*
G01X109999Y10245D02*
G01X109999Y9869D01*
G01X109999Y10245D02*
G01X110124Y10245D01*
G01X110178Y10226D01*
G01X110214Y10190D01*
G01X110232Y10155D01*
G01X110250Y10101D01*
G01X110250Y10012D01*
G01X110232Y9959D01*
G01X110214Y9923D01*
G01X110178Y9887D01*
G01X110124Y9869D01*
G01X109999Y9869D01*
G01X110403Y10245D02*
G01X110600Y10245D01*
G01X110493Y10101D01*
G01X110547Y10101D01*
G01X110582Y10084D01*
G01X110600Y10065D01*
G01X110618Y10012D01*
G01X110618Y9976D01*
G01X110600Y9923D01*
G01X110565Y9887D01*
G01X110511Y9869D01*
G01X110457Y9869D01*
G01X110403Y9887D01*
G01X110386Y9905D01*
G01X110368Y9940D01*
G01X110736Y10173D02*
G01X110772Y10190D01*
G01X110826Y10245D01*
G01X110826Y9869D01*
G01X7792Y22495D02*
G01X7774Y22531D01*
G01X7738Y22567D01*
G01X7702Y22585D01*
G01X7631Y22585D01*
G01X7595Y22567D01*
G01X7559Y22531D01*
G01X7541Y22495D01*
G01X7523Y22442D01*
G01X7523Y22352D01*
G01X7541Y22299D01*
G01X7559Y22263D01*
G01X7595Y22227D01*
G01X7631Y22209D01*
G01X7702Y22209D01*
G01X7738Y22227D01*
G01X7774Y22263D01*
G01X7792Y22299D01*
G01X8053Y22585D02*
G01X7910Y22209D01*
G01X8053Y22585D02*
G01X8196Y22209D01*
G01X7963Y22334D02*
G01X8142Y22334D01*
G01X8314Y22585D02*
G01X8314Y22209D01*
G01X8314Y22585D02*
G01X8475Y22585D01*
G01X8529Y22567D01*
G01X8547Y22549D01*
G01X8565Y22513D01*
G01X8565Y22460D01*
G01X8547Y22424D01*
G01X8529Y22406D01*
G01X8475Y22388D01*
G01X8314Y22388D01*
G01X8933Y22531D02*
G01X8898Y22567D01*
G01X8844Y22585D01*
G01X8772Y22585D01*
G01X8719Y22567D01*
G01X8683Y22531D01*
G01X8683Y22495D01*
G01X8701Y22460D01*
G01X8719Y22442D01*
G01X8754Y22424D01*
G01X8862Y22388D01*
G01X8898Y22370D01*
G01X8915Y22352D01*
G01X8933Y22316D01*
G01X8933Y22263D01*
G01X8898Y22227D01*
G01X8844Y22209D01*
G01X8772Y22209D01*
G01X8719Y22227D01*
G01X8683Y22263D01*
G01X9051Y22084D02*
G01X9374Y22084D01*
G01X9492Y22585D02*
G01X9492Y22209D01*
G01X9492Y22209D02*
G01X9706Y22209D01*
G01X9825Y22585D02*
G01X9825Y22209D01*
G01X9825Y22585D02*
G01X10057Y22585D01*
G01X9825Y22406D02*
G01X9968Y22406D01*
G01X9825Y22209D02*
G01X10057Y22209D01*
G01X10175Y22585D02*
G01X10175Y22209D01*
G01X10175Y22585D02*
G01X10301Y22585D01*
G01X10354Y22567D01*
G01X10390Y22531D01*
G01X10408Y22495D01*
G01X10426Y22442D01*
G01X10426Y22352D01*
G01X10408Y22299D01*
G01X10390Y22263D01*
G01X10354Y22227D01*
G01X10301Y22209D01*
G01X10175Y22209D01*
G01X2395Y36233D02*
G01X2395Y35857D01*
G01X2395Y35857D02*
G01X2609Y35857D01*
G01X2727Y36233D02*
G01X2727Y35857D01*
G01X2727Y36233D02*
G01X2960Y36233D01*
G01X2727Y36054D02*
G01X2871Y36054D01*
G01X2727Y35857D02*
G01X2960Y35857D01*
G01X3078Y36233D02*
G01X3078Y35857D01*
G01X3078Y36233D02*
G01X3203Y36233D01*
G01X3257Y36215D01*
G01X3293Y36179D01*
G01X3311Y36143D01*
G01X3329Y36090D01*
G01X3329Y36000D01*
G01X3311Y35947D01*
G01X3293Y35911D01*
G01X3257Y35875D01*
G01X3203Y35857D01*
G01X3078Y35857D01*
G01X3626Y36233D02*
G01X3447Y35982D01*
G01X3715Y35982D01*
G01X3626Y36233D02*
G01X3626Y35857D01*
G01X3833Y36161D02*
G01X3869Y36179D01*
G01X3923Y36233D01*
G01X3923Y35857D01*
G54D33*
G01X65467Y5244D02*
G01X65467Y4098D01*
G01X65467Y5244D02*
G01X65958Y5244D01*
G01X66121Y5188D01*
G01X66176Y5135D01*
G01X66230Y5025D01*
G01X66230Y4915D01*
G01X66176Y4807D01*
G01X66121Y4752D01*
G01X65958Y4698D01*
G01X65467Y4698D02*
G01X65958Y4698D01*
G01X66121Y4644D01*
G01X66176Y4588D01*
G01X66230Y4480D01*
G01X66230Y4315D01*
G01X66176Y4207D01*
G01X66121Y4152D01*
G01X65958Y4098D01*
G01X65467Y4098D01*
G01X66590Y5244D02*
G01X66590Y4098D01*
G01X66590Y4098D02*
G01X67245Y4098D01*
G01X67605Y5244D02*
G01X67605Y4098D01*
G01X67605Y5244D02*
G01X68314Y5244D01*
G01X67605Y4698D02*
G01X68041Y4698D01*
G01X67605Y4098D02*
G01X68314Y4098D01*
G01X69329Y5080D02*
G01X69274Y5188D01*
G01X69110Y5244D01*
G01X69001Y5244D01*
G01X68838Y5188D01*
G01X68729Y5025D01*
G01X68674Y4752D01*
G01X68674Y4480D01*
G01X68729Y4262D01*
G01X68838Y4152D01*
G01X69001Y4098D01*
G01X69056Y4098D01*
G01X69220Y4152D01*
G01X69329Y4262D01*
G01X69383Y4425D01*
G01X69383Y4480D01*
G01X69329Y4644D01*
G01X69220Y4752D01*
G01X69056Y4807D01*
G01X69001Y4807D01*
G01X68838Y4752D01*
G01X68729Y4644D01*
G01X68674Y4480D01*
G01X70070Y5244D02*
G01X69907Y5188D01*
G01X69798Y5025D01*
G01X69743Y4752D01*
G01X69743Y4588D01*
G01X69798Y4315D01*
G01X69907Y4152D01*
G01X70070Y4098D01*
G01X70180Y4098D01*
G01X70343Y4152D01*
G01X70452Y4315D01*
G01X70507Y4588D01*
G01X70507Y4752D01*
G01X70452Y5025D01*
G01X70343Y5188D01*
G01X70180Y5244D01*
G01X70070Y5244D01*

%LPD*%
G36*
G01X64130Y4807D02*
G01X63238Y4807D01*
G01X63238Y4652D01*
G01X63244Y4561D01*
G01X63266Y4516D01*
G01X63313Y4498D01*
G01X63353Y4493D01*
G01X63453Y4487D01*
G01X63590Y4482D01*
G01X63745Y4479D01*
G01X63750Y4478D01*
G01X63909Y4478D01*
G01X64014Y4481D01*
G01X64078Y4491D01*
G01X64115Y4509D01*
G01X64137Y4538D01*
G01X64154Y4610D01*
G01X64150Y4705D01*
G01X64130Y4807D01*
G37*

%LPD*%
G36*
G01X63715Y5507D02*
G01X63238Y5507D01*
G01X63238Y5181D01*
G01X63730Y5168D01*
G01X63818Y5165D01*
G01X64024Y5155D01*
G01X64178Y5138D01*
G01X64292Y5110D01*
G01X64378Y5069D01*
G01X64447Y5011D01*
G01X64511Y4933D01*
G01X64567Y4809D01*
G01X64589Y4657D01*
G01X64573Y4507D01*
G01X64518Y4384D01*
G01X64466Y4319D01*
G01X64405Y4255D01*
G01X64336Y4210D01*
G01X64248Y4181D01*
G01X64130Y4163D01*
G01X63968Y4153D01*
G01X63752Y4147D01*
G01X63238Y4136D01*
G01X63238Y3994D01*
G01X63239Y3959D01*
G01X63247Y3874D01*
G01X63260Y3830D01*
G01X63275Y3825D01*
G01X63347Y3818D01*
G01X63467Y3812D01*
G01X63622Y3809D01*
G01X63802Y3808D01*
G01X63837Y3808D01*
G01X64029Y3809D01*
G01X64170Y3813D01*
G01X64273Y3821D01*
G01X64352Y3835D01*
G01X64419Y3857D01*
G01X64488Y3887D01*
G01X64510Y3898D01*
G01X64711Y4030D01*
G01X64855Y4197D01*
G01X64942Y4399D01*
G01X64971Y4633D01*
G01X64947Y4828D01*
G01X64865Y5038D01*
G01X64734Y5220D01*
G01X64562Y5364D01*
G01X64358Y5458D01*
G01X64329Y5466D01*
G01X64184Y5489D01*
G01X63981Y5503D01*
G01X63715Y5507D01*
G37*

%LPD*%
G36*
G01X63012Y5507D02*
G01X62841Y5507D01*
G01X62403Y5094D01*
G01X62273Y4971D01*
G01X62149Y4852D01*
G01X62050Y4755D01*
G01X61985Y4689D01*
G01X61960Y4661D01*
G01X61980Y4635D01*
G01X62041Y4571D01*
G01X62137Y4476D01*
G01X62259Y4358D01*
G01X62400Y4225D01*
G01X62846Y3807D01*
G01X63187Y3807D01*
G01X62792Y4203D01*
G01X62698Y4299D01*
G01X62575Y4426D01*
G01X62491Y4520D01*
G01X62441Y4587D01*
G01X62419Y4634D01*
G01X62420Y4668D01*
G01X62421Y4671D01*
G01X62457Y4723D01*
G01X62532Y4806D01*
G01X62635Y4911D01*
G01X62756Y5026D01*
G01X62773Y5042D01*
G01X62890Y5152D01*
G01X62985Y5247D01*
G01X63048Y5316D01*
G01X63071Y5350D01*
G01X63084Y5386D01*
G01X63127Y5446D01*
G01X63151Y5475D01*
G01X63152Y5497D01*
G01X63110Y5506D01*
G01X63012Y5507D01*
G37*

%LPD*%
G36*
G01X61824Y4774D02*
G01X60971Y4774D01*
G01X60971Y4628D01*
G01X60972Y4587D01*
G01X60980Y4515D01*
G01X61011Y4480D01*
G01X61076Y4461D01*
G01X61107Y4456D01*
G01X61220Y4445D01*
G01X61342Y4441D01*
G01X61505Y4441D01*
G01X61505Y3774D01*
G01X61729Y3774D01*
G01X61786Y3780D01*
G01X61825Y3802D01*
G01X61850Y3851D01*
G01X61864Y3935D01*
G01X61874Y4066D01*
G01X61882Y4253D01*
G01X61884Y4306D01*
G01X61884Y4467D01*
G01X61876Y4597D01*
G01X61860Y4678D01*
G01X61824Y4774D01*
G37*

%LPD*%
G36*
G01X61856Y5360D02*
G01X61834Y5480D01*
G01X61294Y5468D01*
G01X61135Y5465D01*
G01X60975Y5460D01*
G01X60859Y5452D01*
G01X60774Y5440D01*
G01X60707Y5422D01*
G01X60645Y5395D01*
G01X60577Y5359D01*
G01X60474Y5292D01*
G01X60317Y5138D01*
G01X60210Y4957D01*
G01X60154Y4758D01*
G01X60148Y4553D01*
G01X60191Y4352D01*
G01X60284Y4165D01*
G01X60426Y4002D01*
G01X60616Y3874D01*
G01X60726Y3823D01*
G01X60826Y3792D01*
G01X60938Y3777D01*
G01X61088Y3774D01*
G01X61161Y3774D01*
G01X61271Y3778D01*
G01X61336Y3789D01*
G01X61372Y3811D01*
G01X61394Y3848D01*
G01X61408Y3896D01*
G01X61392Y4014D01*
G01X61387Y4026D01*
G01X61364Y4072D01*
G01X61326Y4096D01*
G01X61257Y4106D01*
G01X61139Y4107D01*
G01X61055Y4110D01*
G01X60867Y4144D01*
G01X60723Y4219D01*
G01X60611Y4341D01*
G01X60600Y4357D01*
G01X60547Y4505D01*
G01X60546Y4667D01*
G01X60594Y4825D01*
G01X60685Y4962D01*
G01X60815Y5063D01*
G01X60817Y5063D01*
G01X60891Y5089D01*
G01X61003Y5109D01*
G01X61164Y5123D01*
G01X61382Y5134D01*
G01X61529Y5139D01*
G01X61681Y5148D01*
G01X61782Y5163D01*
G01X61841Y5187D01*
G01X61867Y5225D01*
G01X61869Y5281D01*
G01X61856Y5360D01*
G37*
M00*
M02*
