;Layer: Drill PTH
;EasyEDA v6.1.51, Wed, 19 Jun 2019 13:06:47 GMT
;66271e87440c4271b6eaadeb73023992,1972fb780e03461d8e8e980d21b9fed7,00
;Gerber Generator version 0.2
M48
INCH,LZ,00.0000
;Holesize 1 = 0.016 INCH
T01C0.016
;Holesize 2 = 0.024 INCH
T02C0.024
;Holesize 3 = 0.026 INCH
T03C0.026
;Holesize 4 = 0.032 INCH
T04C0.032
;Holesize 5 = 0.035 INCH
T05C0.035
;Holesize 6 = 0.039 INCH
T06C0.039
;Holesize 7 = 0.051 INCH
T07C0.051
%
G05
G90
T01
X+002906Y+021720
X+111255Y+016388
X+027966Y+007033
X+008749Y+030270
X+013305Y+010081
X+002518Y+016189
X+012737Y+019739
X+010075Y+015168
X+014877Y+015020
X+043474Y+001447
X+053990Y+007137
X+042102Y+005261
X+027398Y+003845
X+005171Y+007019
X+007890Y+014246
X+039474Y+001255
X+014068Y+032643
X+039212Y+002986
X+020768Y+008465
X+026317Y+006167
X+041407Y+001530
X+039087Y+005426
X+033201Y+010065
X+039782Y+005688
X+038232Y+011947
X+037672Y+006902
X+037564Y+005999
X+044341Y+007132
X+041992Y+007603
X+069342Y+008291
X+041323Y+007413
X+084101Y+008745
X+098236Y+006914
X+053021Y+006318
X+043635Y+004936
X+098430Y+009028
X+053071Y+007567
X+041266Y+005391
X+029491Y+014961
X+091136Y+031637
X+083636Y+031637
X+076136Y+031637
X+068636Y+031637
X+061137Y+031637
X+053637Y+031637
X+046137Y+031637
X+038637Y+031637
X+031137Y+031637
X+023636Y+031637
X+016136Y+031637
X+008636Y+031637
X+102349Y+031607
X+001136Y+031637
X+037290Y+007386
X+039447Y+003495
X+094860Y+024108
X+087360Y+024108
X+079860Y+024108
X+072360Y+024108
X+064861Y+024108
X+057361Y+024108
X+049861Y+024108
X+042361Y+024108
X+034861Y+024108
X+027361Y+024108
X+019861Y+024108
X+003011Y+024109
X+012360Y+024108
X+104237Y+024144
X+041927Y+001413
X+040112Y+004532
X+089257Y+016627
X+081757Y+016627
X+074257Y+016627
X+066757Y+016627
X+059257Y+016627
X+051757Y+016627
X+044257Y+016627
X+036757Y+016627
X+029257Y+016627
X+021757Y+016627
X+101434Y+016606
X+014258Y+016627
X+003927Y+016644
X+038321Y+005109
X+085477Y+009110
X+077977Y+009110
X+070477Y+009110
X+062977Y+009110
X+055477Y+009110
X+047977Y+009110
X+040477Y+009110
X+032978Y+009110
X+025478Y+009110
X+005789Y+009107
X+017978Y+009110
X+099553Y+009140
X+081036Y+014029
X+036469Y+002085
X+002082Y+001589
X+020836Y+001637
X+011435Y+001620
X+048919Y+001633
X+077057Y+001642
X+086461Y+001649
X+095814Y+001632
X+105187Y+001631
X+030113Y+006204
X+012209Y+006881
X+031646Y+008750
X+011219Y+011479
X+047837Y+025122
X+006548Y+032641
X+021568Y+032643
X+029068Y+032643
X+036568Y+032643
X+044068Y+032643
X+051568Y+032643
X+059068Y+032643
X+066568Y+032643
X+074068Y+032643
X+081568Y+032643
X+089068Y+032643
X+096568Y+032643
X+107831Y+032637
X+008453Y+025153
X+017837Y+025122
X+025337Y+025122
X+032837Y+025122
X+040337Y+025122
X+055337Y+025122
X+062837Y+025122
X+070337Y+025122
X+077837Y+025122
X+085337Y+025122
X+092837Y+025122
X+100337Y+025122
X+109712Y+025141
X+009367Y+017630
X+019698Y+017604
X+027198Y+017604
X+034698Y+017604
X+042198Y+017604
X+049698Y+017604
X+057198Y+017604
X+064698Y+017604
X+072198Y+017604
X+079698Y+017604
X+087198Y+017604
X+094698Y+017604
X+106896Y+017602
X+011271Y+010133
X+023449Y+010087
X+030950Y+010087
X+038450Y+010087
X+045950Y+010087
X+053450Y+010087
X+060949Y+010087
X+068449Y+010087
X+075949Y+010087
X+083449Y+010087
X+090949Y+010087
X+105009Y+010123
X+007516Y+002572
X+016885Y+002605
X+026253Y+002635
X+054390Y+002640
X+082520Y+002627
X+091905Y+002627
X+101262Y+002635
X+110621Y+002593
X+032338Y+021398
X+016539Y+007595
X+026585Y+007376
X+016867Y+007267
X+026256Y+007048
X+036689Y+005064
X+017643Y+007013
X+043315Y+007438
X+105777Y+011086
X+078163Y+015182
X+037678Y+000546
X+038293Y+001572
X+027305Y+006061
X+024475Y+028574
X+005281Y+022358
X+111499Y+026464
X+111499Y+018748
X+111499Y+011070
X+002465Y+036767
T02
X+005478Y+034929G85X+005478Y+035362
X+008879Y+034929G85X+008879Y+035362
X+005478Y+036673G85X+005478Y+036909
X+008879Y+036673G85X+008879Y+036909
T03
X+017401Y+029578G85X+017401Y+029578
X+017401Y+029086G85X+017401Y+029086
T04
X+028022Y+001669G85X+028022Y+001671
X+028022Y+000670G85X+028022Y+000672
T05
X+000925Y+026818G85X+000925Y+026818
X+000925Y+027818G85X+000925Y+027818
X+000925Y+028818G85X+000925Y+028818
X+000926Y+025818G85X+000925Y+025818
X+110830Y+028866G85X+110830Y+028866
X+110830Y+021110G85X+110830Y+021110
X+110830Y+013354G85X+110830Y+013354
X+000926Y+029818G85X+000925Y+029818
X+000926Y+024818G85X+000925Y+024818
T06
X+056519Y+002303G85X+056519Y+002303
X+056519Y+003303G85X+056519Y+003303
X+056519Y+004303G85X+056519Y+004303
X+056519Y+005303G85X+056519Y+005303
X+025737Y+029026G85X+025737Y+029026
X+025737Y+030026G85X+025737Y+030026
T07
X+039600Y+034622G85X+039602Y+034622
X+042100Y+035622G85X+042102Y+035622
X+105224Y+027122G85X+105226Y+027122
X+107724Y+028122G85X+107726Y+028122
X+009599Y+034622G85X+009602Y+034622
X+012099Y+035622G85X+012102Y+035622
X+024600Y+034622G85X+024602Y+034622
X+027100Y+035622G85X+027102Y+035622
X+032100Y+034622G85X+032102Y+034622
X+034600Y+035622G85X+034602Y+035622
X+047100Y+034622G85X+047102Y+034622
X+049600Y+035622G85X+049602Y+035622
X+054600Y+034622G85X+054602Y+034622
X+057100Y+035622G85X+057102Y+035622
X+062100Y+034622G85X+062102Y+034622
X+064600Y+035622G85X+064602Y+035622
X+069600Y+034622G85X+069602Y+034622
X+072100Y+035622G85X+072102Y+035622
X+077100Y+034622G85X+077102Y+034622
X+079600Y+035622G85X+079602Y+035622
X+084600Y+034622G85X+084602Y+034622
X+087100Y+035622G85X+087102Y+035622
X+092100Y+034622G85X+092102Y+034622
X+094600Y+035622G85X+094602Y+035622
X+103349Y+034622G85X+103351Y+034622
X+105849Y+035622G85X+105851Y+035622
X+003974Y+027122G85X+003977Y+027122
X+006474Y+028122G85X+006477Y+028122
X+013349Y+027122G85X+013351Y+027122
X+015849Y+028122G85X+015851Y+028122
X+020849Y+027122G85X+020851Y+027122
X+023349Y+028122G85X+023351Y+028122
X+028349Y+027122G85X+028351Y+027122
X+030849Y+028122G85X+030851Y+028122
X+035849Y+027122G85X+035851Y+027122
X+038349Y+028122G85X+038351Y+028122
X+043349Y+027122G85X+043351Y+027122
X+045849Y+028122G85X+045851Y+028122
X+050849Y+027122G85X+050851Y+027122
X+053349Y+028122G85X+053351Y+028122
X+058349Y+027122G85X+058351Y+027122
X+060849Y+028122G85X+060851Y+028122
X+065849Y+027122G85X+065851Y+027122
X+068349Y+028122G85X+068351Y+028122
X+073349Y+027122G85X+073351Y+027122
X+075849Y+028122G85X+075851Y+028122
X+080849Y+027122G85X+080851Y+027122
X+083349Y+028122G85X+083351Y+028122
X+088349Y+027122G85X+088351Y+027122
X+090849Y+028122G85X+090851Y+028122
X+095849Y+027122G85X+095851Y+027122
X+098349Y+028122G85X+098351Y+028122
X+004912Y+019622G85X+004914Y+019622
X+007412Y+020622G85X+007414Y+020622
X+015224Y+019622G85X+015227Y+019622
X+017724Y+020622G85X+017727Y+020622
X+022724Y+019622G85X+022727Y+019622
X+025224Y+020622G85X+025227Y+020622
X+030225Y+019622G85X+030227Y+019622
X+032725Y+020622G85X+032727Y+020622
X+037725Y+019622G85X+037727Y+019622
X+040225Y+020622G85X+040227Y+020622
X+045225Y+019622G85X+045227Y+019622
X+047725Y+020622G85X+047727Y+020622
X+052724Y+019622G85X+052726Y+019622
X+055224Y+020622G85X+055226Y+020622
X+060224Y+019622G85X+060226Y+019622
X+062724Y+020622G85X+062726Y+020622
X+067724Y+019622G85X+067726Y+019622
X+070224Y+020622G85X+070226Y+020622
X+075224Y+019622G85X+075226Y+019622
X+077724Y+020622G85X+077726Y+020622
X+082724Y+019622G85X+082726Y+019622
X+085224Y+020622G85X+085226Y+020622
X+090224Y+019622G85X+090226Y+019622
X+092724Y+020622G85X+092726Y+020622
X+102412Y+019622G85X+102414Y+019622
X+104912Y+020622G85X+104914Y+020622
X+006787Y+012122G85X+006789Y+012122
X+009287Y+013122G85X+009289Y+013122
X+018974Y+012122G85X+018977Y+012122
X+021474Y+013122G85X+021477Y+013122
X+026475Y+012122G85X+026477Y+012122
X+028975Y+013122G85X+028977Y+013122
X+033975Y+012122G85X+033977Y+012122
X+036475Y+013122G85X+036477Y+013122
X+041475Y+012122G85X+041477Y+012122
X+043975Y+013122G85X+043977Y+013122
X+048975Y+012122G85X+048977Y+012122
X+051474Y+013122G85X+051476Y+013122
X+056474Y+012122G85X+056476Y+012122
X+058974Y+013122G85X+058976Y+013122
X+063974Y+012122G85X+063976Y+012122
X+066474Y+013122G85X+066476Y+013122
X+071474Y+012122G85X+071476Y+012122
X+073974Y+013122G85X+073976Y+013122
X+078974Y+012122G85X+078976Y+012122
X+081474Y+013122G85X+081476Y+013122
X+086474Y+012122G85X+086476Y+012122
X+088974Y+013122G85X+088976Y+013122
X+100537Y+012122G85X+100539Y+012122
X+103037Y+013122G85X+103039Y+013122
X+003037Y+004622G85X+003039Y+004622
X+005537Y+005622G85X+005539Y+005622
X+012412Y+004622G85X+012414Y+004622
X+014912Y+005622G85X+014914Y+005622
X+021787Y+004622G85X+021789Y+004622
X+024287Y+005622G85X+024289Y+005622
X+049912Y+004622G85X+049914Y+004622
X+052412Y+005622G85X+052414Y+005622
X+078037Y+004622G85X+078039Y+004622
X+080537Y+005622G85X+080539Y+005622
X+087412Y+004622G85X+087414Y+004622
X+089912Y+005622G85X+089914Y+005622
X+096787Y+004622G85X+096789Y+004622
X+099287Y+005622G85X+099289Y+005622
X+106162Y+004622G85X+106164Y+004622
X+108662Y+005622G85X+108664Y+005622
X+002099Y+034622G85X+002102Y+034622
X+004599Y+035622G85X+004602Y+035622
X+017100Y+034622G85X+017102Y+034622
X+019600Y+035622G85X+019602Y+035622
M30
