G04 Layer: BottomPasteMaskLayer*
G04 EasyEDA v6.1.51, Wed, 19 Jun 2019 13:06:47 GMT*
G04 66271e87440c4271b6eaadeb73023992,1972fb780e03461d8e8e980d21b9fed7,00*
G04 Gerber Generator version 0.2*
G04 Scale: 100 percent, Rotated: No, Reflected: No *
G04 Dimensions in inches *
G04 leading zeros omitted , absolute positions ,2 integer and 4 decimal *
%FSLAX24Y24*%
%MOIN*%
G90*
G70D02*

%ADD26R,0.078740X0.031500*%
%ADD27R,0.049210X0.039370*%
%ADD29R,0.100390X0.098420*%

%LPD*%
G36*
G01X14397Y9566D02*
G01X14397Y9822D01*
G01X14849Y9822D01*
G01X14849Y9566D01*
G01X14397Y9566D01*
G37*
G36*
G01X15558Y9192D02*
G01X15558Y9448D01*
G01X16011Y9448D01*
G01X16011Y9192D01*
G01X15558Y9192D01*
G37*
G36*
G01X15558Y9940D02*
G01X15558Y10196D01*
G01X16011Y10196D01*
G01X16011Y9940D01*
G01X15558Y9940D01*
G37*
G36*
G01X3593Y37089D02*
G01X4050Y37089D01*
G01X4050Y36510D01*
G01X3593Y36510D01*
G01X3593Y37089D01*
G37*
G36*
G01X2892Y37089D02*
G01X3349Y37089D01*
G01X3349Y36510D01*
G01X2892Y36510D01*
G01X2892Y37089D01*
G37*
G36*
G01X111782Y9844D02*
G01X111782Y9387D01*
G01X111203Y9387D01*
G01X111203Y9844D01*
G01X111782Y9844D01*
G37*
G36*
G01X111782Y10544D02*
G01X111782Y10088D01*
G01X111203Y10088D01*
G01X111203Y10544D01*
G01X111782Y10544D01*
G37*
G36*
G01X111782Y18258D02*
G01X111782Y17801D01*
G01X111203Y17801D01*
G01X111203Y18258D01*
G01X111782Y18258D01*
G37*
G36*
G01X111782Y17557D02*
G01X111782Y17100D01*
G01X111203Y17100D01*
G01X111203Y17557D01*
G01X111782Y17557D01*
G37*
G36*
G01X111782Y25271D02*
G01X111782Y24814D01*
G01X111203Y24814D01*
G01X111203Y25271D01*
G01X111782Y25271D01*
G37*
G36*
G01X111782Y25971D02*
G01X111782Y25515D01*
G01X111203Y25515D01*
G01X111203Y25971D01*
G01X111782Y25971D01*
G37*
G36*
G01X111203Y11476D02*
G01X111203Y11933D01*
G01X111782Y11933D01*
G01X111782Y11476D01*
G01X111203Y11476D01*
G37*
G36*
G01X111203Y12177D02*
G01X111203Y12633D01*
G01X111782Y12633D01*
G01X111782Y12177D01*
G01X111203Y12177D01*
G37*
G36*
G01X111210Y19193D02*
G01X111210Y19649D01*
G01X111788Y19649D01*
G01X111788Y19193D01*
G01X111210Y19193D01*
G37*
G36*
G01X111210Y19893D02*
G01X111210Y20350D01*
G01X111788Y20350D01*
G01X111788Y19893D01*
G01X111210Y19893D01*
G37*
G36*
G01X111203Y27649D02*
G01X111203Y28106D01*
G01X111782Y28106D01*
G01X111782Y27649D01*
G01X111203Y27649D01*
G37*
G36*
G01X111203Y26948D02*
G01X111203Y27405D01*
G01X111782Y27405D01*
G01X111782Y26948D01*
G01X111203Y26948D01*
G37*
G36*
G01X8330Y35071D02*
G01X8566Y35071D01*
G01X8566Y34106D01*
G01X8330Y34106D01*
G01X8330Y35071D01*
G37*
G36*
G01X5791Y35071D02*
G01X6027Y35071D01*
G01X6027Y34106D01*
G01X5791Y34106D01*
G01X5791Y35071D01*
G37*
G36*
G01X8025Y35071D02*
G01X8261Y35071D01*
G01X8261Y34106D01*
G01X8025Y34106D01*
G01X8025Y35071D01*
G37*
G36*
G01X6096Y35071D02*
G01X6332Y35071D01*
G01X6332Y34106D01*
G01X6096Y34106D01*
G01X6096Y35071D01*
G37*
G36*
G01X6431Y35071D02*
G01X6549Y35071D01*
G01X6549Y34106D01*
G01X6431Y34106D01*
G01X6431Y35071D01*
G37*
G36*
G01X7809Y35071D02*
G01X7927Y35071D01*
G01X7927Y34106D01*
G01X7809Y34106D01*
G01X7809Y35071D01*
G37*
G36*
G01X6628Y35071D02*
G01X6746Y35071D01*
G01X6746Y34106D01*
G01X6628Y34106D01*
G01X6628Y35071D01*
G37*
G36*
G01X7612Y35071D02*
G01X7730Y35071D01*
G01X7730Y34106D01*
G01X7612Y34106D01*
G01X7612Y35071D01*
G37*
G36*
G01X6824Y35071D02*
G01X6942Y35071D01*
G01X6942Y34106D01*
G01X6824Y34106D01*
G01X6824Y35071D01*
G37*
G36*
G01X7415Y35071D02*
G01X7533Y35071D01*
G01X7533Y34106D01*
G01X7415Y34106D01*
G01X7415Y35071D01*
G37*
G36*
G01X7218Y35071D02*
G01X7336Y35071D01*
G01X7336Y34106D01*
G01X7218Y34106D01*
G01X7218Y35071D01*
G37*
G36*
G01X7021Y35071D02*
G01X7139Y35071D01*
G01X7139Y34106D01*
G01X7021Y34106D01*
G01X7021Y35071D01*
G37*
G36*
G01X43817Y6087D02*
G01X43817Y6875D01*
G01X44132Y6875D01*
G01X44132Y6087D01*
G01X43817Y6087D01*
G37*
G36*
G01X43317Y6087D02*
G01X43317Y6875D01*
G01X43632Y6875D01*
G01X43632Y6087D01*
G01X43317Y6087D01*
G37*
G36*
G01X42817Y6087D02*
G01X42817Y6875D01*
G01X43132Y6875D01*
G01X43132Y6087D01*
G01X42817Y6087D01*
G37*
G36*
G01X42317Y6087D02*
G01X42317Y6875D01*
G01X42632Y6875D01*
G01X42632Y6087D01*
G01X42317Y6087D01*
G37*
G36*
G01X41817Y6087D02*
G01X41817Y6875D01*
G01X42132Y6875D01*
G01X42132Y6087D01*
G01X41817Y6087D01*
G37*
G36*
G01X41317Y6087D02*
G01X41317Y6875D01*
G01X41632Y6875D01*
G01X41632Y6087D01*
G01X41317Y6087D01*
G37*
G36*
G01X40817Y6087D02*
G01X40817Y6875D01*
G01X41132Y6875D01*
G01X41132Y6087D01*
G01X40817Y6087D01*
G37*
G36*
G01X40317Y6087D02*
G01X40317Y6875D01*
G01X40632Y6875D01*
G01X40632Y6087D01*
G01X40317Y6087D01*
G37*
G36*
G01X39817Y6087D02*
G01X39817Y6875D01*
G01X40132Y6875D01*
G01X40132Y6087D01*
G01X39817Y6087D01*
G37*
G36*
G01X39317Y6087D02*
G01X39317Y6875D01*
G01X39632Y6875D01*
G01X39632Y6087D01*
G01X39317Y6087D01*
G37*
G36*
G01X38817Y6087D02*
G01X38817Y6875D01*
G01X39132Y6875D01*
G01X39132Y6087D01*
G01X38817Y6087D01*
G37*
G36*
G01X38317Y6087D02*
G01X38317Y6875D01*
G01X38632Y6875D01*
G01X38632Y6087D01*
G01X38317Y6087D01*
G37*
G54D26*
G01X37514Y5528D03*
G01X37514Y5028D03*
G01X37514Y4528D03*
G01X37514Y4028D03*
G01X37514Y3528D03*
G01X37514Y3028D03*
G01X37514Y2528D03*
G01X37514Y2028D03*
G36*
G01X38317Y182D02*
G01X38317Y969D01*
G01X38632Y969D01*
G01X38632Y182D01*
G01X38317Y182D01*
G37*
G36*
G01X38817Y182D02*
G01X38817Y969D01*
G01X39132Y969D01*
G01X39132Y182D01*
G01X38817Y182D01*
G37*
G36*
G01X39317Y182D02*
G01X39317Y969D01*
G01X39632Y969D01*
G01X39632Y182D01*
G01X39317Y182D01*
G37*
G36*
G01X39817Y182D02*
G01X39817Y969D01*
G01X40132Y969D01*
G01X40132Y182D01*
G01X39817Y182D01*
G37*
G36*
G01X40317Y182D02*
G01X40317Y969D01*
G01X40632Y969D01*
G01X40632Y182D01*
G01X40317Y182D01*
G37*
G36*
G01X40817Y182D02*
G01X40817Y969D01*
G01X41132Y969D01*
G01X41132Y182D01*
G01X40817Y182D01*
G37*
G36*
G01X41317Y182D02*
G01X41317Y969D01*
G01X41632Y969D01*
G01X41632Y182D01*
G01X41317Y182D01*
G37*
G36*
G01X41817Y182D02*
G01X41817Y969D01*
G01X42132Y969D01*
G01X42132Y182D01*
G01X41817Y182D01*
G37*
G36*
G01X42317Y182D02*
G01X42317Y969D01*
G01X42632Y969D01*
G01X42632Y182D01*
G01X42317Y182D01*
G37*
G36*
G01X42817Y182D02*
G01X42817Y969D01*
G01X43132Y969D01*
G01X43132Y182D01*
G01X42817Y182D01*
G37*
G36*
G01X43317Y182D02*
G01X43317Y969D01*
G01X43632Y969D01*
G01X43632Y182D01*
G01X43317Y182D01*
G37*
G36*
G01X43817Y182D02*
G01X43817Y969D01*
G01X44132Y969D01*
G01X44132Y182D01*
G01X43817Y182D01*
G37*
G01X37514Y1528D03*
G36*
G01X28333Y7046D02*
G01X28789Y7046D01*
G01X28789Y6467D01*
G01X28333Y6467D01*
G01X28333Y7046D01*
G37*
G36*
G01X29033Y7046D02*
G01X29490Y7046D01*
G01X29490Y6467D01*
G01X29033Y6467D01*
G01X29033Y7046D01*
G37*
G36*
G01X28333Y6092D02*
G01X28789Y6092D01*
G01X28789Y5513D01*
G01X28333Y5513D01*
G01X28333Y6092D01*
G37*
G36*
G01X29033Y6092D02*
G01X29490Y6092D01*
G01X29490Y5513D01*
G01X29033Y5513D01*
G01X29033Y6092D01*
G37*
G36*
G01X29548Y1935D02*
G01X29548Y1478D01*
G01X28969Y1478D01*
G01X28969Y1935D01*
G01X29548Y1935D01*
G37*
G36*
G01X29548Y1234D02*
G01X29548Y777D01*
G01X28969Y777D01*
G01X28969Y1234D01*
G01X29548Y1234D01*
G37*
G36*
G01X1344Y20233D02*
G01X1801Y20233D01*
G01X1801Y19654D01*
G01X1344Y19654D01*
G01X1344Y20233D01*
G37*
G36*
G01X2045Y20233D02*
G01X2501Y20233D01*
G01X2501Y19654D01*
G01X2045Y19654D01*
G01X2045Y20233D01*
G37*
G36*
G01X14625Y11117D02*
G01X15082Y11117D01*
G01X15082Y10538D01*
G01X14625Y10538D01*
G01X14625Y11117D01*
G37*
G36*
G01X15326Y11117D02*
G01X15783Y11117D01*
G01X15783Y10538D01*
G01X15326Y10538D01*
G01X15326Y11117D01*
G37*
G36*
G01X15783Y8232D02*
G01X15326Y8232D01*
G01X15326Y8811D01*
G01X15783Y8811D01*
G01X15783Y8232D01*
G37*
G36*
G01X15082Y8232D02*
G01X14625Y8232D01*
G01X14625Y8811D01*
G01X15082Y8811D01*
G01X15082Y8232D01*
G37*
G36*
G01X15783Y13382D02*
G01X15326Y13382D01*
G01X15326Y13961D01*
G01X15783Y13961D01*
G01X15783Y13382D01*
G37*
G36*
G01X15082Y13382D02*
G01X14625Y13382D01*
G01X14625Y13961D01*
G01X15082Y13961D01*
G01X15082Y13382D01*
G37*
G36*
G01X1344Y17203D02*
G01X1801Y17203D01*
G01X1801Y16624D01*
G01X1344Y16624D01*
G01X1344Y17203D01*
G37*
G36*
G01X2045Y17203D02*
G01X2501Y17203D01*
G01X2501Y16624D01*
G01X2045Y16624D01*
G01X2045Y17203D01*
G37*
G36*
G01X3794Y35749D02*
G01X3302Y35749D01*
G01X3302Y36142D01*
G01X3794Y36142D01*
G01X3794Y35749D01*
G37*
G36*
G01X2633Y35749D02*
G01X2141Y35749D01*
G01X2141Y36142D01*
G01X2633Y36142D01*
G01X2633Y35749D01*
G37*
G36*
G01X11296Y35749D02*
G01X10804Y35749D01*
G01X10804Y36142D01*
G01X11296Y36142D01*
G01X11296Y35749D01*
G37*
G36*
G01X10135Y35749D02*
G01X9643Y35749D01*
G01X9643Y36142D01*
G01X10135Y36142D01*
G01X10135Y35749D01*
G37*
G36*
G01X18798Y35749D02*
G01X18306Y35749D01*
G01X18306Y36142D01*
G01X18798Y36142D01*
G01X18798Y35749D01*
G37*
G36*
G01X17637Y35749D02*
G01X17145Y35749D01*
G01X17145Y36142D01*
G01X17637Y36142D01*
G01X17637Y35749D01*
G37*
G36*
G01X26300Y35749D02*
G01X25808Y35749D01*
G01X25808Y36142D01*
G01X26300Y36142D01*
G01X26300Y35749D01*
G37*
G36*
G01X25139Y35749D02*
G01X24647Y35749D01*
G01X24647Y36142D01*
G01X25139Y36142D01*
G01X25139Y35749D01*
G37*
G36*
G01X33802Y35749D02*
G01X33310Y35749D01*
G01X33310Y36142D01*
G01X33802Y36142D01*
G01X33802Y35749D01*
G37*
G36*
G01X32641Y35749D02*
G01X32149Y35749D01*
G01X32149Y36142D01*
G01X32641Y36142D01*
G01X32641Y35749D01*
G37*
G36*
G01X41304Y35749D02*
G01X40812Y35749D01*
G01X40812Y36142D01*
G01X41304Y36142D01*
G01X41304Y35749D01*
G37*
G36*
G01X40143Y35749D02*
G01X39651Y35749D01*
G01X39651Y36142D01*
G01X40143Y36142D01*
G01X40143Y35749D01*
G37*
G36*
G01X48807Y35749D02*
G01X48314Y35749D01*
G01X48314Y36142D01*
G01X48807Y36142D01*
G01X48807Y35749D01*
G37*
G36*
G01X47645Y35749D02*
G01X47153Y35749D01*
G01X47153Y36142D01*
G01X47645Y36142D01*
G01X47645Y35749D01*
G37*
G36*
G01X56308Y35749D02*
G01X55816Y35749D01*
G01X55816Y36142D01*
G01X56308Y36142D01*
G01X56308Y35749D01*
G37*
G36*
G01X55147Y35749D02*
G01X54655Y35749D01*
G01X54655Y36142D01*
G01X55147Y36142D01*
G01X55147Y35749D01*
G37*
G36*
G01X63810Y35749D02*
G01X63318Y35749D01*
G01X63318Y36142D01*
G01X63810Y36142D01*
G01X63810Y35749D01*
G37*
G36*
G01X62649Y35749D02*
G01X62157Y35749D01*
G01X62157Y36142D01*
G01X62649Y36142D01*
G01X62649Y35749D01*
G37*
G36*
G01X71313Y35749D02*
G01X70821Y35749D01*
G01X70821Y36142D01*
G01X71313Y36142D01*
G01X71313Y35749D01*
G37*
G36*
G01X70151Y35749D02*
G01X69659Y35749D01*
G01X69659Y36142D01*
G01X70151Y36142D01*
G01X70151Y35749D01*
G37*
G36*
G01X78815Y35749D02*
G01X78323Y35749D01*
G01X78323Y36142D01*
G01X78815Y36142D01*
G01X78815Y35749D01*
G37*
G36*
G01X77653Y35749D02*
G01X77161Y35749D01*
G01X77161Y36142D01*
G01X77653Y36142D01*
G01X77653Y35749D01*
G37*
G36*
G01X86317Y35749D02*
G01X85825Y35749D01*
G01X85825Y36142D01*
G01X86317Y36142D01*
G01X86317Y35749D01*
G37*
G36*
G01X85155Y35749D02*
G01X84663Y35749D01*
G01X84663Y36142D01*
G01X85155Y36142D01*
G01X85155Y35749D01*
G37*
G36*
G01X93819Y35749D02*
G01X93327Y35749D01*
G01X93327Y36142D01*
G01X93819Y36142D01*
G01X93819Y35749D01*
G37*
G36*
G01X92658Y35749D02*
G01X92166Y35749D01*
G01X92166Y36142D01*
G01X92658Y36142D01*
G01X92658Y35749D01*
G37*
G36*
G01X105094Y35749D02*
G01X104602Y35749D01*
G01X104602Y36142D01*
G01X105094Y36142D01*
G01X105094Y35749D01*
G37*
G36*
G01X103932Y35749D02*
G01X103440Y35749D01*
G01X103440Y36142D01*
G01X103932Y36142D01*
G01X103932Y35749D01*
G37*
G36*
G01X5740Y28215D02*
G01X5248Y28215D01*
G01X5248Y28608D01*
G01X5740Y28608D01*
G01X5740Y28215D01*
G37*
G36*
G01X4579Y28215D02*
G01X4087Y28215D01*
G01X4087Y28608D01*
G01X4579Y28608D01*
G01X4579Y28215D01*
G37*
G36*
G01X15116Y28215D02*
G01X14624Y28215D01*
G01X14624Y28608D01*
G01X15116Y28608D01*
G01X15116Y28215D01*
G37*
G36*
G01X13954Y28215D02*
G01X13462Y28215D01*
G01X13462Y28608D01*
G01X13954Y28608D01*
G01X13954Y28215D01*
G37*
G36*
G01X22615Y28215D02*
G01X22123Y28215D01*
G01X22123Y28608D01*
G01X22615Y28608D01*
G01X22615Y28215D01*
G37*
G36*
G01X21453Y28215D02*
G01X20961Y28215D01*
G01X20961Y28608D01*
G01X21453Y28608D01*
G01X21453Y28215D01*
G37*
G36*
G01X30114Y28215D02*
G01X29622Y28215D01*
G01X29622Y28608D01*
G01X30114Y28608D01*
G01X30114Y28215D01*
G37*
G36*
G01X28953Y28215D02*
G01X28461Y28215D01*
G01X28461Y28608D01*
G01X28953Y28608D01*
G01X28953Y28215D01*
G37*
G36*
G01X37614Y28215D02*
G01X37122Y28215D01*
G01X37122Y28608D01*
G01X37614Y28608D01*
G01X37614Y28215D01*
G37*
G36*
G01X36452Y28215D02*
G01X35960Y28215D01*
G01X35960Y28608D01*
G01X36452Y28608D01*
G01X36452Y28215D01*
G37*
G36*
G01X45113Y28215D02*
G01X44621Y28215D01*
G01X44621Y28608D01*
G01X45113Y28608D01*
G01X45113Y28215D01*
G37*
G36*
G01X43951Y28215D02*
G01X43459Y28215D01*
G01X43459Y28608D01*
G01X43951Y28608D01*
G01X43951Y28215D01*
G37*
G36*
G01X52612Y28215D02*
G01X52120Y28215D01*
G01X52120Y28608D01*
G01X52612Y28608D01*
G01X52612Y28215D01*
G37*
G36*
G01X51451Y28215D02*
G01X50959Y28215D01*
G01X50959Y28608D01*
G01X51451Y28608D01*
G01X51451Y28215D01*
G37*
G36*
G01X60064Y28215D02*
G01X59572Y28215D01*
G01X59572Y28608D01*
G01X60064Y28608D01*
G01X60064Y28215D01*
G37*
G36*
G01X58903Y28215D02*
G01X58411Y28215D01*
G01X58411Y28608D01*
G01X58903Y28608D01*
G01X58903Y28215D01*
G37*
G36*
G01X67568Y28215D02*
G01X67076Y28215D01*
G01X67076Y28608D01*
G01X67568Y28608D01*
G01X67568Y28215D01*
G37*
G36*
G01X66407Y28215D02*
G01X65915Y28215D01*
G01X65915Y28608D01*
G01X66407Y28608D01*
G01X66407Y28215D01*
G37*
G36*
G01X75072Y28215D02*
G01X74580Y28215D01*
G01X74580Y28608D01*
G01X75072Y28608D01*
G01X75072Y28215D01*
G37*
G36*
G01X73911Y28215D02*
G01X73419Y28215D01*
G01X73419Y28608D01*
G01X73911Y28608D01*
G01X73911Y28215D01*
G37*
G36*
G01X82568Y28215D02*
G01X82076Y28215D01*
G01X82076Y28608D01*
G01X82568Y28608D01*
G01X82568Y28215D01*
G37*
G36*
G01X81407Y28215D02*
G01X80915Y28215D01*
G01X80915Y28608D01*
G01X81407Y28608D01*
G01X81407Y28215D01*
G37*
G36*
G01X90037Y28215D02*
G01X89545Y28215D01*
G01X89545Y28608D01*
G01X90037Y28608D01*
G01X90037Y28215D01*
G37*
G36*
G01X88875Y28215D02*
G01X88383Y28215D01*
G01X88383Y28608D01*
G01X88875Y28608D01*
G01X88875Y28215D01*
G37*
G36*
G01X97608Y28215D02*
G01X97116Y28215D01*
G01X97116Y28608D01*
G01X97608Y28608D01*
G01X97608Y28215D01*
G37*
G36*
G01X96446Y28215D02*
G01X95954Y28215D01*
G01X95954Y28608D01*
G01X96446Y28608D01*
G01X96446Y28215D01*
G37*
G36*
G01X106982Y28215D02*
G01X106490Y28215D01*
G01X106490Y28608D01*
G01X106982Y28608D01*
G01X106982Y28215D01*
G37*
G36*
G01X105820Y28215D02*
G01X105328Y28215D01*
G01X105328Y28608D01*
G01X105820Y28608D01*
G01X105820Y28215D01*
G37*
G36*
G01X6677Y20718D02*
G01X6185Y20718D01*
G01X6185Y21111D01*
G01X6677Y21111D01*
G01X6677Y20718D01*
G37*
G36*
G01X5516Y20718D02*
G01X5023Y20718D01*
G01X5023Y21111D01*
G01X5516Y21111D01*
G01X5516Y20718D01*
G37*
G36*
G01X16992Y20718D02*
G01X16500Y20718D01*
G01X16500Y21111D01*
G01X16992Y21111D01*
G01X16992Y20718D01*
G37*
G36*
G01X15831Y20718D02*
G01X15339Y20718D01*
G01X15339Y21111D01*
G01X15831Y21111D01*
G01X15831Y20718D01*
G37*
G36*
G01X24492Y20718D02*
G01X24000Y20718D01*
G01X24000Y21111D01*
G01X24492Y21111D01*
G01X24492Y20718D01*
G37*
G36*
G01X23330Y20718D02*
G01X22838Y20718D01*
G01X22838Y21111D01*
G01X23330Y21111D01*
G01X23330Y20718D01*
G37*
G36*
G01X31991Y20718D02*
G01X31499Y20718D01*
G01X31499Y21111D01*
G01X31991Y21111D01*
G01X31991Y20718D01*
G37*
G36*
G01X30830Y20718D02*
G01X30338Y20718D01*
G01X30338Y21111D01*
G01X30830Y21111D01*
G01X30830Y20718D01*
G37*
G36*
G01X39491Y20718D02*
G01X38999Y20718D01*
G01X38999Y21111D01*
G01X39491Y21111D01*
G01X39491Y20718D01*
G37*
G36*
G01X38329Y20718D02*
G01X37837Y20718D01*
G01X37837Y21111D01*
G01X38329Y21111D01*
G01X38329Y20718D01*
G37*
G36*
G01X46990Y20718D02*
G01X46498Y20718D01*
G01X46498Y21111D01*
G01X46990Y21111D01*
G01X46990Y20718D01*
G37*
G36*
G01X45829Y20718D02*
G01X45337Y20718D01*
G01X45337Y21111D01*
G01X45829Y21111D01*
G01X45829Y20718D01*
G37*
G36*
G01X54490Y20718D02*
G01X53998Y20718D01*
G01X53998Y21111D01*
G01X54490Y21111D01*
G01X54490Y20718D01*
G37*
G36*
G01X53329Y20718D02*
G01X52836Y20718D01*
G01X52836Y21111D01*
G01X53329Y21111D01*
G01X53329Y20718D01*
G37*
G36*
G01X61990Y20718D02*
G01X61497Y20718D01*
G01X61497Y21111D01*
G01X61990Y21111D01*
G01X61990Y20718D01*
G37*
G36*
G01X60828Y20718D02*
G01X60336Y20718D01*
G01X60336Y21111D01*
G01X60828Y21111D01*
G01X60828Y20718D01*
G37*
G36*
G01X69489Y20718D02*
G01X68997Y20718D01*
G01X68997Y21111D01*
G01X69489Y21111D01*
G01X69489Y20718D01*
G37*
G36*
G01X68328Y20718D02*
G01X67836Y20718D01*
G01X67836Y21111D01*
G01X68328Y21111D01*
G01X68328Y20718D01*
G37*
G36*
G01X76989Y20718D02*
G01X76497Y20718D01*
G01X76497Y21111D01*
G01X76989Y21111D01*
G01X76989Y20718D01*
G37*
G36*
G01X75827Y20718D02*
G01X75335Y20718D01*
G01X75335Y21111D01*
G01X75827Y21111D01*
G01X75827Y20718D01*
G37*
G36*
G01X84488Y20718D02*
G01X83996Y20718D01*
G01X83996Y21111D01*
G01X84488Y21111D01*
G01X84488Y20718D01*
G37*
G36*
G01X83327Y20718D02*
G01X82835Y20718D01*
G01X82835Y21111D01*
G01X83327Y21111D01*
G01X83327Y20718D01*
G37*
G36*
G01X91988Y20718D02*
G01X91496Y20718D01*
G01X91496Y21111D01*
G01X91988Y21111D01*
G01X91988Y20718D01*
G37*
G36*
G01X90827Y20718D02*
G01X90334Y20718D01*
G01X90334Y21111D01*
G01X90827Y21111D01*
G01X90827Y20718D01*
G37*
G36*
G01X104177Y20718D02*
G01X103685Y20718D01*
G01X103685Y21111D01*
G01X104177Y21111D01*
G01X104177Y20718D01*
G37*
G36*
G01X103015Y20718D02*
G01X102523Y20718D01*
G01X102523Y21111D01*
G01X103015Y21111D01*
G01X103015Y20718D01*
G37*
G36*
G01X8593Y13237D02*
G01X8101Y13237D01*
G01X8101Y13630D01*
G01X8593Y13630D01*
G01X8593Y13237D01*
G37*
G36*
G01X7431Y13237D02*
G01X6939Y13237D01*
G01X6939Y13630D01*
G01X7431Y13630D01*
G01X7431Y13237D01*
G37*
G36*
G01X20786Y13237D02*
G01X20294Y13237D01*
G01X20294Y13630D01*
G01X20786Y13630D01*
G01X20786Y13237D01*
G37*
G36*
G01X19624Y13237D02*
G01X19132Y13237D01*
G01X19132Y13630D01*
G01X19624Y13630D01*
G01X19624Y13237D01*
G37*
G36*
G01X28285Y13237D02*
G01X27793Y13237D01*
G01X27793Y13630D01*
G01X28285Y13630D01*
G01X28285Y13237D01*
G37*
G36*
G01X27124Y13237D02*
G01X26632Y13237D01*
G01X26632Y13630D01*
G01X27124Y13630D01*
G01X27124Y13237D01*
G37*
G36*
G01X35785Y13237D02*
G01X35293Y13237D01*
G01X35293Y13630D01*
G01X35785Y13630D01*
G01X35785Y13237D01*
G37*
G36*
G01X34624Y13237D02*
G01X34131Y13237D01*
G01X34131Y13630D01*
G01X34624Y13630D01*
G01X34624Y13237D01*
G37*
G36*
G01X43285Y13237D02*
G01X42792Y13237D01*
G01X42792Y13630D01*
G01X43285Y13630D01*
G01X43285Y13237D01*
G37*
G36*
G01X42123Y13237D02*
G01X41631Y13237D01*
G01X41631Y13630D01*
G01X42123Y13630D01*
G01X42123Y13237D01*
G37*
G36*
G01X50784Y13237D02*
G01X50292Y13237D01*
G01X50292Y13630D01*
G01X50784Y13630D01*
G01X50784Y13237D01*
G37*
G36*
G01X49623Y13237D02*
G01X49131Y13237D01*
G01X49131Y13630D01*
G01X49623Y13630D01*
G01X49623Y13237D01*
G37*
G36*
G01X58283Y13237D02*
G01X57791Y13237D01*
G01X57791Y13630D01*
G01X58283Y13630D01*
G01X58283Y13237D01*
G37*
G36*
G01X57122Y13237D02*
G01X56630Y13237D01*
G01X56630Y13630D01*
G01X57122Y13630D01*
G01X57122Y13237D01*
G37*
G36*
G01X65783Y13237D02*
G01X65291Y13237D01*
G01X65291Y13630D01*
G01X65783Y13630D01*
G01X65783Y13237D01*
G37*
G36*
G01X64621Y13237D02*
G01X64129Y13237D01*
G01X64129Y13630D01*
G01X64621Y13630D01*
G01X64621Y13237D01*
G37*
G36*
G01X73282Y13237D02*
G01X72790Y13237D01*
G01X72790Y13630D01*
G01X73282Y13630D01*
G01X73282Y13237D01*
G37*
G36*
G01X72121Y13237D02*
G01X71629Y13237D01*
G01X71629Y13630D01*
G01X72121Y13630D01*
G01X72121Y13237D01*
G37*
G36*
G01X80782Y13237D02*
G01X80290Y13237D01*
G01X80290Y13630D01*
G01X80782Y13630D01*
G01X80782Y13237D01*
G37*
G36*
G01X79621Y13237D02*
G01X79129Y13237D01*
G01X79129Y13630D01*
G01X79621Y13630D01*
G01X79621Y13237D01*
G37*
G36*
G01X88282Y13237D02*
G01X87790Y13237D01*
G01X87790Y13630D01*
G01X88282Y13630D01*
G01X88282Y13237D01*
G37*
G36*
G01X87120Y13237D02*
G01X86628Y13237D01*
G01X86628Y13630D01*
G01X87120Y13630D01*
G01X87120Y13237D01*
G37*
G36*
G01X102337Y13237D02*
G01X101845Y13237D01*
G01X101845Y13630D01*
G01X102337Y13630D01*
G01X102337Y13237D01*
G37*
G36*
G01X101175Y13237D02*
G01X100683Y13237D01*
G01X100683Y13630D01*
G01X101175Y13630D01*
G01X101175Y13237D01*
G37*
G36*
G01X4836Y5708D02*
G01X4344Y5708D01*
G01X4344Y6102D01*
G01X4836Y6102D01*
G01X4836Y5708D01*
G37*
G36*
G01X3674Y5708D02*
G01X3182Y5708D01*
G01X3182Y6102D01*
G01X3674Y6102D01*
G01X3674Y5708D01*
G37*
G36*
G01X14205Y5708D02*
G01X13713Y5708D01*
G01X13713Y6102D01*
G01X14205Y6102D01*
G01X14205Y5708D01*
G37*
G36*
G01X13044Y5708D02*
G01X12552Y5708D01*
G01X12552Y6102D01*
G01X13044Y6102D01*
G01X13044Y5708D01*
G37*
G36*
G01X23575Y5708D02*
G01X23083Y5708D01*
G01X23083Y6102D01*
G01X23575Y6102D01*
G01X23575Y5708D01*
G37*
G36*
G01X22414Y5708D02*
G01X21922Y5708D01*
G01X21922Y6102D01*
G01X22414Y6102D01*
G01X22414Y5708D01*
G37*
G36*
G01X51709Y5708D02*
G01X51217Y5708D01*
G01X51217Y6102D01*
G01X51709Y6102D01*
G01X51709Y5708D01*
G37*
G36*
G01X50547Y5708D02*
G01X50055Y5708D01*
G01X50055Y6102D01*
G01X50547Y6102D01*
G01X50547Y5708D01*
G37*
G36*
G01X79824Y5708D02*
G01X79332Y5708D01*
G01X79332Y6102D01*
G01X79824Y6102D01*
G01X79824Y5708D01*
G37*
G36*
G01X78662Y5708D02*
G01X78170Y5708D01*
G01X78170Y6102D01*
G01X78662Y6102D01*
G01X78662Y5708D01*
G37*
G36*
G01X89200Y5708D02*
G01X88708Y5708D01*
G01X88708Y6102D01*
G01X89200Y6102D01*
G01X89200Y5708D01*
G37*
G36*
G01X88039Y5708D02*
G01X87547Y5708D01*
G01X87547Y6102D01*
G01X88039Y6102D01*
G01X88039Y5708D01*
G37*
G36*
G01X98577Y5708D02*
G01X98084Y5708D01*
G01X98084Y6102D01*
G01X98577Y6102D01*
G01X98577Y5708D01*
G37*
G36*
G01X97415Y5708D02*
G01X96923Y5708D01*
G01X96923Y6102D01*
G01X97415Y6102D01*
G01X97415Y5708D01*
G37*
G36*
G01X107953Y5708D02*
G01X107461Y5708D01*
G01X107461Y6102D01*
G01X107953Y6102D01*
G01X107953Y5708D01*
G37*
G36*
G01X106791Y5708D02*
G01X106299Y5708D01*
G01X106299Y6102D01*
G01X106791Y6102D01*
G01X106791Y5708D01*
G37*
G36*
G01X30561Y1935D02*
G01X30561Y1478D01*
G01X29982Y1478D01*
G01X29982Y1935D01*
G01X30561Y1935D01*
G37*
G36*
G01X30561Y1234D02*
G01X30561Y777D01*
G01X29982Y777D01*
G01X29982Y1234D01*
G01X30561Y1234D01*
G37*
G36*
G01X2501Y20657D02*
G01X2045Y20657D01*
G01X2045Y21235D01*
G01X2501Y21235D01*
G01X2501Y20657D01*
G37*
G36*
G01X1801Y20657D02*
G01X1344Y20657D01*
G01X1344Y21235D01*
G01X1801Y21235D01*
G01X1801Y20657D01*
G37*
G36*
G01X14625Y12067D02*
G01X15082Y12067D01*
G01X15082Y11489D01*
G01X14625Y11489D01*
G01X14625Y12067D01*
G37*
G36*
G01X15326Y12067D02*
G01X15783Y12067D01*
G01X15783Y11489D01*
G01X15326Y11489D01*
G01X15326Y12067D01*
G37*
G36*
G01X15783Y12439D02*
G01X15326Y12439D01*
G01X15326Y13017D01*
G01X15783Y13017D01*
G01X15783Y12439D01*
G37*
G36*
G01X15082Y12439D02*
G01X14625Y12439D01*
G01X14625Y13017D01*
G01X15082Y13017D01*
G01X15082Y12439D01*
G37*
G36*
G01X11239Y16267D02*
G01X11239Y17133D01*
G01X11712Y17133D01*
G01X11712Y16267D01*
G01X11239Y16267D01*
G37*
G36*
G01X11239Y19417D02*
G01X11239Y20283D01*
G01X11712Y20283D01*
G01X11712Y19417D01*
G01X11239Y19417D01*
G37*
G36*
G01X28215Y4793D02*
G01X28224Y4792D01*
G01X28232Y4791D01*
G01X28241Y4788D01*
G01X28248Y4784D01*
G01X28256Y4780D01*
G01X28262Y4774D01*
G01X28268Y4768D01*
G01X28273Y4761D01*
G01X28278Y4753D01*
G01X28281Y4745D01*
G01X28283Y4737D01*
G01X28284Y4728D01*
G01X28284Y4720D01*
G01X28283Y4711D01*
G01X28281Y4703D01*
G01X28278Y4695D01*
G01X28273Y4687D01*
G01X28268Y4680D01*
G01X28262Y4674D01*
G01X28256Y4668D01*
G01X28248Y4664D01*
G01X28241Y4660D01*
G01X28232Y4657D01*
G01X28224Y4656D01*
G01X28215Y4655D01*
G01X27763Y4655D01*
G01X27754Y4656D01*
G01X27745Y4657D01*
G01X27737Y4660D01*
G01X27729Y4664D01*
G01X27722Y4668D01*
G01X27715Y4674D01*
G01X27709Y4680D01*
G01X27704Y4687D01*
G01X27700Y4695D01*
G01X27697Y4703D01*
G01X27695Y4711D01*
G01X27694Y4720D01*
G01X27694Y4728D01*
G01X27695Y4737D01*
G01X27697Y4745D01*
G01X27700Y4753D01*
G01X27704Y4761D01*
G01X27709Y4768D01*
G01X27715Y4774D01*
G01X27722Y4780D01*
G01X27729Y4784D01*
G01X27737Y4788D01*
G01X27745Y4791D01*
G01X27754Y4792D01*
G01X27763Y4793D01*
G01X28215Y4793D01*
G37*
G36*
G01X28215Y4537D02*
G01X28224Y4536D01*
G01X28232Y4535D01*
G01X28241Y4532D01*
G01X28248Y4529D01*
G01X28256Y4524D01*
G01X28262Y4518D01*
G01X28268Y4512D01*
G01X28273Y4505D01*
G01X28278Y4497D01*
G01X28281Y4489D01*
G01X28283Y4481D01*
G01X28284Y4472D01*
G01X28284Y4464D01*
G01X28283Y4455D01*
G01X28281Y4447D01*
G01X28278Y4439D01*
G01X28273Y4431D01*
G01X28268Y4424D01*
G01X28262Y4418D01*
G01X28256Y4412D01*
G01X28248Y4408D01*
G01X28241Y4404D01*
G01X28232Y4401D01*
G01X28224Y4400D01*
G01X28215Y4399D01*
G01X27763Y4399D01*
G01X27754Y4400D01*
G01X27745Y4401D01*
G01X27737Y4404D01*
G01X27729Y4408D01*
G01X27722Y4412D01*
G01X27715Y4418D01*
G01X27709Y4424D01*
G01X27704Y4431D01*
G01X27700Y4439D01*
G01X27697Y4447D01*
G01X27695Y4455D01*
G01X27694Y4464D01*
G01X27694Y4472D01*
G01X27695Y4481D01*
G01X27697Y4489D01*
G01X27700Y4497D01*
G01X27704Y4505D01*
G01X27709Y4512D01*
G01X27715Y4518D01*
G01X27722Y4524D01*
G01X27729Y4529D01*
G01X27737Y4532D01*
G01X27745Y4535D01*
G01X27754Y4536D01*
G01X27763Y4537D01*
G01X28215Y4537D01*
G37*
G36*
G01X28215Y4281D02*
G01X28224Y4281D01*
G01X28232Y4279D01*
G01X28241Y4276D01*
G01X28248Y4273D01*
G01X28256Y4268D01*
G01X28262Y4262D01*
G01X28268Y4256D01*
G01X28273Y4249D01*
G01X28278Y4242D01*
G01X28281Y4234D01*
G01X28283Y4225D01*
G01X28284Y4217D01*
G01X28284Y4208D01*
G01X28283Y4199D01*
G01X28281Y4191D01*
G01X28278Y4183D01*
G01X28273Y4175D01*
G01X28268Y4168D01*
G01X28262Y4162D01*
G01X28256Y4156D01*
G01X28248Y4152D01*
G01X28241Y4148D01*
G01X28232Y4145D01*
G01X28224Y4144D01*
G01X28215Y4143D01*
G01X27763Y4143D01*
G01X27754Y4144D01*
G01X27745Y4145D01*
G01X27737Y4148D01*
G01X27729Y4152D01*
G01X27722Y4156D01*
G01X27715Y4162D01*
G01X27709Y4168D01*
G01X27704Y4175D01*
G01X27700Y4183D01*
G01X27697Y4191D01*
G01X27695Y4199D01*
G01X27694Y4208D01*
G01X27694Y4217D01*
G01X27695Y4225D01*
G01X27697Y4234D01*
G01X27700Y4242D01*
G01X27704Y4249D01*
G01X27709Y4256D01*
G01X27715Y4262D01*
G01X27722Y4268D01*
G01X27729Y4273D01*
G01X27737Y4276D01*
G01X27745Y4279D01*
G01X27754Y4281D01*
G01X27763Y4281D01*
G01X28215Y4281D01*
G37*
G36*
G01X28215Y4025D02*
G01X28224Y4025D01*
G01X28232Y4023D01*
G01X28241Y4020D01*
G01X28248Y4017D01*
G01X28256Y4012D01*
G01X28262Y4007D01*
G01X28268Y4000D01*
G01X28273Y3993D01*
G01X28278Y3986D01*
G01X28281Y3978D01*
G01X28283Y3969D01*
G01X28284Y3961D01*
G01X28284Y3952D01*
G01X28283Y3943D01*
G01X28281Y3935D01*
G01X28278Y3927D01*
G01X28273Y3919D01*
G01X28268Y3912D01*
G01X28262Y3906D01*
G01X28256Y3900D01*
G01X28248Y3896D01*
G01X28241Y3892D01*
G01X28232Y3889D01*
G01X28224Y3888D01*
G01X28215Y3887D01*
G01X27763Y3887D01*
G01X27754Y3888D01*
G01X27745Y3889D01*
G01X27737Y3892D01*
G01X27729Y3896D01*
G01X27722Y3900D01*
G01X27715Y3906D01*
G01X27709Y3912D01*
G01X27704Y3919D01*
G01X27700Y3927D01*
G01X27697Y3935D01*
G01X27695Y3943D01*
G01X27694Y3952D01*
G01X27694Y3961D01*
G01X27695Y3969D01*
G01X27697Y3978D01*
G01X27700Y3986D01*
G01X27704Y3993D01*
G01X27709Y4000D01*
G01X27715Y4007D01*
G01X27722Y4012D01*
G01X27729Y4017D01*
G01X27737Y4020D01*
G01X27745Y4023D01*
G01X27754Y4025D01*
G01X27763Y4025D01*
G01X28215Y4025D01*
G37*
G36*
G01X28215Y3769D02*
G01X28224Y3769D01*
G01X28232Y3767D01*
G01X28241Y3764D01*
G01X28248Y3761D01*
G01X28256Y3756D01*
G01X28262Y3751D01*
G01X28268Y3744D01*
G01X28273Y3737D01*
G01X28278Y3730D01*
G01X28281Y3722D01*
G01X28283Y3713D01*
G01X28284Y3705D01*
G01X28284Y3696D01*
G01X28283Y3687D01*
G01X28281Y3679D01*
G01X28278Y3671D01*
G01X28273Y3663D01*
G01X28268Y3656D01*
G01X28262Y3650D01*
G01X28256Y3645D01*
G01X28248Y3640D01*
G01X28241Y3636D01*
G01X28232Y3634D01*
G01X28224Y3632D01*
G01X28215Y3632D01*
G01X27763Y3632D01*
G01X27754Y3632D01*
G01X27745Y3634D01*
G01X27737Y3636D01*
G01X27729Y3640D01*
G01X27722Y3645D01*
G01X27715Y3650D01*
G01X27709Y3656D01*
G01X27704Y3663D01*
G01X27700Y3671D01*
G01X27697Y3679D01*
G01X27695Y3687D01*
G01X27694Y3696D01*
G01X27694Y3705D01*
G01X27695Y3713D01*
G01X27697Y3722D01*
G01X27700Y3730D01*
G01X27704Y3737D01*
G01X27709Y3744D01*
G01X27715Y3751D01*
G01X27722Y3756D01*
G01X27729Y3761D01*
G01X27737Y3764D01*
G01X27745Y3767D01*
G01X27754Y3769D01*
G01X27763Y3769D01*
G01X28215Y3769D01*
G37*
G36*
G01X28215Y3513D02*
G01X28224Y3513D01*
G01X28232Y3511D01*
G01X28241Y3509D01*
G01X28248Y3505D01*
G01X28256Y3500D01*
G01X28262Y3495D01*
G01X28268Y3488D01*
G01X28273Y3481D01*
G01X28278Y3474D01*
G01X28281Y3466D01*
G01X28283Y3457D01*
G01X28284Y3449D01*
G01X28284Y3440D01*
G01X28283Y3432D01*
G01X28281Y3423D01*
G01X28278Y3415D01*
G01X28273Y3408D01*
G01X28268Y3400D01*
G01X28262Y3394D01*
G01X28256Y3389D01*
G01X28248Y3384D01*
G01X28241Y3380D01*
G01X28232Y3378D01*
G01X28224Y3376D01*
G01X28215Y3376D01*
G01X27763Y3376D01*
G01X27754Y3376D01*
G01X27745Y3378D01*
G01X27737Y3380D01*
G01X27729Y3384D01*
G01X27722Y3389D01*
G01X27715Y3394D01*
G01X27709Y3400D01*
G01X27704Y3408D01*
G01X27700Y3415D01*
G01X27697Y3423D01*
G01X27695Y3432D01*
G01X27694Y3440D01*
G01X27694Y3449D01*
G01X27695Y3457D01*
G01X27697Y3466D01*
G01X27700Y3474D01*
G01X27704Y3481D01*
G01X27709Y3488D01*
G01X27715Y3495D01*
G01X27722Y3500D01*
G01X27729Y3505D01*
G01X27737Y3509D01*
G01X27745Y3511D01*
G01X27754Y3513D01*
G01X27763Y3513D01*
G01X28215Y3513D01*
G37*
G36*
G01X28215Y3258D02*
G01X28224Y3257D01*
G01X28232Y3255D01*
G01X28241Y3253D01*
G01X28248Y3249D01*
G01X28256Y3244D01*
G01X28262Y3239D01*
G01X28268Y3233D01*
G01X28273Y3225D01*
G01X28278Y3218D01*
G01X28281Y3210D01*
G01X28283Y3201D01*
G01X28284Y3193D01*
G01X28284Y3184D01*
G01X28283Y3176D01*
G01X28281Y3167D01*
G01X28278Y3159D01*
G01X28273Y3152D01*
G01X28268Y3145D01*
G01X28262Y3138D01*
G01X28256Y3133D01*
G01X28248Y3128D01*
G01X28241Y3125D01*
G01X28232Y3122D01*
G01X28224Y3120D01*
G01X28215Y3120D01*
G01X27763Y3120D01*
G01X27754Y3120D01*
G01X27745Y3122D01*
G01X27737Y3125D01*
G01X27729Y3128D01*
G01X27722Y3133D01*
G01X27715Y3138D01*
G01X27709Y3145D01*
G01X27704Y3152D01*
G01X27700Y3159D01*
G01X27697Y3167D01*
G01X27695Y3176D01*
G01X27694Y3184D01*
G01X27694Y3193D01*
G01X27695Y3201D01*
G01X27697Y3210D01*
G01X27700Y3218D01*
G01X27704Y3225D01*
G01X27709Y3233D01*
G01X27715Y3239D01*
G01X27722Y3244D01*
G01X27729Y3249D01*
G01X27737Y3253D01*
G01X27745Y3255D01*
G01X27754Y3257D01*
G01X27763Y3258D01*
G01X28215Y3258D01*
G37*
G36*
G01X28215Y3001D02*
G01X28224Y3001D01*
G01X28232Y2999D01*
G01X28241Y2997D01*
G01X28248Y2993D01*
G01X28256Y2988D01*
G01X28262Y2983D01*
G01X28268Y2977D01*
G01X28273Y2970D01*
G01X28278Y2962D01*
G01X28281Y2954D01*
G01X28283Y2946D01*
G01X28284Y2937D01*
G01X28284Y2928D01*
G01X28283Y2920D01*
G01X28281Y2911D01*
G01X28278Y2903D01*
G01X28273Y2896D01*
G01X28268Y2889D01*
G01X28262Y2882D01*
G01X28256Y2877D01*
G01X28248Y2872D01*
G01X28241Y2869D01*
G01X28232Y2866D01*
G01X28224Y2864D01*
G01X28215Y2864D01*
G01X27763Y2864D01*
G01X27754Y2864D01*
G01X27745Y2866D01*
G01X27737Y2869D01*
G01X27729Y2872D01*
G01X27722Y2877D01*
G01X27715Y2882D01*
G01X27709Y2889D01*
G01X27704Y2896D01*
G01X27700Y2903D01*
G01X27697Y2911D01*
G01X27695Y2920D01*
G01X27694Y2928D01*
G01X27694Y2937D01*
G01X27695Y2946D01*
G01X27697Y2954D01*
G01X27700Y2962D01*
G01X27704Y2970D01*
G01X27709Y2977D01*
G01X27715Y2983D01*
G01X27722Y2988D01*
G01X27729Y2993D01*
G01X27737Y2997D01*
G01X27745Y2999D01*
G01X27754Y3001D01*
G01X27763Y3001D01*
G01X28215Y3001D01*
G37*
G36*
G01X28215Y2746D02*
G01X28224Y2745D01*
G01X28232Y2744D01*
G01X28241Y2741D01*
G01X28248Y2737D01*
G01X28256Y2733D01*
G01X28262Y2727D01*
G01X28268Y2721D01*
G01X28273Y2714D01*
G01X28278Y2706D01*
G01X28281Y2698D01*
G01X28283Y2690D01*
G01X28284Y2681D01*
G01X28284Y2672D01*
G01X28283Y2664D01*
G01X28281Y2656D01*
G01X28278Y2647D01*
G01X28273Y2640D01*
G01X28268Y2633D01*
G01X28262Y2626D01*
G01X28256Y2621D01*
G01X28248Y2616D01*
G01X28241Y2613D01*
G01X28232Y2610D01*
G01X28224Y2608D01*
G01X28215Y2608D01*
G01X27763Y2608D01*
G01X27754Y2608D01*
G01X27745Y2610D01*
G01X27737Y2613D01*
G01X27729Y2616D01*
G01X27722Y2621D01*
G01X27715Y2626D01*
G01X27709Y2633D01*
G01X27704Y2640D01*
G01X27700Y2647D01*
G01X27697Y2656D01*
G01X27695Y2664D01*
G01X27694Y2672D01*
G01X27694Y2681D01*
G01X27695Y2690D01*
G01X27697Y2698D01*
G01X27700Y2706D01*
G01X27704Y2714D01*
G01X27709Y2721D01*
G01X27715Y2727D01*
G01X27722Y2733D01*
G01X27729Y2737D01*
G01X27737Y2741D01*
G01X27745Y2744D01*
G01X27754Y2745D01*
G01X27763Y2746D01*
G01X28215Y2746D01*
G37*
G36*
G01X28215Y2490D02*
G01X28224Y2489D01*
G01X28232Y2488D01*
G01X28241Y2485D01*
G01X28248Y2481D01*
G01X28256Y2477D01*
G01X28262Y2471D01*
G01X28268Y2465D01*
G01X28273Y2458D01*
G01X28278Y2450D01*
G01X28281Y2442D01*
G01X28283Y2434D01*
G01X28284Y2425D01*
G01X28284Y2417D01*
G01X28283Y2408D01*
G01X28281Y2400D01*
G01X28278Y2392D01*
G01X28273Y2384D01*
G01X28268Y2377D01*
G01X28262Y2371D01*
G01X28256Y2365D01*
G01X28248Y2361D01*
G01X28241Y2357D01*
G01X28232Y2354D01*
G01X28224Y2352D01*
G01X28215Y2352D01*
G01X27763Y2352D01*
G01X27754Y2352D01*
G01X27745Y2354D01*
G01X27737Y2357D01*
G01X27729Y2361D01*
G01X27722Y2365D01*
G01X27715Y2371D01*
G01X27709Y2377D01*
G01X27704Y2384D01*
G01X27700Y2392D01*
G01X27697Y2400D01*
G01X27695Y2408D01*
G01X27694Y2417D01*
G01X27694Y2425D01*
G01X27695Y2434D01*
G01X27697Y2442D01*
G01X27700Y2450D01*
G01X27704Y2458D01*
G01X27709Y2465D01*
G01X27715Y2471D01*
G01X27722Y2477D01*
G01X27729Y2481D01*
G01X27737Y2485D01*
G01X27745Y2488D01*
G01X27754Y2489D01*
G01X27763Y2490D01*
G01X28215Y2490D01*
G37*
G36*
G01X30459Y2490D02*
G01X30468Y2489D01*
G01X30477Y2488D01*
G01X30485Y2485D01*
G01X30492Y2481D01*
G01X30500Y2477D01*
G01X30506Y2471D01*
G01X30512Y2465D01*
G01X30517Y2458D01*
G01X30522Y2450D01*
G01X30525Y2442D01*
G01X30527Y2434D01*
G01X30528Y2425D01*
G01X30528Y2417D01*
G01X30527Y2408D01*
G01X30525Y2400D01*
G01X30522Y2392D01*
G01X30517Y2384D01*
G01X30512Y2377D01*
G01X30506Y2371D01*
G01X30500Y2365D01*
G01X30492Y2361D01*
G01X30485Y2357D01*
G01X30477Y2354D01*
G01X30468Y2352D01*
G01X30459Y2352D01*
G01X30007Y2352D01*
G01X29998Y2352D01*
G01X29989Y2354D01*
G01X29981Y2357D01*
G01X29973Y2361D01*
G01X29966Y2365D01*
G01X29959Y2371D01*
G01X29953Y2377D01*
G01X29948Y2384D01*
G01X29944Y2392D01*
G01X29941Y2400D01*
G01X29939Y2408D01*
G01X29938Y2417D01*
G01X29938Y2425D01*
G01X29939Y2434D01*
G01X29941Y2442D01*
G01X29944Y2450D01*
G01X29948Y2458D01*
G01X29953Y2465D01*
G01X29959Y2471D01*
G01X29966Y2477D01*
G01X29973Y2481D01*
G01X29981Y2485D01*
G01X29989Y2488D01*
G01X29998Y2489D01*
G01X30007Y2490D01*
G01X30459Y2490D01*
G37*
G36*
G01X30459Y2746D02*
G01X30468Y2745D01*
G01X30477Y2744D01*
G01X30485Y2741D01*
G01X30492Y2737D01*
G01X30500Y2733D01*
G01X30506Y2727D01*
G01X30512Y2721D01*
G01X30517Y2714D01*
G01X30522Y2706D01*
G01X30525Y2698D01*
G01X30527Y2690D01*
G01X30528Y2681D01*
G01X30528Y2672D01*
G01X30527Y2664D01*
G01X30525Y2656D01*
G01X30522Y2647D01*
G01X30517Y2640D01*
G01X30512Y2633D01*
G01X30506Y2626D01*
G01X30500Y2621D01*
G01X30492Y2616D01*
G01X30485Y2613D01*
G01X30477Y2610D01*
G01X30468Y2608D01*
G01X30459Y2608D01*
G01X30007Y2608D01*
G01X29998Y2608D01*
G01X29989Y2610D01*
G01X29981Y2613D01*
G01X29973Y2616D01*
G01X29966Y2621D01*
G01X29959Y2626D01*
G01X29953Y2633D01*
G01X29948Y2640D01*
G01X29944Y2647D01*
G01X29941Y2656D01*
G01X29939Y2664D01*
G01X29938Y2672D01*
G01X29938Y2681D01*
G01X29939Y2690D01*
G01X29941Y2698D01*
G01X29944Y2706D01*
G01X29948Y2714D01*
G01X29953Y2721D01*
G01X29959Y2727D01*
G01X29966Y2733D01*
G01X29973Y2737D01*
G01X29981Y2741D01*
G01X29989Y2744D01*
G01X29998Y2745D01*
G01X30007Y2746D01*
G01X30459Y2746D01*
G37*
G36*
G01X30459Y3001D02*
G01X30468Y3001D01*
G01X30477Y2999D01*
G01X30485Y2997D01*
G01X30492Y2993D01*
G01X30500Y2988D01*
G01X30506Y2983D01*
G01X30512Y2977D01*
G01X30517Y2970D01*
G01X30522Y2962D01*
G01X30525Y2954D01*
G01X30527Y2946D01*
G01X30528Y2937D01*
G01X30528Y2928D01*
G01X30527Y2920D01*
G01X30525Y2911D01*
G01X30522Y2903D01*
G01X30517Y2896D01*
G01X30512Y2889D01*
G01X30506Y2882D01*
G01X30500Y2877D01*
G01X30492Y2872D01*
G01X30485Y2869D01*
G01X30477Y2866D01*
G01X30468Y2864D01*
G01X30459Y2864D01*
G01X30007Y2864D01*
G01X29998Y2864D01*
G01X29989Y2866D01*
G01X29981Y2869D01*
G01X29973Y2872D01*
G01X29966Y2877D01*
G01X29959Y2882D01*
G01X29953Y2889D01*
G01X29948Y2896D01*
G01X29944Y2903D01*
G01X29941Y2911D01*
G01X29939Y2920D01*
G01X29938Y2928D01*
G01X29938Y2937D01*
G01X29939Y2946D01*
G01X29941Y2954D01*
G01X29944Y2962D01*
G01X29948Y2970D01*
G01X29953Y2977D01*
G01X29959Y2983D01*
G01X29966Y2988D01*
G01X29973Y2993D01*
G01X29981Y2997D01*
G01X29989Y2999D01*
G01X29998Y3001D01*
G01X30007Y3001D01*
G01X30459Y3001D01*
G37*
G36*
G01X30459Y3258D02*
G01X30468Y3257D01*
G01X30477Y3255D01*
G01X30485Y3253D01*
G01X30492Y3249D01*
G01X30500Y3244D01*
G01X30506Y3239D01*
G01X30512Y3233D01*
G01X30517Y3225D01*
G01X30522Y3218D01*
G01X30525Y3210D01*
G01X30527Y3201D01*
G01X30528Y3193D01*
G01X30528Y3184D01*
G01X30527Y3176D01*
G01X30525Y3167D01*
G01X30522Y3159D01*
G01X30517Y3152D01*
G01X30512Y3145D01*
G01X30506Y3138D01*
G01X30500Y3133D01*
G01X30492Y3128D01*
G01X30485Y3125D01*
G01X30477Y3122D01*
G01X30468Y3120D01*
G01X30459Y3120D01*
G01X30007Y3120D01*
G01X29998Y3120D01*
G01X29989Y3122D01*
G01X29981Y3125D01*
G01X29973Y3128D01*
G01X29966Y3133D01*
G01X29959Y3138D01*
G01X29953Y3145D01*
G01X29948Y3152D01*
G01X29944Y3159D01*
G01X29941Y3167D01*
G01X29939Y3176D01*
G01X29938Y3184D01*
G01X29938Y3193D01*
G01X29939Y3201D01*
G01X29941Y3210D01*
G01X29944Y3218D01*
G01X29948Y3225D01*
G01X29953Y3233D01*
G01X29959Y3239D01*
G01X29966Y3244D01*
G01X29973Y3249D01*
G01X29981Y3253D01*
G01X29989Y3255D01*
G01X29998Y3257D01*
G01X30007Y3258D01*
G01X30459Y3258D01*
G37*
G36*
G01X30459Y3513D02*
G01X30468Y3513D01*
G01X30477Y3511D01*
G01X30485Y3509D01*
G01X30492Y3505D01*
G01X30500Y3500D01*
G01X30506Y3495D01*
G01X30512Y3488D01*
G01X30517Y3481D01*
G01X30522Y3474D01*
G01X30525Y3466D01*
G01X30527Y3457D01*
G01X30528Y3449D01*
G01X30528Y3440D01*
G01X30527Y3432D01*
G01X30525Y3423D01*
G01X30522Y3415D01*
G01X30517Y3408D01*
G01X30512Y3400D01*
G01X30506Y3394D01*
G01X30500Y3389D01*
G01X30492Y3384D01*
G01X30485Y3380D01*
G01X30477Y3378D01*
G01X30468Y3376D01*
G01X30459Y3376D01*
G01X30007Y3376D01*
G01X29998Y3376D01*
G01X29989Y3378D01*
G01X29981Y3380D01*
G01X29973Y3384D01*
G01X29966Y3389D01*
G01X29959Y3394D01*
G01X29953Y3400D01*
G01X29948Y3408D01*
G01X29944Y3415D01*
G01X29941Y3423D01*
G01X29939Y3432D01*
G01X29938Y3440D01*
G01X29938Y3449D01*
G01X29939Y3457D01*
G01X29941Y3466D01*
G01X29944Y3474D01*
G01X29948Y3481D01*
G01X29953Y3488D01*
G01X29959Y3495D01*
G01X29966Y3500D01*
G01X29973Y3505D01*
G01X29981Y3509D01*
G01X29989Y3511D01*
G01X29998Y3513D01*
G01X30007Y3513D01*
G01X30459Y3513D01*
G37*
G36*
G01X30459Y3769D02*
G01X30468Y3769D01*
G01X30477Y3767D01*
G01X30485Y3764D01*
G01X30492Y3761D01*
G01X30500Y3756D01*
G01X30506Y3751D01*
G01X30512Y3744D01*
G01X30517Y3737D01*
G01X30522Y3730D01*
G01X30525Y3722D01*
G01X30527Y3713D01*
G01X30528Y3705D01*
G01X30528Y3696D01*
G01X30527Y3687D01*
G01X30525Y3679D01*
G01X30522Y3671D01*
G01X30517Y3663D01*
G01X30512Y3656D01*
G01X30506Y3650D01*
G01X30500Y3645D01*
G01X30492Y3640D01*
G01X30485Y3636D01*
G01X30477Y3634D01*
G01X30468Y3632D01*
G01X30459Y3632D01*
G01X30007Y3632D01*
G01X29998Y3632D01*
G01X29989Y3634D01*
G01X29981Y3636D01*
G01X29973Y3640D01*
G01X29966Y3645D01*
G01X29959Y3650D01*
G01X29953Y3656D01*
G01X29948Y3663D01*
G01X29944Y3671D01*
G01X29941Y3679D01*
G01X29939Y3687D01*
G01X29938Y3696D01*
G01X29938Y3705D01*
G01X29939Y3713D01*
G01X29941Y3722D01*
G01X29944Y3730D01*
G01X29948Y3737D01*
G01X29953Y3744D01*
G01X29959Y3751D01*
G01X29966Y3756D01*
G01X29973Y3761D01*
G01X29981Y3764D01*
G01X29989Y3767D01*
G01X29998Y3769D01*
G01X30007Y3769D01*
G01X30459Y3769D01*
G37*
G36*
G01X30459Y4025D02*
G01X30468Y4025D01*
G01X30477Y4023D01*
G01X30485Y4020D01*
G01X30492Y4017D01*
G01X30500Y4012D01*
G01X30506Y4007D01*
G01X30512Y4000D01*
G01X30517Y3993D01*
G01X30522Y3986D01*
G01X30525Y3978D01*
G01X30527Y3969D01*
G01X30528Y3961D01*
G01X30528Y3952D01*
G01X30527Y3943D01*
G01X30525Y3935D01*
G01X30522Y3927D01*
G01X30517Y3919D01*
G01X30512Y3912D01*
G01X30506Y3906D01*
G01X30500Y3900D01*
G01X30492Y3896D01*
G01X30485Y3892D01*
G01X30477Y3889D01*
G01X30468Y3888D01*
G01X30459Y3887D01*
G01X30007Y3887D01*
G01X29998Y3888D01*
G01X29989Y3889D01*
G01X29981Y3892D01*
G01X29973Y3896D01*
G01X29966Y3900D01*
G01X29959Y3906D01*
G01X29953Y3912D01*
G01X29948Y3919D01*
G01X29944Y3927D01*
G01X29941Y3935D01*
G01X29939Y3943D01*
G01X29938Y3952D01*
G01X29938Y3961D01*
G01X29939Y3969D01*
G01X29941Y3978D01*
G01X29944Y3986D01*
G01X29948Y3993D01*
G01X29953Y4000D01*
G01X29959Y4007D01*
G01X29966Y4012D01*
G01X29973Y4017D01*
G01X29981Y4020D01*
G01X29989Y4023D01*
G01X29998Y4025D01*
G01X30007Y4025D01*
G01X30459Y4025D01*
G37*
G36*
G01X30459Y4281D02*
G01X30468Y4281D01*
G01X30477Y4279D01*
G01X30485Y4276D01*
G01X30492Y4273D01*
G01X30500Y4268D01*
G01X30506Y4262D01*
G01X30512Y4256D01*
G01X30517Y4249D01*
G01X30522Y4242D01*
G01X30525Y4234D01*
G01X30527Y4225D01*
G01X30528Y4217D01*
G01X30528Y4208D01*
G01X30527Y4199D01*
G01X30525Y4191D01*
G01X30522Y4183D01*
G01X30517Y4175D01*
G01X30512Y4168D01*
G01X30506Y4162D01*
G01X30500Y4156D01*
G01X30492Y4152D01*
G01X30485Y4148D01*
G01X30477Y4145D01*
G01X30468Y4144D01*
G01X30459Y4143D01*
G01X30007Y4143D01*
G01X29998Y4144D01*
G01X29989Y4145D01*
G01X29981Y4148D01*
G01X29973Y4152D01*
G01X29966Y4156D01*
G01X29959Y4162D01*
G01X29953Y4168D01*
G01X29948Y4175D01*
G01X29944Y4183D01*
G01X29941Y4191D01*
G01X29939Y4199D01*
G01X29938Y4208D01*
G01X29938Y4217D01*
G01X29939Y4225D01*
G01X29941Y4234D01*
G01X29944Y4242D01*
G01X29948Y4249D01*
G01X29953Y4256D01*
G01X29959Y4262D01*
G01X29966Y4268D01*
G01X29973Y4273D01*
G01X29981Y4276D01*
G01X29989Y4279D01*
G01X29998Y4281D01*
G01X30007Y4281D01*
G01X30459Y4281D01*
G37*
G36*
G01X30459Y4537D02*
G01X30468Y4536D01*
G01X30477Y4535D01*
G01X30485Y4532D01*
G01X30492Y4529D01*
G01X30500Y4524D01*
G01X30506Y4518D01*
G01X30512Y4512D01*
G01X30517Y4505D01*
G01X30522Y4497D01*
G01X30525Y4489D01*
G01X30527Y4481D01*
G01X30528Y4472D01*
G01X30528Y4464D01*
G01X30527Y4455D01*
G01X30525Y4447D01*
G01X30522Y4439D01*
G01X30517Y4431D01*
G01X30512Y4424D01*
G01X30506Y4418D01*
G01X30500Y4412D01*
G01X30492Y4408D01*
G01X30485Y4404D01*
G01X30477Y4401D01*
G01X30468Y4400D01*
G01X30459Y4399D01*
G01X30007Y4399D01*
G01X29998Y4400D01*
G01X29989Y4401D01*
G01X29981Y4404D01*
G01X29973Y4408D01*
G01X29966Y4412D01*
G01X29959Y4418D01*
G01X29953Y4424D01*
G01X29948Y4431D01*
G01X29944Y4439D01*
G01X29941Y4447D01*
G01X29939Y4455D01*
G01X29938Y4464D01*
G01X29938Y4472D01*
G01X29939Y4481D01*
G01X29941Y4489D01*
G01X29944Y4497D01*
G01X29948Y4505D01*
G01X29953Y4512D01*
G01X29959Y4518D01*
G01X29966Y4524D01*
G01X29973Y4529D01*
G01X29981Y4532D01*
G01X29989Y4535D01*
G01X29998Y4536D01*
G01X30007Y4537D01*
G01X30459Y4537D01*
G37*
G36*
G01X30459Y4793D02*
G01X30468Y4792D01*
G01X30477Y4791D01*
G01X30485Y4788D01*
G01X30492Y4784D01*
G01X30500Y4780D01*
G01X30506Y4774D01*
G01X30512Y4768D01*
G01X30517Y4761D01*
G01X30522Y4753D01*
G01X30525Y4745D01*
G01X30527Y4737D01*
G01X30528Y4728D01*
G01X30528Y4720D01*
G01X30527Y4711D01*
G01X30525Y4703D01*
G01X30522Y4695D01*
G01X30517Y4687D01*
G01X30512Y4680D01*
G01X30506Y4674D01*
G01X30500Y4668D01*
G01X30492Y4664D01*
G01X30485Y4660D01*
G01X30477Y4657D01*
G01X30468Y4656D01*
G01X30459Y4655D01*
G01X30007Y4655D01*
G01X29998Y4656D01*
G01X29989Y4657D01*
G01X29981Y4660D01*
G01X29973Y4664D01*
G01X29966Y4668D01*
G01X29959Y4674D01*
G01X29953Y4680D01*
G01X29948Y4687D01*
G01X29944Y4695D01*
G01X29941Y4703D01*
G01X29939Y4711D01*
G01X29938Y4720D01*
G01X29938Y4728D01*
G01X29939Y4737D01*
G01X29941Y4745D01*
G01X29944Y4753D01*
G01X29948Y4761D01*
G01X29953Y4768D01*
G01X29959Y4774D01*
G01X29966Y4780D01*
G01X29973Y4784D01*
G01X29981Y4788D01*
G01X29989Y4791D01*
G01X29998Y4792D01*
G01X30007Y4793D01*
G01X30459Y4793D01*
G37*
G36*
G01X2183Y18094D02*
G01X2419Y18094D01*
G01X2419Y17661D01*
G01X2183Y17661D01*
G01X2183Y18094D01*
G37*
G36*
G01X1809Y18094D02*
G01X2045Y18094D01*
G01X2045Y17661D01*
G01X1809Y17661D01*
G01X1809Y18094D01*
G37*
G36*
G01X1434Y18094D02*
G01X1671Y18094D01*
G01X1671Y17661D01*
G01X1434Y17661D01*
G01X1434Y18094D01*
G37*
G36*
G01X1434Y19196D02*
G01X1671Y19196D01*
G01X1671Y18763D01*
G01X1434Y18763D01*
G01X1434Y19196D01*
G37*
G36*
G01X1809Y19196D02*
G01X2045Y19196D01*
G01X2045Y18763D01*
G01X1809Y18763D01*
G01X1809Y19196D01*
G37*
G36*
G01X2183Y19196D02*
G01X2419Y19196D01*
G01X2419Y18763D01*
G01X2183Y18763D01*
G01X2183Y19196D01*
G37*
G36*
G01X2501Y21696D02*
G01X2045Y21696D01*
G01X2045Y22274D01*
G01X2501Y22274D01*
G01X2501Y21696D01*
G37*
G36*
G01X1801Y21696D02*
G01X1344Y21696D01*
G01X1344Y22274D01*
G01X1801Y22274D01*
G01X1801Y21696D01*
G37*
G36*
G01X3676Y22648D02*
G01X4133Y22648D01*
G01X4133Y22069D01*
G01X3676Y22069D01*
G01X3676Y22648D01*
G37*
G36*
G01X4377Y22648D02*
G01X4834Y22648D01*
G01X4834Y22069D01*
G01X4377Y22069D01*
G01X4377Y22648D01*
G37*
G54D27*
G01X12208Y11236D03*
G01X13369Y11236D03*
G01X13369Y12094D03*
G01X12208Y12094D03*
G36*
G01X2039Y36510D02*
G01X1582Y36510D01*
G01X1582Y37089D01*
G01X2039Y37089D01*
G01X2039Y36510D01*
G37*
G36*
G01X1338Y36510D02*
G01X881Y36510D01*
G01X881Y37089D01*
G01X1338Y37089D01*
G01X1338Y36510D01*
G37*
G54D29*
G01X44077Y32622D03*
G01X38624Y31622D03*
G01X109702Y25122D03*
G01X104249Y24122D03*
G01X14077Y32622D03*
G01X8624Y31622D03*
G01X29077Y32622D03*
G01X23624Y31622D03*
G01X36577Y32622D03*
G01X31124Y31622D03*
G01X51577Y32622D03*
G01X46124Y31622D03*
G01X59077Y32622D03*
G01X53624Y31622D03*
G01X66577Y32622D03*
G01X61124Y31622D03*
G01X74077Y32622D03*
G01X68624Y31622D03*
G01X81577Y32622D03*
G01X76124Y31622D03*
G01X89077Y32622D03*
G01X83624Y31622D03*
G01X96577Y32622D03*
G01X91124Y31622D03*
G01X107827Y32622D03*
G01X102374Y31622D03*
G01X8452Y25122D03*
G01X2999Y24122D03*
G01X17827Y25122D03*
G01X12374Y24122D03*
G01X25327Y25122D03*
G01X19874Y24122D03*
G01X32827Y25122D03*
G01X27374Y24122D03*
G01X40327Y25122D03*
G01X34874Y24122D03*
G01X47827Y25122D03*
G01X42374Y24122D03*
G01X55327Y25122D03*
G01X49874Y24122D03*
G01X62827Y25122D03*
G01X57374Y24122D03*
G01X70327Y25122D03*
G01X64874Y24122D03*
G01X77827Y25122D03*
G01X72374Y24122D03*
G01X85327Y25122D03*
G01X79874Y24122D03*
G01X92827Y25122D03*
G01X87374Y24122D03*
G01X100327Y25122D03*
G01X94874Y24122D03*
G01X9389Y17622D03*
G01X3937Y16622D03*
G01X19702Y17622D03*
G01X14249Y16622D03*
G01X27202Y17622D03*
G01X21749Y16622D03*
G01X34702Y17622D03*
G01X29249Y16622D03*
G01X42202Y17622D03*
G01X36749Y16622D03*
G01X49702Y17622D03*
G01X44249Y16622D03*
G01X57202Y17622D03*
G01X51749Y16622D03*
G01X64702Y17622D03*
G01X59249Y16622D03*
G01X72202Y17622D03*
G01X66749Y16622D03*
G01X79702Y17622D03*
G01X74249Y16622D03*
G01X87202Y17622D03*
G01X81749Y16622D03*
G01X94702Y17622D03*
G01X89249Y16622D03*
G01X106889Y17622D03*
G01X101436Y16622D03*
G01X11264Y10122D03*
G01X5812Y9122D03*
G01X23452Y10122D03*
G01X17999Y9122D03*
G01X30952Y10122D03*
G01X25499Y9122D03*
G01X38452Y10122D03*
G01X32999Y9122D03*
G01X45952Y10122D03*
G01X40499Y9122D03*
G01X53452Y10122D03*
G01X47999Y9122D03*
G01X60952Y10122D03*
G01X55499Y9122D03*
G01X68452Y10122D03*
G01X62999Y9122D03*
G01X75952Y10122D03*
G01X70499Y9122D03*
G01X83452Y10122D03*
G01X77999Y9122D03*
G01X90952Y10122D03*
G01X85499Y9122D03*
G01X105014Y10122D03*
G01X99562Y9122D03*
G01X7514Y2622D03*
G01X2062Y1622D03*
G01X16889Y2622D03*
G01X11437Y1622D03*
G01X26264Y2622D03*
G01X20812Y1622D03*
G01X54389Y2622D03*
G01X48937Y1622D03*
G01X82514Y2622D03*
G01X77062Y1622D03*
G01X91889Y2622D03*
G01X86436Y1622D03*
G01X101264Y2622D03*
G01X95812Y1622D03*
G01X110639Y2622D03*
G01X105186Y1622D03*
G01X6577Y32622D03*
G01X1124Y31622D03*
G01X21577Y32622D03*
G01X16124Y31622D03*
M00*
M02*
