M48
; DRILL file {KiCad (5.1.0)-1} date 2019-04-30 15:13:16
; FORMAT={-:-/ absolute / metric / decimal}
; #@! TF.CreationDate,2019-04-30T15:13:16+08:00
; #@! TF.GenerationSoftware,Kicad,Pcbnew,(5.1.0)-1
; #@! TF.FileFunction,NonPlated,1,2,NPTH
FMAT,2
METRIC
T1C0.600
T2C0.650
T3C1.702
T4C2.499
T5C3.000
T6C3.988
%
G90
G05
T2
X77.936Y-69.42
X83.716Y-69.42
T3
X323.532Y-73.819
X333.692Y-73.819
X185.42Y-130.969
X195.58Y-130.969
X271.145Y-111.919
X281.305Y-111.919
X237.808Y-73.819
X247.968Y-73.819
X142.558Y-73.819
X152.718Y-73.819
X261.62Y-130.969
X271.78Y-130.969
X137.795Y-111.919
X147.955Y-111.919
X247.332Y-92.869
X257.492Y-92.869
X194.945Y-111.919
X205.105Y-111.919
X290.195Y-111.919
X300.355Y-111.919
X109.22Y-130.969
X119.38Y-130.969
X156.845Y-111.919
X167.005Y-111.919
X180.658Y-73.819
X190.818Y-73.819
X306.864Y-150.019
X317.024Y-150.019
X304.482Y-92.869
X314.642Y-92.869
X161.608Y-73.819
X171.768Y-73.819
X330.676Y-150.019
X340.836Y-150.019
X71.12Y-92.869
X81.28Y-92.869
X328.295Y-92.869
X338.455Y-92.869
X66.358Y-73.819
X76.517Y-73.819
X228.282Y-92.869
X238.442Y-92.869
X280.67Y-130.969
X290.83Y-130.969
X152.082Y-92.869
X162.242Y-92.869
X204.47Y-130.969
X214.63Y-130.969
X128.27Y-130.969
X138.43Y-130.969
X171.132Y-92.869
X181.292Y-92.869
X92.551Y-150.019
X102.711Y-150.019
X99.695Y-111.919
X109.855Y-111.919
X266.382Y-92.869
X276.542Y-92.869
X233.045Y-111.919
X243.205Y-111.919
X175.895Y-111.919
X186.055Y-111.919
X166.37Y-130.969
X176.53Y-130.969
X213.995Y-111.919
X224.155Y-111.919
X223.52Y-130.969
X233.68Y-130.969
X275.908Y-73.819
X286.068Y-73.819
X85.407Y-73.819
X95.567Y-73.819
X116.364Y-150.019
X126.524Y-150.019
X133.032Y-92.869
X143.192Y-92.869
X104.458Y-73.819
X114.618Y-73.819
X285.432Y-92.869
X295.592Y-92.869
X316.389Y-130.969
X326.549Y-130.969
X94.932Y-92.869
X105.092Y-92.869
X68.739Y-150.019
X78.899Y-150.019
X147.32Y-130.969
X157.48Y-130.969
X190.182Y-92.869
X200.342Y-92.869
X199.708Y-73.819
X209.868Y-73.819
X283.051Y-150.019
X293.211Y-150.019
X252.095Y-111.919
X262.255Y-111.919
X294.958Y-73.819
X305.118Y-73.819
X73.501Y-111.919
X83.661Y-111.919
X78.264Y-130.969
X88.424Y-130.969
X321.151Y-111.919
X331.311Y-111.919
X218.758Y-73.819
X228.918Y-73.819
X259.239Y-150.019
X269.399Y-150.019
X113.982Y-92.869
X124.142Y-92.869
X118.745Y-111.919
X128.905Y-111.919
X187.801Y-150.019
X197.961Y-150.019
X256.858Y-73.819
X267.018Y-73.819
X123.508Y-73.819
X133.668Y-73.819
X242.57Y-130.969
X252.73Y-130.969
X209.232Y-92.869
X219.392Y-92.869
T5
X168.91Y-136.049
X175.26Y-133.509
X216.535Y-116.999
X222.885Y-114.459
X226.06Y-136.049
X232.41Y-133.509
X278.448Y-78.899
X284.798Y-76.359
X87.947Y-78.899
X94.297Y-76.359
X118.904Y-155.099
X125.254Y-152.559
X135.572Y-97.949
X141.922Y-95.409
X106.998Y-78.899
X113.348Y-76.359
X287.972Y-97.949
X294.322Y-95.409
X318.929Y-136.049
X325.279Y-133.509
X97.472Y-97.949
X103.822Y-95.409
X71.279Y-155.099
X77.629Y-152.559
X149.86Y-136.049
X156.21Y-133.509
X192.722Y-97.949
X199.072Y-95.409
X202.248Y-78.899
X208.598Y-76.359
X285.591Y-155.099
X291.941Y-152.559
X254.635Y-116.999
X260.985Y-114.459
X297.498Y-78.899
X303.848Y-76.359
X76.041Y-116.999
X82.391Y-114.459
X80.804Y-136.049
X87.154Y-133.509
X323.691Y-116.999
X330.041Y-114.459
X221.298Y-78.899
X227.648Y-76.359
X261.779Y-155.099
X268.129Y-152.559
X116.522Y-97.949
X122.872Y-95.409
X121.285Y-116.999
X127.635Y-114.459
X190.341Y-155.099
X196.691Y-152.559
X259.398Y-78.899
X265.748Y-76.359
X126.048Y-78.899
X132.398Y-76.359
X245.11Y-136.049
X251.46Y-133.509
X211.772Y-97.949
X218.122Y-95.409
X326.072Y-78.899
X332.422Y-76.359
X187.96Y-136.049
X194.31Y-133.509
X273.685Y-116.999
X280.035Y-114.459
X240.348Y-78.899
X246.698Y-76.359
X145.098Y-78.899
X151.448Y-76.359
X264.16Y-136.049
X270.51Y-133.509
X140.335Y-116.999
X146.685Y-114.459
X249.872Y-97.949
X256.222Y-95.409
X197.485Y-116.999
X203.835Y-114.459
X292.735Y-116.999
X299.085Y-114.459
X111.76Y-136.049
X118.11Y-133.509
X159.385Y-116.999
X165.735Y-114.459
X183.198Y-78.899
X189.548Y-76.359
X309.404Y-155.099
X315.754Y-152.559
X307.022Y-97.949
X313.372Y-95.409
X164.148Y-78.899
X170.498Y-76.359
X333.216Y-155.099
X339.566Y-152.559
X73.66Y-97.949
X80.01Y-95.409
X330.835Y-97.949
X337.185Y-95.409
X68.897Y-78.899
X75.248Y-76.359
X230.822Y-97.949
X237.172Y-95.409
X283.21Y-136.049
X289.56Y-133.509
X154.622Y-97.949
X160.972Y-95.409
X207.01Y-136.049
X213.36Y-133.509
X130.81Y-136.049
X137.16Y-133.509
X173.672Y-97.949
X180.022Y-95.409
X95.091Y-155.099
X101.441Y-152.559
X102.235Y-116.999
X108.585Y-114.459
X268.922Y-97.949
X275.272Y-95.409
X235.585Y-116.999
X241.935Y-114.459
X178.435Y-116.999
X184.785Y-114.459
T6
X209.55Y-130.969
X133.35Y-130.969
X176.212Y-92.869
X97.631Y-150.019
X104.775Y-111.919
X271.462Y-92.869
X238.125Y-111.919
X180.975Y-111.919
X171.45Y-130.969
X219.075Y-111.919
X228.6Y-130.969
X280.988Y-73.819
X90.487Y-73.819
X121.444Y-150.019
X138.112Y-92.869
X109.538Y-73.819
X290.512Y-92.869
X321.469Y-130.969
X100.012Y-92.869
X73.819Y-150.019
X152.4Y-130.969
X195.262Y-92.869
X204.788Y-73.819
X288.131Y-150.019
X257.175Y-111.919
X300.038Y-73.819
X78.581Y-111.919
X83.344Y-130.969
X326.231Y-111.919
X223.838Y-73.819
X264.319Y-150.019
X119.062Y-92.869
X123.825Y-111.919
X192.881Y-150.019
X261.938Y-73.819
X128.588Y-73.819
X247.65Y-130.969
X214.312Y-92.869
X328.612Y-73.819
X190.5Y-130.969
X276.225Y-111.919
X242.888Y-73.819
X147.638Y-73.819
X266.7Y-130.969
X142.875Y-111.919
X252.412Y-92.869
X200.025Y-111.919
X295.275Y-111.919
X114.3Y-130.969
X161.925Y-111.919
X185.738Y-73.819
X311.944Y-150.019
X309.562Y-92.869
X166.688Y-73.819
X335.756Y-150.019
X76.2Y-92.869
X333.375Y-92.869
X71.438Y-73.819
X233.362Y-92.869
X285.75Y-130.969
X157.162Y-92.869
T1
G00X85.146Y-69.4
M15
G01X85.146Y-70.5
M16
G05
T4
G00X321.089Y-92.521
M15
G01X323.591Y-92.521
M16
G05
G00X251.538Y-149.821
M15
G01X254.04Y-149.821
M16
G05
G00X86.238Y-92.521
M15
G01X88.74Y-92.521
M16
G05
G00X189.239Y-111.62
M15
G01X191.741Y-111.62
M16
G05
T0
M30
