M48
; DRILL file {KiCad (5.1.0)-1} date 2019-04-30 15:13:16
; FORMAT={-:-/ absolute / metric / decimal}
; #@! TF.CreationDate,2019-04-30T15:13:16+08:00
; #@! TF.GenerationSoftware,Kicad,Pcbnew,(5.1.0)-1
; #@! TF.FileFunction,Plated,1,2,PTH
FMAT,2
METRIC
T1C0.400
T2C0.600
T3C0.650
T4C0.800
T5C0.900
T6C1.000
T7C1.300
%
G90
G05
T1
X64.11Y-68.71
X65.179Y-78.862
X66.051Y-100.503
X67.579Y-155.184
X68.519Y-135.919
X69.941Y-97.983
X72.266Y-116.944
X74.196Y-66.281
X76.078Y-126.984
X76.995Y-136.086
X78.925Y-76.312
X81.382Y-152.687
X82.788Y-138.805
X83.762Y-95.331
X84.228Y-136.322
X84.229Y-78.862
X86.086Y-114.44
X90.919Y-133.482
X91.336Y-155.103
X93.688Y-97.986
X94.326Y-116.909
X94.811Y-140.939
X94.811Y-142.119
X98.026Y-76.307
X98.506Y-116.987
X100.677Y-140.19
X100.92Y-135.893
X103.279Y-78.862
X105.181Y-152.603
X105.41Y-130.936
X107.599Y-95.41
X107.955Y-136.08
X112.326Y-114.506
X112.738Y-97.986
X114.159Y-136.789
X115.217Y-155.062
X115.564Y-123.651
X117.076Y-76.307
X117.556Y-116.987
X118.146Y-152.047
X121.854Y-133.599
X122.329Y-78.862
X124.459Y-86.565
X126.649Y-95.41
X127.005Y-136.08
X128.563Y-143.954
X128.976Y-152.527
X131.376Y-114.506
X131.788Y-97.986
X136.059Y-141.736
X136.126Y-76.307
X136.426Y-122.806
X136.606Y-116.987
X136.866Y-143.017
X140.045Y-143.846
X140.904Y-133.599
X141.379Y-78.862
X142.444Y-130.621
X142.843Y-148.533
X143.375Y-146.624
X145.699Y-95.41
X146.055Y-136.08
X148.396Y-151.344
X150.426Y-114.506
X150.838Y-97.986
X152.219Y-151.035
X155.176Y-76.307
X155.656Y-116.987
X155.675Y-151.732
X156.629Y-158.162
X156.898Y-141.857
X158.326Y-158.283
X159.021Y-127.585
X159.434Y-147.952
X159.557Y-153.819
X159.684Y-145.553
X159.842Y-138.801
X159.954Y-133.599
X160.429Y-78.862
X160.791Y-147.333
X161.838Y-144.918
X164.495Y-155.675
X164.573Y-144.796
X164.616Y-152.992
X164.702Y-148.185
X164.749Y-95.41
X165.105Y-136.08
X166.334Y-145.178
X167.714Y-145.108
X167.739Y-140.386
X169.476Y-114.506
X169.888Y-97.986
X172.717Y-155.544
X174.226Y-76.307
X174.706Y-116.987
X179.004Y-133.599
X179.479Y-78.862
X183.799Y-95.41
X184.155Y-136.08
X186.548Y-155.072
X188.526Y-114.506
X188.938Y-97.986
X190.61Y-142.238
X193.276Y-76.307
X193.756Y-116.987
X196.972Y-141.171
X198.054Y-133.599
X198.529Y-78.862
X199.243Y-157.853
X200.442Y-152.512
X202.849Y-95.41
X203.205Y-136.08
X207.576Y-114.506
X207.988Y-97.986
X212.326Y-76.307
X212.806Y-116.987
X217.104Y-133.599
X217.579Y-78.862
X221.899Y-95.41
X222.255Y-136.08
X226.626Y-114.506
X227.038Y-97.986
X231.376Y-76.307
X231.856Y-116.987
X236.154Y-133.599
X236.629Y-78.862
X240.949Y-95.41
X241.305Y-136.08
X245.676Y-114.506
X246.088Y-97.986
X250.426Y-76.307
X250.906Y-116.987
X255.204Y-133.599
X255.679Y-78.862
X258.018Y-155.049
X259.999Y-95.41
X260.355Y-136.08
X264.726Y-114.506
X265.138Y-97.986
X269.476Y-76.307
X269.956Y-116.987
X271.894Y-152.547
X274.254Y-133.599
X274.729Y-78.862
X276.094Y-139.289
X279.049Y-95.41
X279.405Y-136.08
X281.904Y-155.031
X283.776Y-114.506
X284.188Y-97.986
X288.526Y-76.307
X289.006Y-116.987
X293.304Y-133.599
X293.779Y-78.862
X295.73Y-152.547
X298.099Y-95.41
X300.68Y-141.337
X302.826Y-114.506
X303.238Y-97.986
X305.661Y-155.075
X307.576Y-76.307
X315.156Y-136.002
X317.149Y-95.41
X319.499Y-152.527
X319.936Y-117.041
X322.26Y-78.938
X326.853Y-152.08
X327.055Y-97.894
X329.016Y-133.507
X329.468Y-155.077
X333.809Y-114.511
X336.182Y-76.322
X337.696Y-137.107
X340.962Y-95.362
X343.271Y-152.634
X344.853Y-149.195
X345.117Y-82.954
X345.138Y-141.463
T3
X106.517Y-83.581
X106.517Y-84.831
T4
X139.969Y-154.976
X139.969Y-157.516
T5
X343.685Y-86.982
X343.685Y-126.144
X64.643Y-83.48
X64.643Y-93.64
X64.643Y-96.18
X64.643Y-91.1
X343.685Y-106.563
X64.643Y-88.56
X64.643Y-86.02
T6
X205.85Y-145.75
X205.85Y-148.29
X205.85Y-150.83
X205.85Y-153.37
X127.665Y-82.954
X127.665Y-85.494
T7
X281.94Y-128.429
X288.29Y-125.889
X153.352Y-90.329
X159.702Y-87.789
X205.74Y-128.429
X212.09Y-125.889
X129.54Y-128.429
X135.89Y-125.889
X172.402Y-90.329
X178.752Y-87.789
X93.821Y-147.479
X100.171Y-144.939
X100.965Y-109.379
X107.315Y-106.839
X267.652Y-90.329
X274.002Y-87.789
X234.315Y-109.379
X240.665Y-106.839
X177.165Y-109.379
X183.515Y-106.839
X167.64Y-128.429
X173.99Y-125.889
X215.265Y-109.379
X221.615Y-106.839
X224.79Y-128.429
X231.14Y-125.889
X277.178Y-71.279
X283.528Y-68.739
X86.677Y-71.279
X93.027Y-68.739
X117.634Y-147.479
X123.984Y-144.939
X134.302Y-90.329
X140.652Y-87.789
X105.728Y-71.279
X112.078Y-68.739
X286.702Y-90.329
X293.052Y-87.789
X317.659Y-128.429
X324.009Y-125.889
X96.202Y-90.329
X102.552Y-87.789
X70.009Y-147.479
X76.359Y-144.939
X148.59Y-128.429
X154.94Y-125.889
X191.452Y-90.329
X197.802Y-87.789
X200.978Y-71.279
X207.328Y-68.739
X284.321Y-147.479
X290.671Y-144.939
X253.365Y-109.379
X259.715Y-106.839
X296.228Y-71.279
X302.578Y-68.739
X74.771Y-109.379
X81.121Y-106.839
X79.534Y-128.429
X85.884Y-125.889
X322.421Y-109.379
X328.771Y-106.839
X220.028Y-71.279
X226.378Y-68.739
X260.509Y-147.479
X266.859Y-144.939
X115.252Y-90.329
X121.602Y-87.789
X120.015Y-109.379
X126.365Y-106.839
X189.071Y-147.479
X195.421Y-144.939
X258.128Y-71.279
X264.478Y-68.739
X124.778Y-71.279
X131.128Y-68.739
X243.84Y-128.429
X250.19Y-125.889
X210.502Y-90.329
X216.852Y-87.789
X324.802Y-71.279
X331.152Y-68.739
X186.69Y-128.429
X193.04Y-125.889
X272.415Y-109.379
X278.765Y-106.839
X239.078Y-71.279
X245.428Y-68.739
X143.828Y-71.279
X150.178Y-68.739
X262.89Y-128.429
X269.24Y-125.889
X139.065Y-109.379
X145.415Y-106.839
X248.602Y-90.329
X254.952Y-87.789
X196.215Y-109.379
X202.565Y-106.839
X291.465Y-109.379
X297.815Y-106.839
X110.49Y-128.429
X116.84Y-125.889
X158.115Y-109.379
X164.465Y-106.839
X181.928Y-71.279
X188.278Y-68.739
X308.134Y-147.479
X314.484Y-144.939
X305.752Y-90.329
X312.102Y-87.789
X162.878Y-71.279
X169.228Y-68.739
X331.946Y-147.479
X338.296Y-144.939
X72.39Y-90.329
X78.74Y-87.789
X329.565Y-90.329
X335.915Y-87.789
X67.627Y-71.279
X73.977Y-68.739
X229.552Y-90.329
X235.902Y-87.789
T2
G00X76.506Y-65.47
M15
G01X76.506Y-66.07
M16
G05
G00X76.506Y-69.4
M15
G01X76.506Y-70.5
M16
G05
G00X85.146Y-65.47
M15
G01X85.146Y-66.07
M16
G05
T0
M30
