%TF.GenerationSoftware,KiCad,Pcbnew,(5.1.0)-1*%
%TF.CreationDate,2019-04-30T15:13:16+08:00*%
%TF.ProjectId,keyboard,6b657962-6f61-4726-942e-6b696361645f,rev.C*%
%TF.SameCoordinates,PX3b67bd4PY97d81e8*%
%TF.FileFunction,Legend,Top*%
%TF.FilePolarity,Positive*%
%FSLAX46Y46*%
G04 Gerber Fmt 4.6, Leading zero omitted, Abs format (unit mm)*
G04 Created by KiCad (PCBNEW (5.1.0)-1) date 2019-04-30 15:13:16*
%MOMM*%
%LPD*%
G04 APERTURE LIST*
%ADD10C,0.254000*%
%ADD11C,0.190500*%
%ADD12C,0.304800*%
%ADD13C,0.010000*%
%ADD14C,0.200000*%
%ADD15C,0.250000*%
%ADD16C,0.150000*%
G04 APERTURE END LIST*
D10*
X221765333Y-155349428D02*
X221765333Y-153825428D01*
X222007238Y-153825428D01*
X222152380Y-153898000D01*
X222249142Y-154043142D01*
X222297523Y-154188285D01*
X222345904Y-154478571D01*
X222345904Y-154696285D01*
X222297523Y-154986571D01*
X222249142Y-155131714D01*
X222152380Y-155276857D01*
X222007238Y-155349428D01*
X221765333Y-155349428D01*
X222732952Y-154914000D02*
X223216761Y-154914000D01*
X222636190Y-155349428D02*
X222974857Y-153825428D01*
X223313523Y-155349428D01*
X223507047Y-153825428D02*
X224087619Y-153825428D01*
X223797333Y-155349428D02*
X223797333Y-153825428D01*
X224426285Y-154551142D02*
X224764952Y-154551142D01*
X224910095Y-155349428D02*
X224426285Y-155349428D01*
X224426285Y-153825428D01*
X224910095Y-153825428D01*
X226119619Y-155204285D02*
X226168000Y-155276857D01*
X226119619Y-155349428D01*
X226071238Y-155276857D01*
X226119619Y-155204285D01*
X226119619Y-155349428D01*
X226119619Y-154406000D02*
X226168000Y-154478571D01*
X226119619Y-154551142D01*
X226071238Y-154478571D01*
X226119619Y-154406000D01*
X226119619Y-154551142D01*
X227329142Y-153970571D02*
X227377523Y-153898000D01*
X227474285Y-153825428D01*
X227716190Y-153825428D01*
X227812952Y-153898000D01*
X227861333Y-153970571D01*
X227909714Y-154115714D01*
X227909714Y-154260857D01*
X227861333Y-154478571D01*
X227280761Y-155349428D01*
X227909714Y-155349428D01*
X228538666Y-153825428D02*
X228635428Y-153825428D01*
X228732190Y-153898000D01*
X228780571Y-153970571D01*
X228828952Y-154115714D01*
X228877333Y-154406000D01*
X228877333Y-154768857D01*
X228828952Y-155059142D01*
X228780571Y-155204285D01*
X228732190Y-155276857D01*
X228635428Y-155349428D01*
X228538666Y-155349428D01*
X228441904Y-155276857D01*
X228393523Y-155204285D01*
X228345142Y-155059142D01*
X228296761Y-154768857D01*
X228296761Y-154406000D01*
X228345142Y-154115714D01*
X228393523Y-153970571D01*
X228441904Y-153898000D01*
X228538666Y-153825428D01*
X229844952Y-155349428D02*
X229264380Y-155349428D01*
X229554666Y-155349428D02*
X229554666Y-153825428D01*
X229457904Y-154043142D01*
X229361142Y-154188285D01*
X229264380Y-154260857D01*
X230328761Y-155349428D02*
X230522285Y-155349428D01*
X230619047Y-155276857D01*
X230667428Y-155204285D01*
X230764190Y-154986571D01*
X230812571Y-154696285D01*
X230812571Y-154115714D01*
X230764190Y-153970571D01*
X230715809Y-153898000D01*
X230619047Y-153825428D01*
X230425523Y-153825428D01*
X230328761Y-153898000D01*
X230280380Y-153970571D01*
X230232000Y-154115714D01*
X230232000Y-154478571D01*
X230280380Y-154623714D01*
X230328761Y-154696285D01*
X230425523Y-154768857D01*
X230619047Y-154768857D01*
X230715809Y-154696285D01*
X230764190Y-154623714D01*
X230812571Y-154478571D01*
X231441523Y-153825428D02*
X231538285Y-153825428D01*
X231635047Y-153898000D01*
X231683428Y-153970571D01*
X231731809Y-154115714D01*
X231780190Y-154406000D01*
X231780190Y-154768857D01*
X231731809Y-155059142D01*
X231683428Y-155204285D01*
X231635047Y-155276857D01*
X231538285Y-155349428D01*
X231441523Y-155349428D01*
X231344761Y-155276857D01*
X231296380Y-155204285D01*
X231248000Y-155059142D01*
X231199619Y-154768857D01*
X231199619Y-154406000D01*
X231248000Y-154115714D01*
X231296380Y-153970571D01*
X231344761Y-153898000D01*
X231441523Y-153825428D01*
X232651047Y-154333428D02*
X232651047Y-155349428D01*
X232409142Y-153752857D02*
X232167238Y-154841428D01*
X232796190Y-154841428D01*
X233715428Y-155349428D02*
X233134857Y-155349428D01*
X233425142Y-155349428D02*
X233425142Y-153825428D01*
X233328380Y-154043142D01*
X233231619Y-154188285D01*
X233134857Y-154260857D01*
X234634666Y-153825428D02*
X234150857Y-153825428D01*
X234102476Y-154551142D01*
X234150857Y-154478571D01*
X234247619Y-154406000D01*
X234489523Y-154406000D01*
X234586285Y-154478571D01*
X234634666Y-154551142D01*
X234683047Y-154696285D01*
X234683047Y-155059142D01*
X234634666Y-155204285D01*
X234586285Y-155276857D01*
X234489523Y-155349428D01*
X234247619Y-155349428D01*
X234150857Y-155276857D01*
X234102476Y-155204285D01*
D11*
X215330380Y-150618000D02*
X215233619Y-150545428D01*
X215088476Y-150545428D01*
X214943333Y-150618000D01*
X214846571Y-150763142D01*
X214798190Y-150908285D01*
X214749809Y-151198571D01*
X214749809Y-151416285D01*
X214798190Y-151706571D01*
X214846571Y-151851714D01*
X214943333Y-151996857D01*
X215088476Y-152069428D01*
X215185238Y-152069428D01*
X215330380Y-151996857D01*
X215378761Y-151924285D01*
X215378761Y-151416285D01*
X215185238Y-151416285D01*
X215669047Y-150545428D02*
X216249619Y-150545428D01*
X215959333Y-152069428D02*
X215959333Y-150545428D01*
X217701047Y-151271142D02*
X217846190Y-151343714D01*
X217894571Y-151416285D01*
X217942952Y-151561428D01*
X217942952Y-151779142D01*
X217894571Y-151924285D01*
X217846190Y-151996857D01*
X217749428Y-152069428D01*
X217362380Y-152069428D01*
X217362380Y-150545428D01*
X217701047Y-150545428D01*
X217797809Y-150618000D01*
X217846190Y-150690571D01*
X217894571Y-150835714D01*
X217894571Y-150980857D01*
X217846190Y-151126000D01*
X217797809Y-151198571D01*
X217701047Y-151271142D01*
X217362380Y-151271142D01*
X218862190Y-152069428D02*
X218378380Y-152069428D01*
X218378380Y-150545428D01*
X219200857Y-151271142D02*
X219539523Y-151271142D01*
X219684666Y-152069428D02*
X219200857Y-152069428D01*
X219200857Y-150545428D01*
X219684666Y-150545428D01*
X220555523Y-150545428D02*
X220362000Y-150545428D01*
X220265238Y-150618000D01*
X220216857Y-150690571D01*
X220120095Y-150908285D01*
X220071714Y-151198571D01*
X220071714Y-151779142D01*
X220120095Y-151924285D01*
X220168476Y-151996857D01*
X220265238Y-152069428D01*
X220458761Y-152069428D01*
X220555523Y-151996857D01*
X220603904Y-151924285D01*
X220652285Y-151779142D01*
X220652285Y-151416285D01*
X220603904Y-151271142D01*
X220555523Y-151198571D01*
X220458761Y-151126000D01*
X220265238Y-151126000D01*
X220168476Y-151198571D01*
X220120095Y-151271142D01*
X220071714Y-151416285D01*
X221281238Y-150545428D02*
X221378000Y-150545428D01*
X221474761Y-150618000D01*
X221523142Y-150690571D01*
X221571523Y-150835714D01*
X221619904Y-151126000D01*
X221619904Y-151488857D01*
X221571523Y-151779142D01*
X221523142Y-151924285D01*
X221474761Y-151996857D01*
X221378000Y-152069428D01*
X221281238Y-152069428D01*
X221184476Y-151996857D01*
X221136095Y-151924285D01*
X221087714Y-151779142D01*
X221039333Y-151488857D01*
X221039333Y-151126000D01*
X221087714Y-150835714D01*
X221136095Y-150690571D01*
X221184476Y-150618000D01*
X221281238Y-150545428D01*
X223410000Y-152069428D02*
X223071333Y-151343714D01*
X222829428Y-152069428D02*
X222829428Y-150545428D01*
X223216476Y-150545428D01*
X223313238Y-150618000D01*
X223361619Y-150690571D01*
X223410000Y-150835714D01*
X223410000Y-151053428D01*
X223361619Y-151198571D01*
X223313238Y-151271142D01*
X223216476Y-151343714D01*
X222829428Y-151343714D01*
X224232476Y-151996857D02*
X224135714Y-152069428D01*
X223942190Y-152069428D01*
X223845428Y-151996857D01*
X223797047Y-151851714D01*
X223797047Y-151271142D01*
X223845428Y-151126000D01*
X223942190Y-151053428D01*
X224135714Y-151053428D01*
X224232476Y-151126000D01*
X224280857Y-151271142D01*
X224280857Y-151416285D01*
X223797047Y-151561428D01*
X224619523Y-151053428D02*
X224861428Y-152069428D01*
X225103333Y-151053428D01*
X225490380Y-151924285D02*
X225538761Y-151996857D01*
X225490380Y-152069428D01*
X225442000Y-151996857D01*
X225490380Y-151924285D01*
X225490380Y-152069428D01*
X225974190Y-152069428D02*
X225974190Y-150545428D01*
X226216095Y-150545428D01*
X226361238Y-150618000D01*
X226458000Y-150763142D01*
X226506380Y-150908285D01*
X226554761Y-151198571D01*
X226554761Y-151416285D01*
X226506380Y-151706571D01*
X226458000Y-151851714D01*
X226361238Y-151996857D01*
X226216095Y-152069428D01*
X225974190Y-152069428D01*
X228586761Y-150908285D02*
X228490000Y-150835714D01*
X228296476Y-150835714D01*
X228199714Y-150908285D01*
X228102952Y-151053428D01*
X228054571Y-151198571D01*
X228054571Y-151488857D01*
X228102952Y-151634000D01*
X228199714Y-151779142D01*
X228296476Y-151851714D01*
X228490000Y-151851714D01*
X228586761Y-151779142D01*
X228393238Y-150327714D02*
X228151333Y-150400285D01*
X227909428Y-150618000D01*
X227764285Y-150980857D01*
X227715904Y-151343714D01*
X227764285Y-151706571D01*
X227909428Y-152069428D01*
X228151333Y-152287142D01*
X228393238Y-152359714D01*
X228635142Y-152287142D01*
X228877047Y-152069428D01*
X229022190Y-151706571D01*
X229070571Y-151343714D01*
X229022190Y-150980857D01*
X228877047Y-150618000D01*
X228635142Y-150400285D01*
X228393238Y-150327714D01*
X229457619Y-150690571D02*
X229506000Y-150618000D01*
X229602761Y-150545428D01*
X229844666Y-150545428D01*
X229941428Y-150618000D01*
X229989809Y-150690571D01*
X230038190Y-150835714D01*
X230038190Y-150980857D01*
X229989809Y-151198571D01*
X229409238Y-152069428D01*
X230038190Y-152069428D01*
X230667142Y-150545428D02*
X230763904Y-150545428D01*
X230860666Y-150618000D01*
X230909047Y-150690571D01*
X230957428Y-150835714D01*
X231005809Y-151126000D01*
X231005809Y-151488857D01*
X230957428Y-151779142D01*
X230909047Y-151924285D01*
X230860666Y-151996857D01*
X230763904Y-152069428D01*
X230667142Y-152069428D01*
X230570380Y-151996857D01*
X230522000Y-151924285D01*
X230473619Y-151779142D01*
X230425238Y-151488857D01*
X230425238Y-151126000D01*
X230473619Y-150835714D01*
X230522000Y-150690571D01*
X230570380Y-150618000D01*
X230667142Y-150545428D01*
X231973428Y-152069428D02*
X231392857Y-152069428D01*
X231683142Y-152069428D02*
X231683142Y-150545428D01*
X231586380Y-150763142D01*
X231489619Y-150908285D01*
X231392857Y-150980857D01*
X232457238Y-152069428D02*
X232650761Y-152069428D01*
X232747523Y-151996857D01*
X232795904Y-151924285D01*
X232892666Y-151706571D01*
X232941047Y-151416285D01*
X232941047Y-150835714D01*
X232892666Y-150690571D01*
X232844285Y-150618000D01*
X232747523Y-150545428D01*
X232554000Y-150545428D01*
X232457238Y-150618000D01*
X232408857Y-150690571D01*
X232360476Y-150835714D01*
X232360476Y-151198571D01*
X232408857Y-151343714D01*
X232457238Y-151416285D01*
X232554000Y-151488857D01*
X232747523Y-151488857D01*
X232844285Y-151416285D01*
X232892666Y-151343714D01*
X232941047Y-151198571D01*
X234682761Y-150618000D02*
X234586000Y-150545428D01*
X234440857Y-150545428D01*
X234295714Y-150618000D01*
X234198952Y-150763142D01*
X234150571Y-150908285D01*
X234102190Y-151198571D01*
X234102190Y-151416285D01*
X234150571Y-151706571D01*
X234198952Y-151851714D01*
X234295714Y-151996857D01*
X234440857Y-152069428D01*
X234537619Y-152069428D01*
X234682761Y-151996857D01*
X234731142Y-151924285D01*
X234731142Y-151416285D01*
X234537619Y-151416285D01*
X235311714Y-152069428D02*
X235214952Y-151996857D01*
X235166571Y-151851714D01*
X235166571Y-150545428D01*
X236134190Y-152069428D02*
X236134190Y-151271142D01*
X236085809Y-151126000D01*
X235989047Y-151053428D01*
X235795523Y-151053428D01*
X235698761Y-151126000D01*
X236134190Y-151996857D02*
X236037428Y-152069428D01*
X235795523Y-152069428D01*
X235698761Y-151996857D01*
X235650380Y-151851714D01*
X235650380Y-151706571D01*
X235698761Y-151561428D01*
X235795523Y-151488857D01*
X236037428Y-151488857D01*
X236134190Y-151416285D01*
X236618000Y-152069428D02*
X236618000Y-150545428D01*
X236618000Y-151126000D02*
X236714761Y-151053428D01*
X236908285Y-151053428D01*
X237005047Y-151126000D01*
X237053428Y-151198571D01*
X237101809Y-151343714D01*
X237101809Y-151779142D01*
X237053428Y-151924285D01*
X237005047Y-151996857D01*
X236908285Y-152069428D01*
X236714761Y-152069428D01*
X236618000Y-151996857D01*
X237537238Y-151924285D02*
X237585619Y-151996857D01*
X237537238Y-152069428D01*
X237488857Y-151996857D01*
X237537238Y-151924285D01*
X237537238Y-152069428D01*
X238166190Y-152069428D02*
X238069428Y-151996857D01*
X238021047Y-151924285D01*
X237972666Y-151779142D01*
X237972666Y-151343714D01*
X238021047Y-151198571D01*
X238069428Y-151126000D01*
X238166190Y-151053428D01*
X238311333Y-151053428D01*
X238408095Y-151126000D01*
X238456476Y-151198571D01*
X238504857Y-151343714D01*
X238504857Y-151779142D01*
X238456476Y-151924285D01*
X238408095Y-151996857D01*
X238311333Y-152069428D01*
X238166190Y-152069428D01*
X238940285Y-151053428D02*
X238940285Y-152069428D01*
X238940285Y-151198571D02*
X238988666Y-151126000D01*
X239085428Y-151053428D01*
X239230571Y-151053428D01*
X239327333Y-151126000D01*
X239375714Y-151271142D01*
X239375714Y-152069428D01*
X240004666Y-152069428D02*
X239907904Y-151996857D01*
X239859523Y-151851714D01*
X239859523Y-150545428D01*
X240391714Y-152069428D02*
X240391714Y-151053428D01*
X240391714Y-150545428D02*
X240343333Y-150618000D01*
X240391714Y-150690571D01*
X240440095Y-150618000D01*
X240391714Y-150545428D01*
X240391714Y-150690571D01*
X240875523Y-151053428D02*
X240875523Y-152069428D01*
X240875523Y-151198571D02*
X240923904Y-151126000D01*
X241020666Y-151053428D01*
X241165809Y-151053428D01*
X241262571Y-151126000D01*
X241310952Y-151271142D01*
X241310952Y-152069428D01*
X242181809Y-151996857D02*
X242085047Y-152069428D01*
X241891523Y-152069428D01*
X241794761Y-151996857D01*
X241746380Y-151851714D01*
X241746380Y-151271142D01*
X241794761Y-151126000D01*
X241891523Y-151053428D01*
X242085047Y-151053428D01*
X242181809Y-151126000D01*
X242230190Y-151271142D01*
X242230190Y-151416285D01*
X241746380Y-151561428D01*
D12*
X229375425Y-147273554D02*
X229810854Y-147467078D01*
X229955997Y-147660601D01*
X230101140Y-148047649D01*
X230101140Y-148628220D01*
X229955997Y-149015268D01*
X229810854Y-149208792D01*
X229520568Y-149402316D01*
X228359425Y-149402316D01*
X228359425Y-145338316D01*
X229375425Y-145338316D01*
X229665711Y-145531840D01*
X229810854Y-145725363D01*
X229955997Y-146112411D01*
X229955997Y-146499459D01*
X229810854Y-146886506D01*
X229665711Y-147080030D01*
X229375425Y-147273554D01*
X228359425Y-147273554D01*
X232858854Y-149402316D02*
X231407425Y-149402316D01*
X231407425Y-145338316D01*
X233874854Y-147273554D02*
X234890854Y-147273554D01*
X235326282Y-149402316D02*
X233874854Y-149402316D01*
X233874854Y-145338316D01*
X235326282Y-145338316D01*
X237938854Y-145338316D02*
X237358282Y-145338316D01*
X237067997Y-145531840D01*
X236922854Y-145725363D01*
X236632568Y-146305935D01*
X236487425Y-147080030D01*
X236487425Y-148628220D01*
X236632568Y-149015268D01*
X236777711Y-149208792D01*
X237067997Y-149402316D01*
X237648568Y-149402316D01*
X237938854Y-149208792D01*
X238083997Y-149015268D01*
X238229140Y-148628220D01*
X238229140Y-147660601D01*
X238083997Y-147273554D01*
X237938854Y-147080030D01*
X237648568Y-146886506D01*
X237067997Y-146886506D01*
X236777711Y-147080030D01*
X236632568Y-147273554D01*
X236487425Y-147660601D01*
X240115997Y-145338316D02*
X240406282Y-145338316D01*
X240696568Y-145531840D01*
X240841711Y-145725363D01*
X240986854Y-146112411D01*
X241131997Y-146886506D01*
X241131997Y-147854125D01*
X240986854Y-148628220D01*
X240841711Y-149015268D01*
X240696568Y-149208792D01*
X240406282Y-149402316D01*
X240115997Y-149402316D01*
X239825711Y-149208792D01*
X239680568Y-149015268D01*
X239535425Y-148628220D01*
X239390282Y-147854125D01*
X239390282Y-146886506D01*
X239535425Y-146112411D01*
X239680568Y-145725363D01*
X239825711Y-145531840D01*
X240115997Y-145338316D01*
D13*
G36*
X225234192Y-147269358D02*
G01*
X225244902Y-147508496D01*
X225199463Y-147692691D01*
X225144655Y-147765045D01*
X225051664Y-147811387D01*
X224887946Y-147836654D01*
X224620954Y-147845787D01*
X224218145Y-147843724D01*
X224205361Y-147843563D01*
X223810864Y-147835429D01*
X223463553Y-147822589D01*
X223208444Y-147807022D01*
X223107673Y-147795341D01*
X222987376Y-147747575D01*
X222931495Y-147633062D01*
X222917206Y-147402460D01*
X222917173Y-147383538D01*
X222917173Y-147008427D01*
X225182006Y-147008427D01*
X225234192Y-147269358D01*
X225234192Y-147269358D01*
G37*
X225234192Y-147269358D02*
X225244902Y-147508496D01*
X225199463Y-147692691D01*
X225144655Y-147765045D01*
X225051664Y-147811387D01*
X224887946Y-147836654D01*
X224620954Y-147845787D01*
X224218145Y-147843724D01*
X224205361Y-147843563D01*
X223810864Y-147835429D01*
X223463553Y-147822589D01*
X223208444Y-147807022D01*
X223107673Y-147795341D01*
X222987376Y-147747575D01*
X222931495Y-147633062D01*
X222917206Y-147402460D01*
X222917173Y-147383538D01*
X222917173Y-147008427D01*
X225182006Y-147008427D01*
X225234192Y-147269358D01*
G36*
X224803392Y-145241867D02*
G01*
X225319720Y-145276710D01*
X225688682Y-145335738D01*
X225763004Y-145355519D01*
X226279420Y-145593081D01*
X226715959Y-145959394D01*
X227049837Y-146423790D01*
X227258272Y-146955603D01*
X227319840Y-147451103D01*
X227245655Y-148046175D01*
X227024390Y-148557834D01*
X226657981Y-148983092D01*
X226148360Y-149318964D01*
X226092173Y-149346301D01*
X225916506Y-149423410D01*
X225745918Y-149477876D01*
X225546560Y-149513610D01*
X225284584Y-149534521D01*
X224926140Y-149544518D01*
X224437382Y-149547512D01*
X224349451Y-149547600D01*
X223892956Y-149544435D01*
X223497509Y-149535160D01*
X223193483Y-149521004D01*
X223011250Y-149503195D01*
X222973617Y-149491982D01*
X222938669Y-149379015D01*
X222918857Y-149163704D01*
X222917173Y-149074609D01*
X222917173Y-148713680D01*
X224223627Y-148686553D01*
X224772396Y-148671370D01*
X225182155Y-148645634D01*
X225483221Y-148599919D01*
X225705914Y-148524804D01*
X225880553Y-148410865D01*
X226037456Y-148248677D01*
X226167133Y-148082480D01*
X226306918Y-147771627D01*
X226348773Y-147389879D01*
X226293566Y-147003868D01*
X226148998Y-146689649D01*
X225988369Y-146490042D01*
X225813255Y-146342524D01*
X225594777Y-146238399D01*
X225304054Y-146168972D01*
X224912205Y-146125549D01*
X224390349Y-146099433D01*
X224166006Y-146092618D01*
X222917173Y-146058637D01*
X222917173Y-145230427D01*
X224129472Y-145230427D01*
X224803392Y-145241867D01*
X224803392Y-145241867D01*
G37*
X224803392Y-145241867D02*
X225319720Y-145276710D01*
X225688682Y-145335738D01*
X225763004Y-145355519D01*
X226279420Y-145593081D01*
X226715959Y-145959394D01*
X227049837Y-146423790D01*
X227258272Y-146955603D01*
X227319840Y-147451103D01*
X227245655Y-148046175D01*
X227024390Y-148557834D01*
X226657981Y-148983092D01*
X226148360Y-149318964D01*
X226092173Y-149346301D01*
X225916506Y-149423410D01*
X225745918Y-149477876D01*
X225546560Y-149513610D01*
X225284584Y-149534521D01*
X224926140Y-149544518D01*
X224437382Y-149547512D01*
X224349451Y-149547600D01*
X223892956Y-149544435D01*
X223497509Y-149535160D01*
X223193483Y-149521004D01*
X223011250Y-149503195D01*
X222973617Y-149491982D01*
X222938669Y-149379015D01*
X222918857Y-149163704D01*
X222917173Y-149074609D01*
X222917173Y-148713680D01*
X224223627Y-148686553D01*
X224772396Y-148671370D01*
X225182155Y-148645634D01*
X225483221Y-148599919D01*
X225705914Y-148524804D01*
X225880553Y-148410865D01*
X226037456Y-148248677D01*
X226167133Y-148082480D01*
X226306918Y-147771627D01*
X226348773Y-147389879D01*
X226293566Y-147003868D01*
X226148998Y-146689649D01*
X225988369Y-146490042D01*
X225813255Y-146342524D01*
X225594777Y-146238399D01*
X225304054Y-146168972D01*
X224912205Y-146125549D01*
X224390349Y-146099433D01*
X224166006Y-146092618D01*
X222917173Y-146058637D01*
X222917173Y-145230427D01*
X224129472Y-145230427D01*
X224803392Y-145241867D01*
G36*
X222590874Y-145234366D02*
G01*
X222699375Y-145256233D01*
X222695516Y-145311106D01*
X222633962Y-145385260D01*
X222525240Y-145538315D01*
X222493840Y-145628834D01*
X222434655Y-145716570D01*
X222272936Y-145892680D01*
X222032431Y-146132726D01*
X221736892Y-146412275D01*
X221693870Y-146451893D01*
X221385559Y-146744310D01*
X221123120Y-147010890D01*
X220932767Y-147223753D01*
X220840715Y-147355018D01*
X220838085Y-147362072D01*
X220837083Y-147449082D01*
X220892662Y-147568269D01*
X221019401Y-147737818D01*
X221231876Y-147975916D01*
X221544666Y-148300747D01*
X221784898Y-148543180D01*
X222787526Y-149548427D01*
X221920212Y-149548427D01*
X220788859Y-148488643D01*
X220430427Y-148149679D01*
X220120189Y-147850157D01*
X219877358Y-147609132D01*
X219721145Y-147445661D01*
X219670514Y-147379328D01*
X219733389Y-147308098D01*
X219900088Y-147140506D01*
X220150796Y-146895898D01*
X220465704Y-146593618D01*
X220796257Y-146280112D01*
X221908993Y-145230427D01*
X222341538Y-145230427D01*
X222590874Y-145234366D01*
X222590874Y-145234366D01*
G37*
X222590874Y-145234366D02*
X222699375Y-145256233D01*
X222695516Y-145311106D01*
X222633962Y-145385260D01*
X222525240Y-145538315D01*
X222493840Y-145628834D01*
X222434655Y-145716570D01*
X222272936Y-145892680D01*
X222032431Y-146132726D01*
X221736892Y-146412275D01*
X221693870Y-146451893D01*
X221385559Y-146744310D01*
X221123120Y-147010890D01*
X220932767Y-147223753D01*
X220840715Y-147355018D01*
X220838085Y-147362072D01*
X220837083Y-147449082D01*
X220892662Y-147568269D01*
X221019401Y-147737818D01*
X221231876Y-147975916D01*
X221544666Y-148300747D01*
X221784898Y-148543180D01*
X222787526Y-149548427D01*
X221920212Y-149548427D01*
X220788859Y-148488643D01*
X220430427Y-148149679D01*
X220120189Y-147850157D01*
X219877358Y-147609132D01*
X219721145Y-147445661D01*
X219670514Y-147379328D01*
X219733389Y-147308098D01*
X219900088Y-147140506D01*
X220150796Y-146895898D01*
X220465704Y-146593618D01*
X220796257Y-146280112D01*
X221908993Y-145230427D01*
X222341538Y-145230427D01*
X222590874Y-145234366D01*
G36*
X219416020Y-147336754D02*
G01*
X219456086Y-147542857D01*
X219477161Y-147873021D01*
X219476928Y-148282796D01*
X219472286Y-148416254D01*
X219451140Y-148891744D01*
X219427633Y-149223846D01*
X219390441Y-149438267D01*
X219328239Y-149560716D01*
X219229700Y-149616899D01*
X219083501Y-149632525D01*
X218936226Y-149633094D01*
X218514506Y-149633094D01*
X218514506Y-147939760D01*
X218101756Y-147939760D01*
X217791503Y-147928490D01*
X217504599Y-147900199D01*
X217424423Y-147886844D01*
X217259268Y-147839833D01*
X217182569Y-147751207D01*
X217160736Y-147567223D01*
X217159840Y-147463510D01*
X217159840Y-147093094D01*
X219324049Y-147093094D01*
X219416020Y-147336754D01*
X219416020Y-147336754D01*
G37*
X219416020Y-147336754D02*
X219456086Y-147542857D01*
X219477161Y-147873021D01*
X219476928Y-148282796D01*
X219472286Y-148416254D01*
X219451140Y-148891744D01*
X219427633Y-149223846D01*
X219390441Y-149438267D01*
X219328239Y-149560716D01*
X219229700Y-149616899D01*
X219083501Y-149632525D01*
X218936226Y-149633094D01*
X218514506Y-149633094D01*
X218514506Y-147939760D01*
X218101756Y-147939760D01*
X217791503Y-147928490D01*
X217504599Y-147900199D01*
X217424423Y-147886844D01*
X217259268Y-147839833D01*
X217182569Y-147751207D01*
X217160736Y-147567223D01*
X217159840Y-147463510D01*
X217159840Y-147093094D01*
X219324049Y-147093094D01*
X219416020Y-147336754D01*
G36*
X219407623Y-145603593D02*
G01*
X219440186Y-145804557D01*
X219434992Y-145947952D01*
X219369080Y-146044756D01*
X219219489Y-146105947D01*
X218963256Y-146142504D01*
X218577420Y-146165405D01*
X218202623Y-146179741D01*
X217648825Y-146206508D01*
X217240634Y-146243143D01*
X216954463Y-146292597D01*
X216766729Y-146357820D01*
X216762662Y-146359901D01*
X216432776Y-146615156D01*
X216201140Y-146964616D01*
X216079840Y-147365559D01*
X216080966Y-147775264D01*
X216216602Y-148151008D01*
X216243819Y-148193760D01*
X216527913Y-148502823D01*
X216895970Y-148694490D01*
X217372583Y-148779621D01*
X217585777Y-148786295D01*
X217885313Y-148790975D01*
X218060346Y-148815826D01*
X218155670Y-148877330D01*
X218216076Y-148991973D01*
X218227857Y-149022590D01*
X218269100Y-149322778D01*
X218233481Y-149445923D01*
X218177415Y-149538823D01*
X218085802Y-149594694D01*
X217920242Y-149622789D01*
X217642337Y-149632361D01*
X217456758Y-149633094D01*
X217073870Y-149624125D01*
X216790087Y-149587413D01*
X216535681Y-149508246D01*
X216257014Y-149379973D01*
X215773237Y-149054524D01*
X215413365Y-148640863D01*
X215178097Y-148165260D01*
X215068131Y-147653983D01*
X215084166Y-147133301D01*
X215226900Y-146629481D01*
X215497033Y-146168793D01*
X215895262Y-145777504D01*
X216156708Y-145608232D01*
X216332061Y-145514504D01*
X216488252Y-145446928D01*
X216658000Y-145400497D01*
X216874019Y-145370202D01*
X217169027Y-145351033D01*
X217575740Y-145337982D01*
X217980153Y-145329064D01*
X219350800Y-145300700D01*
X219407623Y-145603593D01*
X219407623Y-145603593D01*
G37*
X219407623Y-145603593D02*
X219440186Y-145804557D01*
X219434992Y-145947952D01*
X219369080Y-146044756D01*
X219219489Y-146105947D01*
X218963256Y-146142504D01*
X218577420Y-146165405D01*
X218202623Y-146179741D01*
X217648825Y-146206508D01*
X217240634Y-146243143D01*
X216954463Y-146292597D01*
X216766729Y-146357820D01*
X216762662Y-146359901D01*
X216432776Y-146615156D01*
X216201140Y-146964616D01*
X216079840Y-147365559D01*
X216080966Y-147775264D01*
X216216602Y-148151008D01*
X216243819Y-148193760D01*
X216527913Y-148502823D01*
X216895970Y-148694490D01*
X217372583Y-148779621D01*
X217585777Y-148786295D01*
X217885313Y-148790975D01*
X218060346Y-148815826D01*
X218155670Y-148877330D01*
X218216076Y-148991973D01*
X218227857Y-149022590D01*
X218269100Y-149322778D01*
X218233481Y-149445923D01*
X218177415Y-149538823D01*
X218085802Y-149594694D01*
X217920242Y-149622789D01*
X217642337Y-149632361D01*
X217456758Y-149633094D01*
X217073870Y-149624125D01*
X216790087Y-149587413D01*
X216535681Y-149508246D01*
X216257014Y-149379973D01*
X215773237Y-149054524D01*
X215413365Y-148640863D01*
X215178097Y-148165260D01*
X215068131Y-147653983D01*
X215084166Y-147133301D01*
X215226900Y-146629481D01*
X215497033Y-146168793D01*
X215895262Y-145777504D01*
X216156708Y-145608232D01*
X216332061Y-145514504D01*
X216488252Y-145446928D01*
X216658000Y-145400497D01*
X216874019Y-145370202D01*
X217169027Y-145351033D01*
X217575740Y-145337982D01*
X217980153Y-145329064D01*
X219350800Y-145300700D01*
X219407623Y-145603593D01*
D14*
X74168400Y-101394000D02*
X75488400Y-101394000D01*
X76388400Y-101394000D02*
X77708400Y-101394000D01*
X76388400Y-103464000D02*
X77708400Y-103464000D01*
X74168400Y-103464000D02*
X75488400Y-103464000D01*
X74168400Y-103464000D02*
X74168400Y-101394000D01*
X77708400Y-103464000D02*
X77708400Y-101394000D01*
X73623400Y-102429000D02*
X74168400Y-101394000D01*
X73623400Y-102429000D02*
X74168400Y-103464000D01*
X345482920Y-97036660D02*
X346517920Y-96491660D01*
X345482920Y-97036660D02*
X344447920Y-96491660D01*
X346517920Y-92951660D02*
X344447920Y-92951660D01*
X346517920Y-96491660D02*
X344447920Y-96491660D01*
X346517920Y-96491660D02*
X346517920Y-95171660D01*
X346517920Y-94271660D02*
X346517920Y-92951660D01*
X344447920Y-94271660D02*
X344447920Y-92951660D01*
X344447920Y-96491660D02*
X344447920Y-95171660D01*
X345482920Y-116628810D02*
X346517920Y-116083810D01*
X345482920Y-116628810D02*
X344447920Y-116083810D01*
X346517920Y-112543810D02*
X344447920Y-112543810D01*
X346517920Y-116083810D02*
X344447920Y-116083810D01*
X346517920Y-116083810D02*
X346517920Y-114763810D01*
X346517920Y-113863810D02*
X346517920Y-112543810D01*
X344447920Y-113863810D02*
X344447920Y-112543810D01*
X344447920Y-116083810D02*
X344447920Y-114763810D01*
X345482920Y-136220960D02*
X346517920Y-135675960D01*
X345482920Y-136220960D02*
X344447920Y-135675960D01*
X346517920Y-132135960D02*
X344447920Y-132135960D01*
X346517920Y-135675960D02*
X344447920Y-135675960D01*
X346517920Y-135675960D02*
X346517920Y-134355960D01*
X346517920Y-133455960D02*
X346517920Y-132135960D01*
X344447920Y-133455960D02*
X344447920Y-132135960D01*
X344447920Y-135675960D02*
X344447920Y-134355960D01*
X73423340Y-65747900D02*
X72878340Y-64712900D01*
X73423340Y-65747900D02*
X72878340Y-66782900D01*
X69338340Y-64712900D02*
X69338340Y-66782900D01*
X72878340Y-64712900D02*
X72878340Y-66782900D01*
X72878340Y-64712900D02*
X71558340Y-64712900D01*
X70658340Y-64712900D02*
X69338340Y-64712900D01*
X70658340Y-66782900D02*
X69338340Y-66782900D01*
X72878340Y-66782900D02*
X71558340Y-66782900D01*
D15*
X173688000Y-66818800D02*
X173688000Y-79864000D01*
X172688000Y-66818800D02*
X173688000Y-66818800D01*
X173688000Y-80818800D02*
X172688000Y-80818800D01*
X173688000Y-79818800D02*
X173688000Y-80818800D01*
X159688000Y-80818800D02*
X159688000Y-79818800D01*
X172688000Y-80818800D02*
X159688000Y-80818800D01*
X159688000Y-66818800D02*
X172682400Y-66818800D01*
X159688000Y-79762400D02*
X159688000Y-66818800D01*
X340375000Y-85868800D02*
X340375000Y-98914000D01*
X339375000Y-85868800D02*
X340375000Y-85868800D01*
X340375000Y-99868800D02*
X339375000Y-99868800D01*
X340375000Y-98868800D02*
X340375000Y-99868800D01*
X326375000Y-99868800D02*
X326375000Y-98868800D01*
X339375000Y-99868800D02*
X326375000Y-99868800D01*
X326375000Y-85868800D02*
X339369400Y-85868800D01*
X326375000Y-98812400D02*
X326375000Y-85868800D01*
X97487500Y-66818800D02*
X97487500Y-79864000D01*
X96487500Y-66818800D02*
X97487500Y-66818800D01*
X97487500Y-80818800D02*
X96487500Y-80818800D01*
X97487500Y-79818800D02*
X97487500Y-80818800D01*
X83487500Y-80818800D02*
X83487500Y-79818800D01*
X96487500Y-80818800D02*
X83487500Y-80818800D01*
X83487500Y-66818800D02*
X96481900Y-66818800D01*
X83487500Y-79762400D02*
X83487500Y-66818800D01*
X135588000Y-66818800D02*
X135588000Y-79864000D01*
X134588000Y-66818800D02*
X135588000Y-66818800D01*
X135588000Y-80818800D02*
X134588000Y-80818800D01*
X135588000Y-79818800D02*
X135588000Y-80818800D01*
X121588000Y-80818800D02*
X121588000Y-79818800D01*
X134588000Y-80818800D02*
X121588000Y-80818800D01*
X121588000Y-66818800D02*
X134582400Y-66818800D01*
X121588000Y-79762400D02*
X121588000Y-66818800D01*
X154638000Y-66818800D02*
X154638000Y-79864000D01*
X153638000Y-66818800D02*
X154638000Y-66818800D01*
X154638000Y-80818800D02*
X153638000Y-80818800D01*
X154638000Y-79818800D02*
X154638000Y-80818800D01*
X140638000Y-80818800D02*
X140638000Y-79818800D01*
X153638000Y-80818800D02*
X140638000Y-80818800D01*
X140638000Y-66818800D02*
X153632400Y-66818800D01*
X140638000Y-79762400D02*
X140638000Y-66818800D01*
X192738000Y-66818800D02*
X192738000Y-79864000D01*
X191738000Y-66818800D02*
X192738000Y-66818800D01*
X192738000Y-80818800D02*
X191738000Y-80818800D01*
X192738000Y-79818800D02*
X192738000Y-80818800D01*
X178738000Y-80818800D02*
X178738000Y-79818800D01*
X191738000Y-80818800D02*
X178738000Y-80818800D01*
X178738000Y-66818800D02*
X191732400Y-66818800D01*
X178738000Y-79762400D02*
X178738000Y-66818800D01*
X211788000Y-66818800D02*
X211788000Y-79864000D01*
X210788000Y-66818800D02*
X211788000Y-66818800D01*
X211788000Y-80818800D02*
X210788000Y-80818800D01*
X211788000Y-79818800D02*
X211788000Y-80818800D01*
X197788000Y-80818800D02*
X197788000Y-79818800D01*
X210788000Y-80818800D02*
X197788000Y-80818800D01*
X197788000Y-66818800D02*
X210782400Y-66818800D01*
X197788000Y-79762400D02*
X197788000Y-66818800D01*
X230838000Y-66818800D02*
X230838000Y-79864000D01*
X229838000Y-66818800D02*
X230838000Y-66818800D01*
X230838000Y-80818800D02*
X229838000Y-80818800D01*
X230838000Y-79818800D02*
X230838000Y-80818800D01*
X216838000Y-80818800D02*
X216838000Y-79818800D01*
X229838000Y-80818800D02*
X216838000Y-80818800D01*
X216838000Y-66818800D02*
X229832400Y-66818800D01*
X216838000Y-79762400D02*
X216838000Y-66818800D01*
X249888000Y-66818800D02*
X249888000Y-79864000D01*
X248888000Y-66818800D02*
X249888000Y-66818800D01*
X249888000Y-80818800D02*
X248888000Y-80818800D01*
X249888000Y-79818800D02*
X249888000Y-80818800D01*
X235888000Y-80818800D02*
X235888000Y-79818800D01*
X248888000Y-80818800D02*
X235888000Y-80818800D01*
X235888000Y-66818800D02*
X248882400Y-66818800D01*
X235888000Y-79762400D02*
X235888000Y-66818800D01*
X268938000Y-66818800D02*
X268938000Y-79864000D01*
X267938000Y-66818800D02*
X268938000Y-66818800D01*
X268938000Y-80818800D02*
X267938000Y-80818800D01*
X268938000Y-79818800D02*
X268938000Y-80818800D01*
X254938000Y-80818800D02*
X254938000Y-79818800D01*
X267938000Y-80818800D02*
X254938000Y-80818800D01*
X254938000Y-66818800D02*
X267932400Y-66818800D01*
X254938000Y-79762400D02*
X254938000Y-66818800D01*
X287988000Y-66818800D02*
X287988000Y-79864000D01*
X286988000Y-66818800D02*
X287988000Y-66818800D01*
X287988000Y-80818800D02*
X286988000Y-80818800D01*
X287988000Y-79818800D02*
X287988000Y-80818800D01*
X273988000Y-80818800D02*
X273988000Y-79818800D01*
X286988000Y-80818800D02*
X273988000Y-80818800D01*
X273988000Y-66818800D02*
X286982400Y-66818800D01*
X273988000Y-79762400D02*
X273988000Y-66818800D01*
X307038000Y-66818800D02*
X307038000Y-79864000D01*
X306038000Y-66818800D02*
X307038000Y-66818800D01*
X307038000Y-80818800D02*
X306038000Y-80818800D01*
X307038000Y-79818800D02*
X307038000Y-80818800D01*
X293038000Y-80818800D02*
X293038000Y-79818800D01*
X306038000Y-80818800D02*
X293038000Y-80818800D01*
X293038000Y-66818800D02*
X306032400Y-66818800D01*
X293038000Y-79762400D02*
X293038000Y-66818800D01*
X335612000Y-66818800D02*
X335612000Y-79864000D01*
X334612000Y-66818800D02*
X335612000Y-66818800D01*
X335612000Y-80818800D02*
X334612000Y-80818800D01*
X335612000Y-79818800D02*
X335612000Y-80818800D01*
X321612000Y-80818800D02*
X321612000Y-79818800D01*
X334612000Y-80818800D02*
X321612000Y-80818800D01*
X321612000Y-66818800D02*
X334606400Y-66818800D01*
X321612000Y-79762400D02*
X321612000Y-66818800D01*
X83200000Y-85868800D02*
X83200000Y-98914000D01*
X82200000Y-85868800D02*
X83200000Y-85868800D01*
X83200000Y-99868800D02*
X82200000Y-99868800D01*
X83200000Y-98868800D02*
X83200000Y-99868800D01*
X69200000Y-99868800D02*
X69200000Y-98868800D01*
X82200000Y-99868800D02*
X69200000Y-99868800D01*
X69200000Y-85868800D02*
X82194400Y-85868800D01*
X69200000Y-98812400D02*
X69200000Y-85868800D01*
X107012000Y-85868800D02*
X107012000Y-98914000D01*
X106012000Y-85868800D02*
X107012000Y-85868800D01*
X107012000Y-99868800D02*
X106012000Y-99868800D01*
X107012000Y-98868800D02*
X107012000Y-99868800D01*
X93012000Y-99868800D02*
X93012000Y-98868800D01*
X106012000Y-99868800D02*
X93012000Y-99868800D01*
X93012000Y-85868800D02*
X106006400Y-85868800D01*
X93012000Y-98812400D02*
X93012000Y-85868800D01*
X126062000Y-85868800D02*
X126062000Y-98914000D01*
X125062000Y-85868800D02*
X126062000Y-85868800D01*
X126062000Y-99868800D02*
X125062000Y-99868800D01*
X126062000Y-98868800D02*
X126062000Y-99868800D01*
X112062000Y-99868800D02*
X112062000Y-98868800D01*
X125062000Y-99868800D02*
X112062000Y-99868800D01*
X112062000Y-85868800D02*
X125056400Y-85868800D01*
X112062000Y-98812400D02*
X112062000Y-85868800D01*
X145112000Y-85868800D02*
X145112000Y-98914000D01*
X144112000Y-85868800D02*
X145112000Y-85868800D01*
X145112000Y-99868800D02*
X144112000Y-99868800D01*
X145112000Y-98868800D02*
X145112000Y-99868800D01*
X131112000Y-99868800D02*
X131112000Y-98868800D01*
X144112000Y-99868800D02*
X131112000Y-99868800D01*
X131112000Y-85868800D02*
X144106400Y-85868800D01*
X131112000Y-98812400D02*
X131112000Y-85868800D01*
X164162000Y-85868800D02*
X164162000Y-98914000D01*
X163162000Y-85868800D02*
X164162000Y-85868800D01*
X164162000Y-99868800D02*
X163162000Y-99868800D01*
X164162000Y-98868800D02*
X164162000Y-99868800D01*
X150162000Y-99868800D02*
X150162000Y-98868800D01*
X163162000Y-99868800D02*
X150162000Y-99868800D01*
X150162000Y-85868800D02*
X163156400Y-85868800D01*
X150162000Y-98812400D02*
X150162000Y-85868800D01*
X183212000Y-85868800D02*
X183212000Y-98914000D01*
X182212000Y-85868800D02*
X183212000Y-85868800D01*
X183212000Y-99868800D02*
X182212000Y-99868800D01*
X183212000Y-98868800D02*
X183212000Y-99868800D01*
X169212000Y-99868800D02*
X169212000Y-98868800D01*
X182212000Y-99868800D02*
X169212000Y-99868800D01*
X169212000Y-85868800D02*
X182206400Y-85868800D01*
X169212000Y-98812400D02*
X169212000Y-85868800D01*
X202262000Y-85868800D02*
X202262000Y-98914000D01*
X201262000Y-85868800D02*
X202262000Y-85868800D01*
X202262000Y-99868800D02*
X201262000Y-99868800D01*
X202262000Y-98868800D02*
X202262000Y-99868800D01*
X188262000Y-99868800D02*
X188262000Y-98868800D01*
X201262000Y-99868800D02*
X188262000Y-99868800D01*
X188262000Y-85868800D02*
X201256400Y-85868800D01*
X188262000Y-98812400D02*
X188262000Y-85868800D01*
X221312000Y-85868800D02*
X221312000Y-98914000D01*
X220312000Y-85868800D02*
X221312000Y-85868800D01*
X221312000Y-99868800D02*
X220312000Y-99868800D01*
X221312000Y-98868800D02*
X221312000Y-99868800D01*
X207312000Y-99868800D02*
X207312000Y-98868800D01*
X220312000Y-99868800D02*
X207312000Y-99868800D01*
X207312000Y-85868800D02*
X220306400Y-85868800D01*
X207312000Y-98812400D02*
X207312000Y-85868800D01*
X240362000Y-85868800D02*
X240362000Y-98914000D01*
X239362000Y-85868800D02*
X240362000Y-85868800D01*
X240362000Y-99868800D02*
X239362000Y-99868800D01*
X240362000Y-98868800D02*
X240362000Y-99868800D01*
X226362000Y-99868800D02*
X226362000Y-98868800D01*
X239362000Y-99868800D02*
X226362000Y-99868800D01*
X226362000Y-85868800D02*
X239356400Y-85868800D01*
X226362000Y-98812400D02*
X226362000Y-85868800D01*
X259412000Y-85868800D02*
X259412000Y-98914000D01*
X258412000Y-85868800D02*
X259412000Y-85868800D01*
X259412000Y-99868800D02*
X258412000Y-99868800D01*
X259412000Y-98868800D02*
X259412000Y-99868800D01*
X245412000Y-99868800D02*
X245412000Y-98868800D01*
X258412000Y-99868800D02*
X245412000Y-99868800D01*
X245412000Y-85868800D02*
X258406400Y-85868800D01*
X245412000Y-98812400D02*
X245412000Y-85868800D01*
X278462000Y-85868800D02*
X278462000Y-98914000D01*
X277462000Y-85868800D02*
X278462000Y-85868800D01*
X278462000Y-99868800D02*
X277462000Y-99868800D01*
X278462000Y-98868800D02*
X278462000Y-99868800D01*
X264462000Y-99868800D02*
X264462000Y-98868800D01*
X277462000Y-99868800D02*
X264462000Y-99868800D01*
X264462000Y-85868800D02*
X277456400Y-85868800D01*
X264462000Y-98812400D02*
X264462000Y-85868800D01*
X297512000Y-85868800D02*
X297512000Y-98914000D01*
X296512000Y-85868800D02*
X297512000Y-85868800D01*
X297512000Y-99868800D02*
X296512000Y-99868800D01*
X297512000Y-98868800D02*
X297512000Y-99868800D01*
X283512000Y-99868800D02*
X283512000Y-98868800D01*
X296512000Y-99868800D02*
X283512000Y-99868800D01*
X283512000Y-85868800D02*
X296506400Y-85868800D01*
X283512000Y-98812400D02*
X283512000Y-85868800D01*
X316562000Y-85868800D02*
X316562000Y-98914000D01*
X315562000Y-85868800D02*
X316562000Y-85868800D01*
X316562000Y-99868800D02*
X315562000Y-99868800D01*
X316562000Y-98868800D02*
X316562000Y-99868800D01*
X302562000Y-99868800D02*
X302562000Y-98868800D01*
X315562000Y-99868800D02*
X302562000Y-99868800D01*
X302562000Y-85868800D02*
X315556400Y-85868800D01*
X302562000Y-98812400D02*
X302562000Y-85868800D01*
X85581200Y-104919000D02*
X85581200Y-117964200D01*
X84581200Y-104919000D02*
X85581200Y-104919000D01*
X85581200Y-118919000D02*
X84581200Y-118919000D01*
X85581200Y-117919000D02*
X85581200Y-118919000D01*
X71581200Y-118919000D02*
X71581200Y-117919000D01*
X84581200Y-118919000D02*
X71581200Y-118919000D01*
X71581200Y-104919000D02*
X84575600Y-104919000D01*
X71581200Y-117862600D02*
X71581200Y-104919000D01*
X111775000Y-104919000D02*
X111775000Y-117964200D01*
X110775000Y-104919000D02*
X111775000Y-104919000D01*
X111775000Y-118919000D02*
X110775000Y-118919000D01*
X111775000Y-117919000D02*
X111775000Y-118919000D01*
X97775000Y-118919000D02*
X97775000Y-117919000D01*
X110775000Y-118919000D02*
X97775000Y-118919000D01*
X97775000Y-104919000D02*
X110769400Y-104919000D01*
X97775000Y-117862600D02*
X97775000Y-104919000D01*
X130825000Y-104919000D02*
X130825000Y-117964200D01*
X129825000Y-104919000D02*
X130825000Y-104919000D01*
X130825000Y-118919000D02*
X129825000Y-118919000D01*
X130825000Y-117919000D02*
X130825000Y-118919000D01*
X116825000Y-118919000D02*
X116825000Y-117919000D01*
X129825000Y-118919000D02*
X116825000Y-118919000D01*
X116825000Y-104919000D02*
X129819400Y-104919000D01*
X116825000Y-117862600D02*
X116825000Y-104919000D01*
X149875000Y-104919000D02*
X149875000Y-117964200D01*
X148875000Y-104919000D02*
X149875000Y-104919000D01*
X149875000Y-118919000D02*
X148875000Y-118919000D01*
X149875000Y-117919000D02*
X149875000Y-118919000D01*
X135875000Y-118919000D02*
X135875000Y-117919000D01*
X148875000Y-118919000D02*
X135875000Y-118919000D01*
X135875000Y-104919000D02*
X148869400Y-104919000D01*
X135875000Y-117862600D02*
X135875000Y-104919000D01*
X168925000Y-104919000D02*
X168925000Y-117964200D01*
X167925000Y-104919000D02*
X168925000Y-104919000D01*
X168925000Y-118919000D02*
X167925000Y-118919000D01*
X168925000Y-117919000D02*
X168925000Y-118919000D01*
X154925000Y-118919000D02*
X154925000Y-117919000D01*
X167925000Y-118919000D02*
X154925000Y-118919000D01*
X154925000Y-104919000D02*
X167919400Y-104919000D01*
X154925000Y-117862600D02*
X154925000Y-104919000D01*
X187975000Y-104919000D02*
X187975000Y-117964200D01*
X186975000Y-104919000D02*
X187975000Y-104919000D01*
X187975000Y-118919000D02*
X186975000Y-118919000D01*
X187975000Y-117919000D02*
X187975000Y-118919000D01*
X173975000Y-118919000D02*
X173975000Y-117919000D01*
X186975000Y-118919000D02*
X173975000Y-118919000D01*
X173975000Y-104919000D02*
X186969400Y-104919000D01*
X173975000Y-117862600D02*
X173975000Y-104919000D01*
X207025000Y-104919000D02*
X207025000Y-117964200D01*
X206025000Y-104919000D02*
X207025000Y-104919000D01*
X207025000Y-118919000D02*
X206025000Y-118919000D01*
X207025000Y-117919000D02*
X207025000Y-118919000D01*
X193025000Y-118919000D02*
X193025000Y-117919000D01*
X206025000Y-118919000D02*
X193025000Y-118919000D01*
X193025000Y-104919000D02*
X206019400Y-104919000D01*
X193025000Y-117862600D02*
X193025000Y-104919000D01*
X226075000Y-104919000D02*
X226075000Y-117964200D01*
X225075000Y-104919000D02*
X226075000Y-104919000D01*
X226075000Y-118919000D02*
X225075000Y-118919000D01*
X226075000Y-117919000D02*
X226075000Y-118919000D01*
X212075000Y-118919000D02*
X212075000Y-117919000D01*
X225075000Y-118919000D02*
X212075000Y-118919000D01*
X212075000Y-104919000D02*
X225069400Y-104919000D01*
X212075000Y-117862600D02*
X212075000Y-104919000D01*
X245125000Y-104919000D02*
X245125000Y-117964200D01*
X244125000Y-104919000D02*
X245125000Y-104919000D01*
X245125000Y-118919000D02*
X244125000Y-118919000D01*
X245125000Y-117919000D02*
X245125000Y-118919000D01*
X231125000Y-118919000D02*
X231125000Y-117919000D01*
X244125000Y-118919000D02*
X231125000Y-118919000D01*
X231125000Y-104919000D02*
X244119400Y-104919000D01*
X231125000Y-117862600D02*
X231125000Y-104919000D01*
X264175000Y-104919000D02*
X264175000Y-117964200D01*
X263175000Y-104919000D02*
X264175000Y-104919000D01*
X264175000Y-118919000D02*
X263175000Y-118919000D01*
X264175000Y-117919000D02*
X264175000Y-118919000D01*
X250175000Y-118919000D02*
X250175000Y-117919000D01*
X263175000Y-118919000D02*
X250175000Y-118919000D01*
X250175000Y-104919000D02*
X263169400Y-104919000D01*
X250175000Y-117862600D02*
X250175000Y-104919000D01*
X283225000Y-104919000D02*
X283225000Y-117964200D01*
X282225000Y-104919000D02*
X283225000Y-104919000D01*
X283225000Y-118919000D02*
X282225000Y-118919000D01*
X283225000Y-117919000D02*
X283225000Y-118919000D01*
X269225000Y-118919000D02*
X269225000Y-117919000D01*
X282225000Y-118919000D02*
X269225000Y-118919000D01*
X269225000Y-104919000D02*
X282219400Y-104919000D01*
X269225000Y-117862600D02*
X269225000Y-104919000D01*
X302275000Y-104919000D02*
X302275000Y-117964200D01*
X301275000Y-104919000D02*
X302275000Y-104919000D01*
X302275000Y-118919000D02*
X301275000Y-118919000D01*
X302275000Y-117919000D02*
X302275000Y-118919000D01*
X288275000Y-118919000D02*
X288275000Y-117919000D01*
X301275000Y-118919000D02*
X288275000Y-118919000D01*
X288275000Y-104919000D02*
X301269400Y-104919000D01*
X288275000Y-117862600D02*
X288275000Y-104919000D01*
X333231000Y-104919000D02*
X333231000Y-117964200D01*
X332231000Y-104919000D02*
X333231000Y-104919000D01*
X333231000Y-118919000D02*
X332231000Y-118919000D01*
X333231000Y-117919000D02*
X333231000Y-118919000D01*
X319231000Y-118919000D02*
X319231000Y-117919000D01*
X332231000Y-118919000D02*
X319231000Y-118919000D01*
X319231000Y-104919000D02*
X332225400Y-104919000D01*
X319231000Y-117862600D02*
X319231000Y-104919000D01*
X90343800Y-123969000D02*
X90343800Y-137014200D01*
X89343800Y-123969000D02*
X90343800Y-123969000D01*
X90343800Y-137969000D02*
X89343800Y-137969000D01*
X90343800Y-136969000D02*
X90343800Y-137969000D01*
X76343800Y-137969000D02*
X76343800Y-136969000D01*
X89343800Y-137969000D02*
X76343800Y-137969000D01*
X76343800Y-123969000D02*
X89338200Y-123969000D01*
X76343800Y-136912600D02*
X76343800Y-123969000D01*
X121300000Y-123969000D02*
X121300000Y-137014200D01*
X120300000Y-123969000D02*
X121300000Y-123969000D01*
X121300000Y-137969000D02*
X120300000Y-137969000D01*
X121300000Y-136969000D02*
X121300000Y-137969000D01*
X107300000Y-137969000D02*
X107300000Y-136969000D01*
X120300000Y-137969000D02*
X107300000Y-137969000D01*
X107300000Y-123969000D02*
X120294400Y-123969000D01*
X107300000Y-136912600D02*
X107300000Y-123969000D01*
X140350000Y-123969000D02*
X140350000Y-137014200D01*
X139350000Y-123969000D02*
X140350000Y-123969000D01*
X140350000Y-137969000D02*
X139350000Y-137969000D01*
X140350000Y-136969000D02*
X140350000Y-137969000D01*
X126350000Y-137969000D02*
X126350000Y-136969000D01*
X139350000Y-137969000D02*
X126350000Y-137969000D01*
X126350000Y-123969000D02*
X139344400Y-123969000D01*
X126350000Y-136912600D02*
X126350000Y-123969000D01*
X159400000Y-123969000D02*
X159400000Y-137014200D01*
X158400000Y-123969000D02*
X159400000Y-123969000D01*
X159400000Y-137969000D02*
X158400000Y-137969000D01*
X159400000Y-136969000D02*
X159400000Y-137969000D01*
X145400000Y-137969000D02*
X145400000Y-136969000D01*
X158400000Y-137969000D02*
X145400000Y-137969000D01*
X145400000Y-123969000D02*
X158394400Y-123969000D01*
X145400000Y-136912600D02*
X145400000Y-123969000D01*
X178450000Y-123969000D02*
X178450000Y-137014200D01*
X177450000Y-123969000D02*
X178450000Y-123969000D01*
X178450000Y-137969000D02*
X177450000Y-137969000D01*
X178450000Y-136969000D02*
X178450000Y-137969000D01*
X164450000Y-137969000D02*
X164450000Y-136969000D01*
X177450000Y-137969000D02*
X164450000Y-137969000D01*
X164450000Y-123969000D02*
X177444400Y-123969000D01*
X164450000Y-136912600D02*
X164450000Y-123969000D01*
X197500000Y-123969000D02*
X197500000Y-137014200D01*
X196500000Y-123969000D02*
X197500000Y-123969000D01*
X197500000Y-137969000D02*
X196500000Y-137969000D01*
X197500000Y-136969000D02*
X197500000Y-137969000D01*
X183500000Y-137969000D02*
X183500000Y-136969000D01*
X196500000Y-137969000D02*
X183500000Y-137969000D01*
X183500000Y-123969000D02*
X196494400Y-123969000D01*
X183500000Y-136912600D02*
X183500000Y-123969000D01*
X216550000Y-123969000D02*
X216550000Y-137014200D01*
X215550000Y-123969000D02*
X216550000Y-123969000D01*
X216550000Y-137969000D02*
X215550000Y-137969000D01*
X216550000Y-136969000D02*
X216550000Y-137969000D01*
X202550000Y-137969000D02*
X202550000Y-136969000D01*
X215550000Y-137969000D02*
X202550000Y-137969000D01*
X202550000Y-123969000D02*
X215544400Y-123969000D01*
X202550000Y-136912600D02*
X202550000Y-123969000D01*
X235600000Y-123969000D02*
X235600000Y-137014200D01*
X234600000Y-123969000D02*
X235600000Y-123969000D01*
X235600000Y-137969000D02*
X234600000Y-137969000D01*
X235600000Y-136969000D02*
X235600000Y-137969000D01*
X221600000Y-137969000D02*
X221600000Y-136969000D01*
X234600000Y-137969000D02*
X221600000Y-137969000D01*
X221600000Y-123969000D02*
X234594400Y-123969000D01*
X221600000Y-136912600D02*
X221600000Y-123969000D01*
X254650000Y-123969000D02*
X254650000Y-137014200D01*
X253650000Y-123969000D02*
X254650000Y-123969000D01*
X254650000Y-137969000D02*
X253650000Y-137969000D01*
X254650000Y-136969000D02*
X254650000Y-137969000D01*
X240650000Y-137969000D02*
X240650000Y-136969000D01*
X253650000Y-137969000D02*
X240650000Y-137969000D01*
X240650000Y-123969000D02*
X253644400Y-123969000D01*
X240650000Y-136912600D02*
X240650000Y-123969000D01*
X273700000Y-123969000D02*
X273700000Y-137014200D01*
X272700000Y-123969000D02*
X273700000Y-123969000D01*
X273700000Y-137969000D02*
X272700000Y-137969000D01*
X273700000Y-136969000D02*
X273700000Y-137969000D01*
X259700000Y-137969000D02*
X259700000Y-136969000D01*
X272700000Y-137969000D02*
X259700000Y-137969000D01*
X259700000Y-123969000D02*
X272694400Y-123969000D01*
X259700000Y-136912600D02*
X259700000Y-123969000D01*
X292750000Y-123969000D02*
X292750000Y-137014200D01*
X291750000Y-123969000D02*
X292750000Y-123969000D01*
X292750000Y-137969000D02*
X291750000Y-137969000D01*
X292750000Y-136969000D02*
X292750000Y-137969000D01*
X278750000Y-137969000D02*
X278750000Y-136969000D01*
X291750000Y-137969000D02*
X278750000Y-137969000D01*
X278750000Y-123969000D02*
X291744400Y-123969000D01*
X278750000Y-136912600D02*
X278750000Y-123969000D01*
X328469000Y-123969000D02*
X328469000Y-137014200D01*
X327469000Y-123969000D02*
X328469000Y-123969000D01*
X328469000Y-137969000D02*
X327469000Y-137969000D01*
X328469000Y-136969000D02*
X328469000Y-137969000D01*
X314469000Y-137969000D02*
X314469000Y-136969000D01*
X327469000Y-137969000D02*
X314469000Y-137969000D01*
X314469000Y-123969000D02*
X327463400Y-123969000D01*
X314469000Y-136912600D02*
X314469000Y-123969000D01*
X80818800Y-143019000D02*
X80818800Y-156064200D01*
X79818800Y-143019000D02*
X80818800Y-143019000D01*
X80818800Y-157019000D02*
X79818800Y-157019000D01*
X80818800Y-156019000D02*
X80818800Y-157019000D01*
X66818800Y-157019000D02*
X66818800Y-156019000D01*
X79818800Y-157019000D02*
X66818800Y-157019000D01*
X66818800Y-143019000D02*
X79813200Y-143019000D01*
X66818800Y-155962600D02*
X66818800Y-143019000D01*
X104631200Y-143019000D02*
X104631200Y-156064200D01*
X103631200Y-143019000D02*
X104631200Y-143019000D01*
X104631200Y-157019000D02*
X103631200Y-157019000D01*
X104631200Y-156019000D02*
X104631200Y-157019000D01*
X90631200Y-157019000D02*
X90631200Y-156019000D01*
X103631200Y-157019000D02*
X90631200Y-157019000D01*
X90631200Y-143019000D02*
X103625600Y-143019000D01*
X90631200Y-155962600D02*
X90631200Y-143019000D01*
X128444000Y-143019000D02*
X128444000Y-156064200D01*
X127444000Y-143019000D02*
X128444000Y-143019000D01*
X128444000Y-157019000D02*
X127444000Y-157019000D01*
X128444000Y-156019000D02*
X128444000Y-157019000D01*
X114444000Y-157019000D02*
X114444000Y-156019000D01*
X127444000Y-157019000D02*
X114444000Y-157019000D01*
X114444000Y-143019000D02*
X127438400Y-143019000D01*
X114444000Y-155962600D02*
X114444000Y-143019000D01*
X199881000Y-143019000D02*
X199881000Y-156064200D01*
X198881000Y-143019000D02*
X199881000Y-143019000D01*
X199881000Y-157019000D02*
X198881000Y-157019000D01*
X199881000Y-156019000D02*
X199881000Y-157019000D01*
X185881000Y-157019000D02*
X185881000Y-156019000D01*
X198881000Y-157019000D02*
X185881000Y-157019000D01*
X185881000Y-143019000D02*
X198875400Y-143019000D01*
X185881000Y-155962600D02*
X185881000Y-143019000D01*
X271319000Y-143019000D02*
X271319000Y-156064200D01*
X270319000Y-143019000D02*
X271319000Y-143019000D01*
X271319000Y-157019000D02*
X270319000Y-157019000D01*
X271319000Y-156019000D02*
X271319000Y-157019000D01*
X257319000Y-157019000D02*
X257319000Y-156019000D01*
X270319000Y-157019000D02*
X257319000Y-157019000D01*
X257319000Y-143019000D02*
X270313400Y-143019000D01*
X257319000Y-155962600D02*
X257319000Y-143019000D01*
X295131000Y-143019000D02*
X295131000Y-156064200D01*
X294131000Y-143019000D02*
X295131000Y-143019000D01*
X295131000Y-157019000D02*
X294131000Y-157019000D01*
X295131000Y-156019000D02*
X295131000Y-157019000D01*
X281131000Y-157019000D02*
X281131000Y-156019000D01*
X294131000Y-157019000D02*
X281131000Y-157019000D01*
X281131000Y-143019000D02*
X294125400Y-143019000D01*
X281131000Y-155962600D02*
X281131000Y-143019000D01*
X318944000Y-143019000D02*
X318944000Y-156064200D01*
X317944000Y-143019000D02*
X318944000Y-143019000D01*
X318944000Y-157019000D02*
X317944000Y-157019000D01*
X318944000Y-156019000D02*
X318944000Y-157019000D01*
X304944000Y-157019000D02*
X304944000Y-156019000D01*
X317944000Y-157019000D02*
X304944000Y-157019000D01*
X304944000Y-143019000D02*
X317938400Y-143019000D01*
X304944000Y-155962600D02*
X304944000Y-143019000D01*
X342756000Y-143019000D02*
X342756000Y-156064200D01*
X341756000Y-143019000D02*
X342756000Y-143019000D01*
X342756000Y-157019000D02*
X341756000Y-157019000D01*
X342756000Y-156019000D02*
X342756000Y-157019000D01*
X328756000Y-157019000D02*
X328756000Y-156019000D01*
X341756000Y-157019000D02*
X328756000Y-157019000D01*
X328756000Y-143019000D02*
X341750400Y-143019000D01*
X328756000Y-155962600D02*
X328756000Y-143019000D01*
X78437500Y-66818800D02*
X78437500Y-79864000D01*
X77437500Y-66818800D02*
X78437500Y-66818800D01*
X78437500Y-80818800D02*
X77437500Y-80818800D01*
X78437500Y-79818800D02*
X78437500Y-80818800D01*
X64437500Y-80818800D02*
X64437500Y-79818800D01*
X77437500Y-80818800D02*
X64437500Y-80818800D01*
X64437500Y-66818800D02*
X77431900Y-66818800D01*
X64437500Y-79762400D02*
X64437500Y-66818800D01*
X116538000Y-66818800D02*
X116538000Y-79864000D01*
X115538000Y-66818800D02*
X116538000Y-66818800D01*
X116538000Y-80818800D02*
X115538000Y-80818800D01*
X116538000Y-79818800D02*
X116538000Y-80818800D01*
X102538000Y-80818800D02*
X102538000Y-79818800D01*
X115538000Y-80818800D02*
X102538000Y-80818800D01*
X102538000Y-66818800D02*
X115532400Y-66818800D01*
X102538000Y-79762400D02*
X102538000Y-66818800D01*
D14*
X79048300Y-101394000D02*
X79048300Y-103464000D01*
X82588300Y-101394000D02*
X82588300Y-103464000D01*
X82588300Y-101394000D02*
X81268300Y-101394000D01*
X80368300Y-101394000D02*
X79048300Y-101394000D01*
X80368300Y-103464000D02*
X79048300Y-103464000D01*
X82588300Y-103464000D02*
X81268300Y-103464000D01*
X346517920Y-88880060D02*
X344447920Y-88880060D01*
X346517920Y-92420060D02*
X344447920Y-92420060D01*
X346517920Y-92420060D02*
X346517920Y-91100060D01*
X346517920Y-90200060D02*
X346517920Y-88880060D01*
X344447920Y-90200060D02*
X344447920Y-88880060D01*
X344447920Y-92420060D02*
X344447920Y-91100060D01*
X344447920Y-112002010D02*
X344447920Y-110682010D01*
X344447920Y-109782010D02*
X344447920Y-108462010D01*
X346517920Y-109782010D02*
X346517920Y-108462010D01*
X346517920Y-112002010D02*
X346517920Y-110682010D01*
X346517920Y-112002010D02*
X344447920Y-112002010D01*
X346517920Y-108462010D02*
X344447920Y-108462010D01*
X344447920Y-131583960D02*
X344447920Y-130263960D01*
X344447920Y-129363960D02*
X344447920Y-128043960D01*
X346517920Y-129363960D02*
X346517920Y-128043960D01*
X346517920Y-131583960D02*
X346517920Y-130263960D01*
X346517920Y-131583960D02*
X344447920Y-131583960D01*
X346517920Y-128043960D02*
X344447920Y-128043960D01*
X68259540Y-66782900D02*
X66939540Y-66782900D01*
X66039540Y-66782900D02*
X64719540Y-66782900D01*
X66039540Y-64712900D02*
X64719540Y-64712900D01*
X68259540Y-64712900D02*
X66939540Y-64712900D01*
X68259540Y-64712900D02*
X68259540Y-66782900D01*
X64719540Y-64712900D02*
X64719540Y-66782900D01*
D16*
X66826166Y-102653102D02*
X66778547Y-102700721D01*
X66635690Y-102748340D01*
X66540452Y-102748340D01*
X66397595Y-102700721D01*
X66302357Y-102605483D01*
X66254738Y-102510245D01*
X66207119Y-102319769D01*
X66207119Y-102176912D01*
X66254738Y-101986436D01*
X66302357Y-101891198D01*
X66397595Y-101795960D01*
X66540452Y-101748340D01*
X66635690Y-101748340D01*
X66778547Y-101795960D01*
X66826166Y-101843579D01*
X67207119Y-102462626D02*
X67683309Y-102462626D01*
X67111880Y-102748340D02*
X67445214Y-101748340D01*
X67778547Y-102748340D01*
X68111880Y-102748340D02*
X68111880Y-101748340D01*
X68492833Y-101748340D01*
X68588071Y-101795960D01*
X68635690Y-101843579D01*
X68683309Y-101938817D01*
X68683309Y-102081674D01*
X68635690Y-102176912D01*
X68588071Y-102224531D01*
X68492833Y-102272150D01*
X68111880Y-102272150D01*
X69064261Y-102700721D02*
X69207119Y-102748340D01*
X69445214Y-102748340D01*
X69540452Y-102700721D01*
X69588071Y-102653102D01*
X69635690Y-102557864D01*
X69635690Y-102462626D01*
X69588071Y-102367388D01*
X69540452Y-102319769D01*
X69445214Y-102272150D01*
X69254738Y-102224531D01*
X69159500Y-102176912D01*
X69111880Y-102129293D01*
X69064261Y-102034055D01*
X69064261Y-101938817D01*
X69111880Y-101843579D01*
X69159500Y-101795960D01*
X69254738Y-101748340D01*
X69492833Y-101748340D01*
X69635690Y-101795960D01*
X69826166Y-102843579D02*
X70588071Y-102843579D01*
X71302357Y-102748340D02*
X70826166Y-102748340D01*
X70826166Y-101748340D01*
X71635690Y-102224531D02*
X71969023Y-102224531D01*
X72111880Y-102748340D02*
X71635690Y-102748340D01*
X71635690Y-101748340D01*
X72111880Y-101748340D01*
X72540452Y-102748340D02*
X72540452Y-101748340D01*
X72778547Y-101748340D01*
X72921404Y-101795960D01*
X73016642Y-101891198D01*
X73064261Y-101986436D01*
X73111880Y-102176912D01*
X73111880Y-102319769D01*
X73064261Y-102510245D01*
X73016642Y-102605483D01*
X72921404Y-102700721D01*
X72778547Y-102748340D01*
X72540452Y-102748340D01*
X341525741Y-98308420D02*
X341049551Y-98308420D01*
X341049551Y-97308420D01*
X341859075Y-97784611D02*
X342192408Y-97784611D01*
X342335265Y-98308420D02*
X341859075Y-98308420D01*
X341859075Y-97308420D01*
X342335265Y-97308420D01*
X342763837Y-98308420D02*
X342763837Y-97308420D01*
X343001932Y-97308420D01*
X343144789Y-97356040D01*
X343240027Y-97451278D01*
X343287646Y-97546516D01*
X343335265Y-97736992D01*
X343335265Y-97879849D01*
X343287646Y-98070325D01*
X343240027Y-98165563D01*
X343144789Y-98260801D01*
X343001932Y-98308420D01*
X342763837Y-98308420D01*
X344287646Y-98308420D02*
X343716218Y-98308420D01*
X344001932Y-98308420D02*
X344001932Y-97308420D01*
X343906694Y-97451278D01*
X343811456Y-97546516D01*
X343716218Y-97594135D01*
X345240027Y-98308420D02*
X344668599Y-98308420D01*
X344954313Y-98308420D02*
X344954313Y-97308420D01*
X344859075Y-97451278D01*
X344763837Y-97546516D01*
X344668599Y-97594135D01*
X340425921Y-114735970D02*
X339949731Y-114735970D01*
X339949731Y-113735970D01*
X340759255Y-114212161D02*
X341092588Y-114212161D01*
X341235445Y-114735970D02*
X340759255Y-114735970D01*
X340759255Y-113735970D01*
X341235445Y-113735970D01*
X341664017Y-114735970D02*
X341664017Y-113735970D01*
X341902112Y-113735970D01*
X342044969Y-113783590D01*
X342140207Y-113878828D01*
X342187826Y-113974066D01*
X342235445Y-114164542D01*
X342235445Y-114307399D01*
X342187826Y-114497875D01*
X342140207Y-114593113D01*
X342044969Y-114688351D01*
X341902112Y-114735970D01*
X341664017Y-114735970D01*
X342616398Y-113831209D02*
X342664017Y-113783590D01*
X342759255Y-113735970D01*
X342997350Y-113735970D01*
X343092588Y-113783590D01*
X343140207Y-113831209D01*
X343187826Y-113926447D01*
X343187826Y-114021685D01*
X343140207Y-114164542D01*
X342568779Y-114735970D01*
X343187826Y-114735970D01*
X344140207Y-114735970D02*
X343568779Y-114735970D01*
X343854493Y-114735970D02*
X343854493Y-113735970D01*
X343759255Y-113878828D01*
X343664017Y-113974066D01*
X343568779Y-114021685D01*
X340357341Y-134196080D02*
X339881151Y-134196080D01*
X339881151Y-133196080D01*
X340690675Y-133672271D02*
X341024008Y-133672271D01*
X341166865Y-134196080D02*
X340690675Y-134196080D01*
X340690675Y-133196080D01*
X341166865Y-133196080D01*
X341595437Y-134196080D02*
X341595437Y-133196080D01*
X341833532Y-133196080D01*
X341976389Y-133243700D01*
X342071627Y-133338938D01*
X342119246Y-133434176D01*
X342166865Y-133624652D01*
X342166865Y-133767509D01*
X342119246Y-133957985D01*
X342071627Y-134053223D01*
X341976389Y-134148461D01*
X341833532Y-134196080D01*
X341595437Y-134196080D01*
X342500199Y-133196080D02*
X343119246Y-133196080D01*
X342785913Y-133577033D01*
X342928770Y-133577033D01*
X343024008Y-133624652D01*
X343071627Y-133672271D01*
X343119246Y-133767509D01*
X343119246Y-134005604D01*
X343071627Y-134100842D01*
X343024008Y-134148461D01*
X342928770Y-134196080D01*
X342643056Y-134196080D01*
X342547818Y-134148461D01*
X342500199Y-134100842D01*
X344071627Y-134196080D02*
X343500199Y-134196080D01*
X343785913Y-134196080D02*
X343785913Y-133196080D01*
X343690675Y-133338938D01*
X343595437Y-133434176D01*
X343500199Y-133481795D01*
X68778001Y-68186560D02*
X68301811Y-68186560D01*
X68301811Y-67186560D01*
X69111335Y-67662751D02*
X69444668Y-67662751D01*
X69587525Y-68186560D02*
X69111335Y-68186560D01*
X69111335Y-67186560D01*
X69587525Y-67186560D01*
X70016097Y-68186560D02*
X70016097Y-67186560D01*
X70254192Y-67186560D01*
X70397049Y-67234180D01*
X70492287Y-67329418D01*
X70539906Y-67424656D01*
X70587525Y-67615132D01*
X70587525Y-67757989D01*
X70539906Y-67948465D01*
X70492287Y-68043703D01*
X70397049Y-68138941D01*
X70254192Y-68186560D01*
X70016097Y-68186560D01*
X71444668Y-67519894D02*
X71444668Y-68186560D01*
X71206573Y-67138941D02*
X70968478Y-67853227D01*
X71587525Y-67853227D01*
X72492287Y-68186560D02*
X71920859Y-68186560D01*
X72206573Y-68186560D02*
X72206573Y-67186560D01*
X72111335Y-67329418D01*
X72016097Y-67424656D01*
X71920859Y-67472275D01*
X83666432Y-102857879D02*
X83333099Y-102381689D01*
X83095003Y-102857879D02*
X83095003Y-101857879D01*
X83475956Y-101857879D01*
X83571194Y-101905499D01*
X83618813Y-101953118D01*
X83666432Y-102048356D01*
X83666432Y-102191213D01*
X83618813Y-102286451D01*
X83571194Y-102334070D01*
X83475956Y-102381689D01*
X83095003Y-102381689D01*
X84666432Y-102762641D02*
X84618813Y-102810260D01*
X84475956Y-102857879D01*
X84380718Y-102857879D01*
X84237860Y-102810260D01*
X84142622Y-102715022D01*
X84095003Y-102619784D01*
X84047384Y-102429308D01*
X84047384Y-102286451D01*
X84095003Y-102095975D01*
X84142622Y-102000737D01*
X84237860Y-101905499D01*
X84380718Y-101857879D01*
X84475956Y-101857879D01*
X84618813Y-101905499D01*
X84666432Y-101953118D01*
X85618813Y-102857879D02*
X85047384Y-102857879D01*
X85333099Y-102857879D02*
X85333099Y-101857879D01*
X85237860Y-102000737D01*
X85142622Y-102095975D01*
X85047384Y-102143594D01*
X341871062Y-91092280D02*
X341537729Y-90616090D01*
X341299634Y-91092280D02*
X341299634Y-90092280D01*
X341680586Y-90092280D01*
X341775824Y-90139900D01*
X341823443Y-90187519D01*
X341871062Y-90282757D01*
X341871062Y-90425614D01*
X341823443Y-90520852D01*
X341775824Y-90568471D01*
X341680586Y-90616090D01*
X341299634Y-90616090D01*
X342823443Y-91092280D02*
X342252015Y-91092280D01*
X342537729Y-91092280D02*
X342537729Y-90092280D01*
X342442491Y-90235138D01*
X342347253Y-90330376D01*
X342252015Y-90377995D01*
X343775824Y-91092280D02*
X343204396Y-91092280D01*
X343490110Y-91092280D02*
X343490110Y-90092280D01*
X343394872Y-90235138D01*
X343299634Y-90330376D01*
X343204396Y-90377995D01*
X342132682Y-110656930D02*
X341799349Y-110180740D01*
X341561254Y-110656930D02*
X341561254Y-109656930D01*
X341942206Y-109656930D01*
X342037444Y-109704550D01*
X342085063Y-109752169D01*
X342132682Y-109847407D01*
X342132682Y-109990264D01*
X342085063Y-110085502D01*
X342037444Y-110133121D01*
X341942206Y-110180740D01*
X341561254Y-110180740D01*
X342513635Y-109752169D02*
X342561254Y-109704550D01*
X342656492Y-109656930D01*
X342894587Y-109656930D01*
X342989825Y-109704550D01*
X343037444Y-109752169D01*
X343085063Y-109847407D01*
X343085063Y-109942645D01*
X343037444Y-110085502D01*
X342466016Y-110656930D01*
X343085063Y-110656930D01*
X344037444Y-110656930D02*
X343466016Y-110656930D01*
X343751730Y-110656930D02*
X343751730Y-109656930D01*
X343656492Y-109799788D01*
X343561254Y-109895026D01*
X343466016Y-109942645D01*
X342069182Y-130127000D02*
X341735849Y-129650810D01*
X341497754Y-130127000D02*
X341497754Y-129127000D01*
X341878706Y-129127000D01*
X341973944Y-129174620D01*
X342021563Y-129222239D01*
X342069182Y-129317477D01*
X342069182Y-129460334D01*
X342021563Y-129555572D01*
X341973944Y-129603191D01*
X341878706Y-129650810D01*
X341497754Y-129650810D01*
X342402516Y-129127000D02*
X343021563Y-129127000D01*
X342688230Y-129507953D01*
X342831087Y-129507953D01*
X342926325Y-129555572D01*
X342973944Y-129603191D01*
X343021563Y-129698429D01*
X343021563Y-129936524D01*
X342973944Y-130031762D01*
X342926325Y-130079381D01*
X342831087Y-130127000D01*
X342545373Y-130127000D01*
X342450135Y-130079381D01*
X342402516Y-130031762D01*
X343973944Y-130127000D02*
X343402516Y-130127000D01*
X343688230Y-130127000D02*
X343688230Y-129127000D01*
X343592992Y-129269858D01*
X343497754Y-129365096D01*
X343402516Y-129412715D01*
X65506362Y-68173860D02*
X65173029Y-67697670D01*
X64934934Y-68173860D02*
X64934934Y-67173860D01*
X65315886Y-67173860D01*
X65411124Y-67221480D01*
X65458743Y-67269099D01*
X65506362Y-67364337D01*
X65506362Y-67507194D01*
X65458743Y-67602432D01*
X65411124Y-67650051D01*
X65315886Y-67697670D01*
X64934934Y-67697670D01*
X66363505Y-67507194D02*
X66363505Y-68173860D01*
X66125410Y-67126241D02*
X65887315Y-67840527D01*
X66506362Y-67840527D01*
X67411124Y-68173860D02*
X66839696Y-68173860D01*
X67125410Y-68173860D02*
X67125410Y-67173860D01*
X67030172Y-67316718D01*
X66934934Y-67411956D01*
X66839696Y-67459575D01*
M02*
